Amstelvar-Roman-opsz14-wght900-wdth100.ufo
<glyph name="numbersign" format="2">
	<unicode hex="0023"/>
	<advance width="1292"/>
	<outline>
		<contour>
			<point x="69" y="396" type="line"/>
			<point x="69" y="643" type="line"/>
			<point x="1129" y="643" type="line"/>
			<point x="1129" y="396" type="line"/>
		</contour>
		<contour>
			<point x="163" y="838" type="line"/>
			<point x="163" y="1085" type="line"/>
			<point x="1223" y="1085" type="line"/>
			<point x="1223" y="838" type="line"/>
		</contour>
		<contour>
			<point x="138" y="-24" type="line"/>
			<point x="649" y="1561" type="line"/>
			<point x="758" y="1541" type="line"/>
			<point x="247" y="-44" type="line"/>
		</contour>
		<contour>
			<point x="548" y="-24" type="line"/>
			<point x="1059" y="1561" type="line"/>
			<point x="1168" y="1541" type="line"/>
			<point x="657" y="-44" type="line"/>
		</contour>
	</outline>
</glyph>
<glyph name="greater" format="2">
  <advance width="1083"/>
  <unicode hex="003E"/>
  <outline>
    <contour>
      <point x="152" y="305" type="qcurve" smooth="yes"/>
      <point x="255" y="417"/>
      <point x="505" y="637"/>
      <point x="505" y="637" type="qcurve"/>
      <point x="505" y="637"/>
      <point x="271" y="855"/>
      <point x="156" y="977" type="qcurve" smooth="yes"/>
      <point x="75" y="1063"/>
      <point x="234" y="1250"/>
      <point x="329" y="1170" type="qcurve" smooth="yes"/>
      <point x="406" y="1106"/>
      <point x="981" y="634"/>
      <point x="981" y="634" type="qcurve"/>
      <point x="981" y="634"/>
      <point x="392" y="168"/>
      <point x="316" y="104" type="qcurve" smooth="yes"/>
      <point x="237" y="38"/>
      <point x="73" y="219"/>
    </contour>
  </outline>
</glyph>
<glyph name="asciicircum" format="2">
	<unicode hex="005E"/>
	<advance width="1416"/>
	<outline>
		<contour>
			<point x="172" y="926" type="line"/>
			<point x="227" y="988"/>
			<point x="665" y="1501"/>
			<point x="688" y="1524" type="qcurve"/>
			<point x="712" y="1501"/>
			<point x="1174" y="989"/>
			<point x="1234" y="927" type="qcurve"/>
			<point x="1097" y="799" type="line"/>
			<point x="980" y="913"/>
			<point x="705" y="1185"/>
			<point x="690" y="1197" type="qcurve"/>
			<point x="671" y="1178"/>
			<point x="424" y="920"/>
			<point x="311" y="801" type="qcurve"/>
		</contour>
	</outline>
</glyph>
<glyph name="grave" format="2">
  <advance width="1024"/>
  <unicode hex="0060"/>
  <outline>
    <contour>
      <point x="237" y="1501" type="qcurve" smooth="yes"/>
      <point x="237" y="1545"/>
      <point x="319" y="1620"/>
      <point x="370" y="1620" type="qcurve" smooth="yes"/>
      <point x="420" y="1620"/>
      <point x="519" y="1538"/>
      <point x="563" y="1477" type="qcurve" smooth="yes"/>
      <point x="738" y="1238" type="line"/>
      <point x="650" y="1150" type="line"/>
      <point x="342" y="1342" type="line" smooth="yes"/>
      <point x="287" y="1376"/>
      <point x="237" y="1457"/>
    </contour>
  </outline>
</glyph>
<glyph name="m" format="2">
  <advance width="2423"/>
  <unicode hex="006D"/>
  <outline>
    <contour>
      <point x="33" y="0" type="line"/>
      <point x="33" y="120" type="line"/>
      <point x="181" y="155" type="line"/>
      <point x="183" y="552" type="line"/>
      <point x="181" y="857" type="line"/>
      <point x="33" y="887" type="line"/>
      <point x="33" y="1020" type="line"/>
      <point x="591" y="1062" type="line"/>
      <point x="626" y="1035" type="line"/>
      <point x="649" y="901" type="line"/>
      <point x="715" y="981"/>
      <point x="940" y="1072"/>
      <point x="1091" y="1072" type="qcurve" smooth="yes"/>
      <point x="1232" y="1072"/>
      <point x="1402" y="977"/>
      <point x="1434" y="895" type="qcurve"/>
      <point x="1499" y="978"/>
      <point x="1723" y="1072"/>
      <point x="1875" y="1072" type="qcurve" smooth="yes"/>
      <point x="2064" y="1072"/>
      <point x="2243" y="906"/>
      <point x="2243" y="776" type="qcurve" smooth="yes"/>
      <point x="2242" y="716"/>
      <point x="2243.0" y="561"/>
      <point x="2243" y="561" type="qcurve"/>
      <point x="2249" y="154" type="line"/>
      <point x="2399" y="120" type="line"/>
      <point x="2399" y="0" type="line"/>
      <point x="1654" y="0" type="line"/>
      <point x="1654" y="120" type="line"/>
      <point x="1758" y="155" type="line"/>
      <point x="1761" y="510" type="line"/>
      <point x="1761" y="664" type="line" smooth="yes"/>
      <point x="1761" y="740"/>
      <point x="1685" y="814"/>
      <point x="1621" y="814" type="qcurve" smooth="yes"/>
      <point x="1572" y="814"/>
      <point x="1483" y="769"/>
      <point x="1454" y="726" type="qcurve"/>
      <point x="1454" y="658"/>
      <point x="1452" y="524"/>
      <point x="1452" y="524" type="qcurve"/>
      <point x="1455" y="155" type="line"/>
      <point x="1558" y="120" type="line"/>
      <point x="1558" y="0" type="line"/>
      <point x="866" y="0" type="line"/>
      <point x="866" y="120" type="line"/>
      <point x="970" y="155" type="line"/>
      <point x="972" y="552" type="line"/>
      <point x="972" y="697" type="line" smooth="yes"/>
      <point x="972" y="756"/>
      <point x="902" y="813"/>
      <point x="843" y="814" type="qcurve" smooth="yes"/>
      <point x="791" y="815"/>
      <point x="694" y="769"/>
      <point x="664" y="725" type="qcurve"/>
      <point x="663" y="552" type="line"/>
      <point x="665" y="155" type="line"/>
      <point x="769" y="120" type="line"/>
      <point x="769" y="0" type="line"/>
    </contour>
  </outline>
</glyph>
<glyph name="o" format="2">
  <advance width="1547"/>
  <unicode hex="006F"/>
  <anchor x="773.5" y="0" name="bottom"/>
  <anchor x="773.5" y="525.0" name="center"/>
  <anchor x="1023" y="0" name="ogonek"/>
  <anchor x="773.5" y="1050" name="top"/>
  <anchor x="1022" y="1050" name="topright"/>
  <outline>
    <contour>
      <point x="54" y="525" type="qcurve" smooth="yes"/>
      <point x="54" y="773"/>
      <point x="450" y="1076"/>
      <point x="771" y="1076" type="qcurve" smooth="yes"/>
      <point x="1093" y="1076"/>
      <point x="1493" y="794"/>
      <point x="1493" y="531" type="qcurve" smooth="yes"/>
      <point x="1493" y="284"/>
      <point x="1100" y="-27"/>
      <point x="779" y="-27" type="qcurve" smooth="yes"/>
      <point x="457" y="-27"/>
      <point x="54" y="260"/>
    </contour>
    <contour>
      <point x="570" y="540" type="qcurve" smooth="yes"/>
      <point x="571" y="313"/>
      <point x="677" y="115"/>
      <point x="772" y="115" type="qcurve" smooth="yes"/>
      <point x="875" y="115"/>
      <point x="977" y="292"/>
      <point x="977" y="526" type="qcurve" smooth="yes"/>
      <point x="977" y="746"/>
      <point x="870" y="918"/>
      <point x="774" y="918" type="qcurve" smooth="yes"/>
      <point x="670" y="918"/>
      <point x="569" y="765"/>
    </contour>
  </outline>
</glyph>
<glyph name="q" format="2">
  <advance width="1594"/>
  <unicode hex="0071"/>
  <outline>
    <contour>
      <point x="55" y="512" type="qcurve" smooth="yes"/>
      <point x="55" y="784"/>
      <point x="396" y="1070"/>
      <point x="644" y="1070" type="qcurve" smooth="yes"/>
      <point x="742" y="1070"/>
      <point x="900" y="1027"/>
      <point x="958" y="981" type="qcurve"/>
      <point x="1025" y="1055" type="line"/>
      <point x="1566" y="1020" type="line"/>
      <point x="1566" y="887" type="line"/>
      <point x="1443" y="865" type="line"/>
      <point x="1437" y="453" type="line"/>
      <point x="1438" y="-326" type="line"/>
      <point x="1581" y="-361" type="line"/>
      <point x="1581" y="-480" type="line"/>
      <point x="783" y="-480" type="line"/>
      <point x="783" y="-361" type="line"/>
      <point x="946" y="-328" type="line"/>
      <point x="953" y="106" type="line"/>
      <point x="894" y="52"/>
      <point x="710" y="-9"/>
      <point x="584" y="-9" type="qcurve" smooth="yes"/>
      <point x="370" y="-9"/>
      <point x="55" y="253"/>
    </contour>
    <contour>
      <point x="572" y="534" type="qcurve" smooth="yes"/>
      <point x="572" y="324"/>
      <point x="680" y="186"/>
      <point x="770" y="186" type="qcurve" smooth="yes"/>
      <point x="834" y="186"/>
      <point x="929" y="245"/>
      <point x="957" y="296" type="qcurve"/>
      <point x="957" y="801" type="line"/>
      <point x="934" y="839"/>
      <point x="850" y="886"/>
      <point x="791" y="886" type="qcurve" smooth="yes"/>
      <point x="694" y="886"/>
      <point x="572" y="750"/>
    </contour>
  </outline>
</glyph>
<glyph name="guillemetleft" format="2">
	<unicode hex="00AB"/>
	<advance width="1533"/>
	<outline>
		<contour>
			<point x="45" y="644" type="line"/>
			<point x="120" y="694"/>
			<point x="617" y="1013"/>
			<point x="678" y="1054" type="qcurve" smooth="yes"/>
			<point x="783" y="1124"/>
			<point x="885" y="947"/>
			<point x="784" y="879" type="qcurve" smooth="yes"/>
			<point x="640" y="782"/>
			<point x="418" y="635"/>
			<point x="384" y="615" type="qcurve"/>
			<point x="416" y="597"/>
			<point x="698" y="406"/>
			<point x="788" y="343" type="qcurve" smooth="yes"/>
			<point x="887" y="274"/>
			<point x="791" y="110"/>
			<point x="697" y="164" type="qcurve" smooth="yes"/>
			<point x="636" y="199"/>
			<point x="120" y="536"/>
			<point x="45" y="584" type="qcurve"/>
		</contour>
		<contour>
			<point x="664" y="644" type="line"/>
			<point x="739" y="694"/>
			<point x="1236" y="1013"/>
			<point x="1297" y="1054" type="qcurve" smooth="yes"/>
			<point x="1402" y="1124"/>
			<point x="1504" y="947"/>
			<point x="1403" y="879" type="qcurve" smooth="yes"/>
			<point x="1259" y="782"/>
			<point x="1037" y="635"/>
			<point x="1003" y="615" type="qcurve"/>
			<point x="1035" y="597"/>
			<point x="1317" y="406"/>
			<point x="1407" y="343" type="qcurve" smooth="yes"/>
			<point x="1506" y="274"/>
			<point x="1410" y="110"/>
			<point x="1316" y="164" type="qcurve" smooth="yes"/>
			<point x="1255" y="199"/>
			<point x="739" y="536"/>
			<point x="664" y="584" type="qcurve"/>
		</contour>
	</outline>
</glyph>
<glyph name="divide" format="2">
	<unicode hex="00F7"/>
	<advance width="1083"/>
	<outline>
		<contour>
			<point x="63" y="492" type="line"/>
			<point x="63" y="772" type="line"/>
			<point x="1020" y="772" type="line"/>
			<point x="1020" y="492" type="line"/>
		</contour>
		<contour>
			<point x="340" y="227" type="qcurve" smooth="yes"/>
			<point x="340" y="306"/>
			<point x="452" y="427"/>
			<point x="540" y="427" type="qcurve" smooth="yes"/>
			<point x="628" y="427"/>
			<point x="740" y="306"/>
			<point x="740" y="227" type="qcurve" smooth="yes"/>
			<point x="740" y="148"/>
			<point x="628" y="28"/>
			<point x="540" y="28" type="qcurve" smooth="yes"/>
			<point x="452" y="28"/>
			<point x="340" y="148"/>
		</contour>
		<contour>
			<point x="340" y="1036" type="qcurve" smooth="yes"/>
			<point x="340" y="1116"/>
			<point x="452" y="1236"/>
			<point x="540" y="1236" type="qcurve" smooth="yes"/>
			<point x="628" y="1236"/>
			<point x="740" y="1116"/>
			<point x="740" y="1036" type="qcurve" smooth="yes"/>
			<point x="740" y="958"/>
			<point x="628" y="837"/>
			<point x="540" y="837" type="qcurve" smooth="yes"/>
			<point x="452" y="837"/>
			<point x="340" y="958"/>
		</contour>
	</outline>
</glyph>
<glyph name="OE" format="2">
  <advance width="2442"/>
  <unicode hex="0152"/>
  <outline>
    <contour>
      <point x="65" y="743" type="qcurve" smooth="yes"/>
      <point x="65" y="1074"/>
      <point x="535" y="1527"/>
      <point x="932" y="1527" type="qcurve" smooth="yes"/>
      <point x="1001" y="1527"/>
      <point x="1172" y="1513"/>
      <point x="1224" y="1500" type="qcurve"/>
      <point x="2309" y="1500" type="line"/>
      <point x="2309" y="1139" type="line"/>
      <point x="2152" y="1139" type="line"/>
      <point x="2117" y="1342" type="line"/>
      <point x="1777" y="1342" type="line"/>
      <point x="1722" y="1318" type="line"/>
      <point x="1720" y="783" type="line"/>
      <point x="1722" y="183" type="line"/>
      <point x="1771" y="158" type="line"/>
      <point x="2169" y="158" type="line"/>
      <point x="2241" y="401" type="line"/>
      <point x="2397" y="401" type="line"/>
      <point x="2359" y="0" type="line"/>
      <point x="1213" y="0" type="line"/>
      <point x="1163" y="-12"/>
      <point x="990" y="-25"/>
      <point x="927" y="-25" type="qcurve" smooth="yes"/>
      <point x="528" y="-25"/>
      <point x="65" y="402"/>
    </contour>
    <contour>
      <point x="610" y="768" type="qcurve" smooth="yes"/>
      <point x="610" y="430"/>
      <point x="810" y="143"/>
      <point x="984" y="143" type="qcurve" smooth="yes"/>
      <point x="1074" y="143"/>
      <point x="1185" y="177"/>
      <point x="1221" y="201" type="qcurve"/>
      <point x="1223" y="754" type="line"/>
      <point x="1221" y="1287" type="line"/>
      <point x="1187" y="1318"/>
      <point x="1058" y="1357"/>
      <point x="962" y="1357" type="qcurve" smooth="yes"/>
      <point x="795" y="1357"/>
      <point x="610" y="1078"/>
    </contour>
    <contour>
      <point x="1472" y="718" type="line"/>
      <point x="1472" y="854" type="line"/>
      <point x="2045" y="864" type="line"/>
      <point x="2072" y="1005" type="line"/>
      <point x="2216" y="1005" type="line"/>
      <point x="2216" y="560" type="line"/>
      <point x="2072" y="560" type="line"/>
      <point x="2045" y="708" type="line"/>
    </contour>
  </outline>
</glyph>
<glyph name="circumflex" format="2">
  <advance width="1024"/>
  <unicode hex="02C6"/>
  <outline>
    <contour>
      <point x="512.0" y="1629" type="qcurve" smooth="yes"/>
      <point x="553" y="1629"/>
      <point x="619" y="1587"/>
      <point x="664.0" y="1531" type="qcurve" smooth="yes"/>
      <point x="888" y="1250" type="line"/>
      <point x="794.0" y="1162.0" type="line"/>
      <point x="512.0" y="1390.0" type="line"/>
      <point x="230.0" y="1162.0" type="line"/>
      <point x="136" y="1250" type="line"/>
      <point x="360.0" y="1531" type="line" smooth="yes"/>
      <point x="408" y="1591"/>
      <point x="471" y="1629"/>
    </contour>
  </outline>
</glyph>
<glyph name="caron" format="2">
	<unicode hex="02C7"/>
	<advance width="1024"/>
	<outline>
		<contour>
			<point x="512" y="1172" type="qcurve" smooth="yes"/>
			<point x="471" y="1172"/>
			<point x="405" y="1214"/>
			<point x="360" y="1270" type="qcurve" smooth="yes"/>
			<point x="136" y="1551" type="line"/>
			<point x="230" y="1639" type="line"/>
			<point x="512" y="1411" type="line"/>
			<point x="794" y="1639" type="line"/>
			<point x="888" y="1551" type="line"/>
			<point x="664" y="1270" type="line" smooth="yes"/>
			<point x="616" y="1210"/>
			<point x="553" y="1172"/>
		</contour>
	</outline>
</glyph>
<glyph name="ring" format="2">
	<unicode hex="02DA"/>
	<advance width="1024"/>
	<outline>
		<contour>
			<point x="237" y="1423" type="qcurve" smooth="yes"/>
			<point x="237" y="1533"/>
			<point x="398" y="1687"/>
			<point x="512" y="1687" type="qcurve" smooth="yes"/>
			<point x="626" y="1687"/>
			<point x="787" y="1533"/>
			<point x="787" y="1423" type="qcurve" smooth="yes"/>
			<point x="787" y="1313"/>
			<point x="626" y="1159"/>
			<point x="512" y="1159" type="qcurve" smooth="yes"/>
			<point x="398" y="1159"/>
			<point x="237" y="1313"/>
		</contour>
		<contour>
			<point x="388" y="1423" type="qcurve" smooth="yes"/>
			<point x="388" y="1367"/>
			<point x="455" y="1299"/>
			<point x="512" y="1299" type="qcurve" smooth="yes"/>
			<point x="572" y="1299"/>
			<point x="636" y="1362"/>
			<point x="636" y="1423" type="qcurve" smooth="yes"/>
			<point x="636" y="1478"/>
			<point x="569" y="1547"/>
			<point x="512" y="1547" type="qcurve" smooth="yes"/>
			<point x="452" y="1547"/>
			<point x="388" y="1484"/>
		</contour>
	</outline>
</glyph>
<glyph name="ogonek" format="2">
  <advance width="1024"/>
  <unicode hex="02DB"/>
  <outline>
    <contour>
      <point x="443" y="-267" type="qcurve" smooth="yes"/>
      <point x="443" y="-320"/>
      <point x="521.0" y="-380"/>
      <point x="579" y="-380" type="qcurve" smooth="yes"/>
      <point x="642.0" y="-380"/>
      <point x="748" y="-343"/>
      <point x="807" y="-299" type="qcurve"/>
      <point x="867" y="-392" type="line"/>
      <point x="822" y="-440"/>
      <point x="629" y="-533"/>
      <point x="507" y="-533" type="qcurve" smooth="yes"/>
      <point x="375" y="-533"/>
      <point x="221" y="-428"/>
      <point x="221" y="-334" type="qcurve" smooth="yes"/>
      <point x="221" y="-226"/>
      <point x="368" y="-58"/>
      <point x="465" y="12.0" type="qcurve" smooth="yes"/>
      <point x="496" y="34.0" type="line"/>
      <point x="596" y="-23" type="line"/>
      <point x="576" y="-43" type="line" smooth="yes"/>
      <point x="500" y="-119"/>
      <point x="443" y="-218"/>
    </contour>
  </outline>
</glyph>
<glyph name="hungarumlaut" format="2">
	<unicode hex="02DD"/>
	<advance width="1024"/>
	<outline>
		<contour>
			<point x="706" y="1520" type="qcurve" smooth="yes"/>
			<point x="706" y="1480"/>
			<point x="659" y="1410"/>
			<point x="611" y="1377" type="qcurve" smooth="yes"/>
			<point x="306" y="1167" type="line"/>
			<point x="227" y="1246" type="line"/>
			<point x="412" y="1498" type="line" smooth="yes"/>
			<point x="452" y="1552"/>
			<point x="541" y="1627"/>
			<point x="586" y="1627" type="qcurve" smooth="yes"/>
			<point x="632" y="1627"/>
			<point x="706" y="1559"/>
		</contour>
		<contour>
			<point x="1126" y="1520" type="qcurve" smooth="yes"/>
			<point x="1126" y="1480"/>
			<point x="1079" y="1410"/>
			<point x="1031" y="1377" type="qcurve" smooth="yes"/>
			<point x="726" y="1167" type="line"/>
			<point x="647" y="1246" type="line"/>
			<point x="832" y="1498" type="line" smooth="yes"/>
			<point x="872" y="1552"/>
			<point x="961" y="1627"/>
			<point x="1006" y="1627" type="qcurve" smooth="yes"/>
			<point x="1052" y="1627"/>
			<point x="1126" y="1559"/>
		</contour>
	</outline>
</glyph>
<glyph name="dblgravecomb" format="2">
  <advance width="1024"/>
  <unicode hex="0311"/>
  <anchor x="512.0" y="1050" name="_top"/>
  <anchor x="512.0" y="1612" name="top"/>
  <outline>
    <contour>
      <point x="-3" y="1505" type="qcurve" smooth="yes"/>
      <point x="-3" y="1544"/>
      <point x="71" y="1612"/>
      <point x="117" y="1612" type="qcurve" smooth="yes"/>
      <point x="162" y="1612"/>
      <point x="251" y="1537"/>
      <point x="291" y="1483" type="qcurve" smooth="yes"/>
      <point x="476" y="1231" type="line"/>
      <point x="397" y="1152" type="line"/>
      <point x="92" y="1362" type="line" smooth="yes"/>
      <point x="44" y="1395"/>
      <point x="-3" y="1465"/>
    </contour>
    <contour>
      <point x="417" y="1505" type="qcurve" smooth="yes"/>
      <point x="417" y="1544"/>
      <point x="491" y="1612"/>
      <point x="537" y="1612" type="qcurve" smooth="yes"/>
      <point x="582" y="1612"/>
      <point x="671" y="1537"/>
      <point x="711" y="1483" type="qcurve" smooth="yes"/>
      <point x="896" y="1231" type="line"/>
      <point x="817" y="1152" type="line"/>
      <point x="512" y="1362" type="line" smooth="yes"/>
      <point x="464" y="1395"/>
      <point x="417" y="1465"/>
    </contour>
  </outline>
</glyph>
<glyph name="horncomb" format="2">
  <advance width="1024"/>
  <unicode hex="031B"/>
  <anchor x="0" y="1050" name="_topright"/>
  <anchor x="0" y="1306" name="topright"/>
  <outline>
    <contour>
      <point x="0" y="1050" type="line"/>
      <point x="43" y="1041"/>
      <point x="123" y="1031"/>
      <point x="156" y="1031" type="qcurve" smooth="yes"/>
      <point x="222" y="1031"/>
      <point x="289" y="1093"/>
      <point x="289" y="1145" type="qcurve" smooth="yes"/>
      <point x="289" y="1180"/>
      <point x="279" y="1256"/>
      <point x="267" y="1306" type="qcurve"/>
      <point x="425" y="1306" type="line"/>
      <point x="449" y="1256"/>
      <point x="476" y="1156"/>
      <point x="476" y="1113" type="qcurve" smooth="yes"/>
      <point x="476" y="986"/>
      <point x="323" y="853"/>
      <point x="189" y="853" type="qcurve" smooth="yes"/>
      <point x="151" y="853"/>
      <point x="51" y="870"/>
      <point x="0" y="889" type="qcurve"/>
    </contour>
  </outline>
</glyph>
<glyph name="commaaccentcomb" format="2">
  <advance width="1024"/>
  <unicode hex="0326"/>
  <anchor x="512.0" y="0" name="_bottom"/>
  <anchor x="512.0" y="-700.0" name="bottom"/>
  <outline>
    <contour>
      <point x="364.0" y="-642.0" type="line"/>
      <point x="410.0" y="-616.0"/>
      <point x="494.0" y="-529.0"/>
      <point x="522.0" y="-463.0" type="qcurve"/>
      <point x="445.0" y="-463.0"/>
      <point x="367.0" y="-375.0"/>
      <point x="367.0" y="-313.0" type="qcurve" smooth="yes"/>
      <point x="367.0" y="-253.0"/>
      <point x="453.0" y="-161.0"/>
      <point x="526.0" y="-161.0" type="qcurve" smooth="yes"/>
      <point x="597.0" y="-161.0"/>
      <point x="692.0" y="-244.0"/>
      <point x="692.0" y="-327.0" type="qcurve" smooth="yes"/>
      <point x="692.0" y="-439.0"/>
      <point x="520.0" y="-657.0"/>
      <point x="411.0" y="-700.0" type="qcurve"/>
    </contour>
  </outline>
</glyph>
<glyph name="macronbelowcomb" format="2">
	<unicode hex="0331"/>
	<advance width="1024"/>
	<outline>
		<contour>
			<point x="160" y="-417" type="line"/>
			<point x="160" y="-223" type="line"/>
			<point x="864" y="-223" type="line"/>
			<point x="864" y="-417" type="line"/>
		</contour>
	</outline>
</glyph>
<glyph name="numeralsign" format="2">
	<unicode hex="0374"/>
	<advance width="607"/>
	<outline>
		<contour>
			<point x="216" y="923" type="line"/>
			<point x="99" y="966" type="line"/>
			<point x="212" y="1500" type="line"/>
			<point x="453" y="1450" type="line"/>
			<point x="513" y="1386" type="line"/>
		</contour>
	</outline>
</glyph>
<glyph name="lownumeralsign" format="2">
  <advance width="607"/>
  <unicode hex="0375"/>
  <outline>
    <contour>
      <point x="400" y="-312" type="line"/>
      <point x="159" y="-262" type="line"/>
      <point x="99" y="-198" type="line"/>
      <point x="396" y="265" type="line"/>
      <point x="513" y="222" type="line"/>
    </contour>
  </outline>
</glyph>
<glyph name="tonos" format="2">
<<<<<<< HEAD
  <advance width="927"/>
  <unicode hex="0384"/>
  <guideline x="737" y="1160" angle="0" identifier="0EvbGaTcBw"/>
  <anchor x="386" y="1050" name="_GRKtop"/>
  <outline>
    <contour>
      <point x="444" y="1160" type="line"/>
      <point x="327" y="1203" type="line"/>
      <point x="430" y="1717" type="line"/>
      <point x="671" y="1667" type="line"/>
      <point x="731" y="1603" type="line"/>
=======
  <advance width="888"/>
  <unicode hex="0384"/>
  <guideline x="737" y="1160" angle="0" identifier="0EvbGaTcBw"/>
  <anchor x="392" y="1000" name="_GRKtop"/>
  <outline>
    <contour>
      <point x="411" y="1162" type="line"/>
      <point x="320" y="1195" type="line"/>
      <point x="426" y="1618" type="line"/>
      <point x="585" y="1600" type="line"/>
      <point x="611" y="1555" type="line"/>
>>>>>>> 1159d8af8d212b7f820e97b88bd4e5da0e73c351
    </contour>
  </outline>
</glyph>
<glyph name="dieresistonos" format="2">
<<<<<<< HEAD
  <advance width="1274"/>
  <unicode hex="0385"/>
  <anchor x="605" y="1050" name="_GRKtop"/>
  <outline>
    <contour>
      <point x="278" y="1184" type="qcurve" smooth="yes"/>
      <point x="209" y="1184"/>
      <point x="128" y="1264"/>
      <point x="128" y="1331" type="qcurve" smooth="yes"/>
      <point x="128" y="1402"/>
      <point x="205" y="1477"/>
      <point x="278" y="1477" type="qcurve" smooth="yes"/>
      <point x="347" y="1477"/>
      <point x="428" y="1396"/>
      <point x="428" y="1331" type="qcurve" smooth="yes"/>
      <point x="428" y="1260"/>
      <point x="351" y="1184"/>
    </contour>
    <contour>
      <point x="644" y="1159" type="line"/>
      <point x="521" y="1181" type="line"/>
      <point x="533" y="1706" type="line"/>
      <point x="779" y="1698" type="line"/>
      <point x="849" y="1646" type="line"/>
    </contour>
    <contour>
      <point x="996" y="1184" type="qcurve" smooth="yes"/>
      <point x="927" y="1184"/>
      <point x="846" y="1264"/>
      <point x="846" y="1331" type="qcurve" smooth="yes"/>
      <point x="846" y="1402"/>
      <point x="924" y="1477"/>
      <point x="996" y="1477" type="qcurve" smooth="yes"/>
      <point x="1065" y="1477"/>
      <point x="1146" y="1396"/>
      <point x="1146" y="1331" type="qcurve" smooth="yes"/>
      <point x="1146" y="1260"/>
      <point x="1070" y="1184"/>
=======
  <advance width="1144"/>
  <unicode hex="0385"/>
  <anchor x="554" y="1000" name="_GRKtop"/>
  <outline>
    <contour>
      <point x="282" y="1164" type="qcurve" smooth="yes"/>
      <point x="229" y="1164"/>
      <point x="166" y="1226"/>
      <point x="166" y="1277" type="qcurve" smooth="yes"/>
      <point x="166" y="1332"/>
      <point x="226" y="1391"/>
      <point x="282" y="1391" type="qcurve" smooth="yes"/>
      <point x="335" y="1391"/>
      <point x="398" y="1328"/>
      <point x="398" y="1277" type="qcurve" smooth="yes"/>
      <point x="398" y="1223"/>
      <point x="339" y="1164"/>
    </contour>
    <contour>
      <point x="583" y="1160" type="line"/>
      <point x="487" y="1176" type="line"/>
      <point x="518" y="1611" type="line"/>
      <point x="678" y="1621" type="line"/>
      <point x="712" y="1581" type="line"/>
    </contour>
    <contour>
      <point x="862" y="1164" type="qcurve" smooth="yes"/>
      <point x="809" y="1164"/>
      <point x="746" y="1226"/>
      <point x="746" y="1277" type="qcurve" smooth="yes"/>
      <point x="746" y="1332"/>
      <point x="806" y="1391"/>
      <point x="862" y="1391" type="qcurve" smooth="yes"/>
      <point x="915" y="1391"/>
      <point x="978" y="1328"/>
      <point x="978" y="1277" type="qcurve" smooth="yes"/>
      <point x="978" y="1223"/>
      <point x="919" y="1164"/>
>>>>>>> 1159d8af8d212b7f820e97b88bd4e5da0e73c351
    </contour>
  </outline>
</glyph>
<glyph name="Gamma" format="2">
<<<<<<< HEAD
  <advance width="1322"/>
  <unicode hex="0393"/>
  <outline>
    <contour>
      <point x="42" y="0" type="line"/>
      <point x="42" y="130" type="line"/>
      <point x="220" y="165" type="line"/>
      <point x="222" y="754" type="line"/>
      <point x="220" y="1322" type="line"/>
      <point x="42" y="1356" type="line"/>
      <point x="42" y="1500" type="line"/>
      <point x="1288" y="1500" type="line"/>
      <point x="1288" y="1084" type="line"/>
      <point x="1133" y="1084" type="line"/>
      <point x="1086" y="1342" type="line"/>
      <point x="776" y="1342" type="line"/>
      <point x="721" y="1318" type="line"/>
      <point x="725" y="760" type="line"/>
      <point x="727" y="165" type="line"/>
      <point x="909" y="131" type="line"/>
      <point x="909" y="0" type="line"/>
=======
  <advance width="1136"/>
  <unicode hex="0393"/>
  <outline>
    <contour>
      <point x="82" y="0" type="line"/>
      <point x="82" y="100" type="line"/>
      <point x="290" y="137" type="line"/>
      <point x="292" y="760" type="line"/>
      <point x="290" y="1352" type="line"/>
      <point x="82" y="1386" type="line"/>
      <point x="82" y="1500" type="line"/>
      <point x="1086" y="1500" type="line"/>
      <point x="1086" y="1142" type="line"/>
      <point x="976" y="1142" type="line"/>
      <point x="941" y="1382" type="line"/>
      <point x="500" y="1382" type="line"/>
      <point x="470" y="1362" type="line"/>
      <point x="468" y="760" type="line"/>
      <point x="470" y="132" type="line"/>
      <point x="698" y="100" type="line"/>
      <point x="698" y="0" type="line"/>
>>>>>>> 1159d8af8d212b7f820e97b88bd4e5da0e73c351
    </contour>
  </outline>
</glyph>
<glyph name="Delta" format="2">
<<<<<<< HEAD
  <advance width="1646"/>
=======
  <advance width="1506"/>
>>>>>>> 1159d8af8d212b7f820e97b88bd4e5da0e73c351
  <unicode hex="0394"/>
  <outline>
    <contour>
      <point x="135" y="0" type="line"/>
<<<<<<< HEAD
      <point x="135" y="131" type="line"/>
      <point x="333" y="705" type="line"/>
      <point x="589" y="1500" type="line"/>
      <point x="1050" y="1500" type="line"/>
      <point x="1309" y="741" type="line"/>
      <point x="1520" y="131" type="line"/>
      <point x="1520" y="0" type="line"/>
    </contour>
    <contour>
      <point x="332" y="180" type="line"/>
      <point x="622" y="175" type="line"/>
      <point x="968" y="180" type="line"/>
      <point x="808" y="655" type="line"/>
      <point x="638" y="1135" type="line"/>
      <point x="486" y="668" type="line"/>
=======
      <point x="135" y="110" type="line"/>
      <point x="313" y="533" type="line"/>
      <point x="689" y="1508" type="line"/>
      <point x="811" y="1508" type="line"/>
      <point x="1206" y="531" type="line"/>
      <point x="1384" y="110" type="line"/>
      <point x="1384" y="0" type="line"/>
    </contour>
    <contour>
      <point x="293" y="131" type="line"/>
      <point x="737" y="128" type="line"/>
      <point x="1176" y="132" type="line"/>
      <point x="1038" y="489" type="line"/>
      <point x="738" y="1248" type="line"/>
      <point x="433" y="497" type="line"/>
>>>>>>> 1159d8af8d212b7f820e97b88bd4e5da0e73c351
    </contour>
  </outline>
</glyph>
<glyph name="Theta" format="2">
<<<<<<< HEAD
  <advance width="2004"/>
  <unicode hex="0398"/>
  <outline>
    <contour>
      <point x="1007" y="-25" type="qcurve" smooth="yes"/>
      <point x="578" y="-25"/>
      <point x="65" y="402"/>
      <point x="65" y="743" type="qcurve" smooth="yes"/>
      <point x="65" y="1074"/>
      <point x="575" y="1527"/>
      <point x="1002" y="1527" type="qcurve" smooth="yes"/>
      <point x="1430" y="1527"/>
      <point x="1940" y="1103"/>
      <point x="1940" y="758" type="qcurve" smooth="yes"/>
      <point x="1940" y="429"/>
      <point x="1435" y="-25"/>
    </contour>
    <contour>
      <point x="1004" y="131" type="qcurve" smooth="yes"/>
      <point x="1184" y="130"/>
      <point x="1415" y="374"/>
      <point x="1415" y="755" type="qcurve" smooth="yes"/>
      <point x="1415" y="1083"/>
      <point x="1181" y="1369"/>
      <point x="1002" y="1369" type="qcurve" smooth="yes"/>
      <point x="822" y="1369"/>
      <point x="591" y="1126"/>
      <point x="591" y="780" type="qcurve" smooth="yes"/>
      <point x="591" y="405"/>
      <point x="837" y="132"/>
    </contour>
    <contour>
      <point x="703" y="479" type="line"/>
      <point x="703" y="1001" type="line"/>
      <point x="713" y="1001" type="line"/>
      <point x="998" y="832" type="line"/>
      <point x="1008" y="832" type="line"/>
      <point x="1293" y="1001" type="line"/>
      <point x="1303" y="1001" type="line"/>
      <point x="1303" y="479" type="line"/>
      <point x="1293" y="479" type="line"/>
      <point x="1008" y="648" type="line"/>
      <point x="1003" y="648" type="line"/>
      <point x="713" y="479" type="line"/>
=======
  <advance width="1664"/>
  <unicode hex="0398"/>
  <outline>
    <contour>
      <point x="836" y="-31" type="qcurve" smooth="yes"/>
      <point x="507" y="-31"/>
      <point x="80" y="396"/>
      <point x="80" y="737" type="qcurve" smooth="yes"/>
      <point x="80" y="1068"/>
      <point x="495" y="1520"/>
      <point x="832" y="1520" type="qcurve" smooth="yes"/>
      <point x="1169" y="1520"/>
      <point x="1584" y="1097"/>
      <point x="1584" y="752" type="qcurve" smooth="yes"/>
      <point x="1584" y="423"/>
      <point x="1173" y="-31"/>
    </contour>
    <contour>
      <point x="834" y="101" type="qcurve" smooth="yes"/>
      <point x="1107" y="101"/>
      <point x="1393" y="436"/>
      <point x="1393" y="745" type="qcurve" smooth="yes"/>
      <point x="1393" y="1020"/>
      <point x="1087" y="1380"/>
      <point x="834" y="1380" type="qcurve" smooth="yes"/>
      <point x="561" y="1380"/>
      <point x="271" y="1053"/>
      <point x="271" y="771" type="qcurve" smooth="yes"/>
      <point x="271" y="478"/>
      <point x="584" y="101"/>
    </contour>
    <contour>
      <point x="473" y="649" type="line"/>
      <point x="473" y="821" type="line"/>
      <point x="833" y="799" type="line"/>
      <point x="1192" y="821" type="line"/>
      <point x="1192" y="649" type="line"/>
      <point x="833" y="671" type="line"/>
>>>>>>> 1159d8af8d212b7f820e97b88bd4e5da0e73c351
    </contour>
  </outline>
</glyph>
<glyph name="Lambda" format="2">
<<<<<<< HEAD
  <advance width="1597"/>
  <unicode hex="039B"/>
  <outline>
    <contour>
      <point x="10" y="0" type="line"/>
      <point x="10" y="128" type="line"/>
      <point x="162" y="162" type="line"/>
      <point x="331" y="705" type="line"/>
      <point x="566" y="1500" type="line"/>
      <point x="1027" y="1500" type="line"/>
      <point x="1267" y="741" type="line"/>
      <point x="1447" y="162" type="line"/>
      <point x="1587" y="128" type="line"/>
      <point x="1587" y="0" type="line"/>
      <point x="759" y="0" type="line"/>
      <point x="759" y="128" type="line"/>
      <point x="911" y="162" type="line"/>
      <point x="766" y="655" type="line"/>
      <point x="615" y="1115" type="line"/>
      <point x="484" y="668" type="line"/>
      <point x="344" y="162" type="line"/>
      <point x="500" y="128" type="line"/>
      <point x="500" y="0" type="line"/>
=======
  <advance width="1466"/>
  <unicode hex="039B"/>
  <outline>
    <contour>
      <point x="-25" y="0" type="line"/>
      <point x="-25" y="100" type="line"/>
      <point x="163" y="135" type="line"/>
      <point x="325" y="540" type="line"/>
      <point x="669" y="1508" type="line"/>
      <point x="791" y="1508" type="line"/>
      <point x="1138" y="567" type="line"/>
      <point x="1313" y="135" type="line"/>
      <point x="1491" y="100" type="line"/>
      <point x="1491" y="0" type="line"/>
      <point x="937" y="0" type="line"/>
      <point x="937" y="100" type="line"/>
      <point x="1116" y="131" type="line"/>
      <point x="980" y="513" type="line"/>
      <point x="718" y="1237" type="line"/>
      <point x="438" y="503" type="line"/>
      <point x="314" y="130" type="line"/>
      <point x="491" y="100" type="line"/>
      <point x="491" y="0" type="line"/>
>>>>>>> 1159d8af8d212b7f820e97b88bd4e5da0e73c351
    </contour>
  </outline>
</glyph>
<glyph name="Xi" format="2">
<<<<<<< HEAD
  <advance width="1492"/>
  <unicode hex="039E"/>
  <outline>
    <contour>
      <point x="85" y="0" type="line"/>
      <point x="45" y="591" type="line"/>
      <point x="191" y="591" type="line"/>
      <point x="263" y="348" type="line"/>
      <point x="722" y="343" type="line"/>
      <point x="1229" y="348" type="line"/>
      <point x="1301" y="591" type="line"/>
      <point x="1447" y="591" type="line"/>
      <point x="1407" y="0" type="line"/>
    </contour>
    <contour>
      <point x="392" y="498" type="line"/>
      <point x="392" y="983" type="line"/>
      <point x="526" y="983" type="line"/>
      <point x="563" y="832" type="line"/>
      <point x="732" y="817" type="line"/>
      <point x="929" y="832" type="line"/>
      <point x="966" y="983" type="line"/>
      <point x="1100" y="983" type="line"/>
      <point x="1100" y="498" type="line"/>
      <point x="966" y="498" type="line"/>
      <point x="929" y="656" type="line"/>
      <point x="732" y="671" type="line"/>
      <point x="563" y="656" type="line"/>
      <point x="526" y="498" type="line"/>
    </contour>
    <contour>
      <point x="85" y="942" type="line"/>
      <point x="85" y="1501" type="line"/>
      <point x="1407" y="1501" type="line"/>
      <point x="1407" y="942" type="line"/>
      <point x="1260" y="942" type="line"/>
      <point x="1225" y="1155" type="line"/>
      <point x="724" y="1160" type="line"/>
      <point x="267" y="1155" type="line"/>
      <point x="232" y="942" type="line"/>
    </contour>
  </outline>
=======
  <advance width="1445"/>
  <unicode hex="039E"/>
  <outline>
    <contour>
      <point x="138.0" y="0" type="line"/>
      <point x="98.0" y="398" type="line"/>
      <point x="208.0" y="398" type="line"/>
      <point x="284.0" y="148" type="line"/>
      <point x="1161.0" y="148" type="line"/>
      <point x="1237.0" y="398" type="line"/>
      <point x="1347.0" y="398" type="line"/>
      <point x="1307.0" y="0" type="line"/>
    </contour>
    <contour>
      <point x="333.0" y="538" type="line"/>
      <point x="333.0" y="974" type="line"/>
      <point x="433.0" y="974" type="line"/>
      <point x="468.0" y="829" type="line"/>
      <point x="722.0" y="819" type="line"/>
      <point x="977.0" y="829" type="line"/>
      <point x="1012.0" y="974" type="line"/>
      <point x="1112.0" y="974" type="line"/>
      <point x="1112.0" y="538" type="line"/>
      <point x="1012.0" y="538" type="line"/>
      <point x="977.0" y="683" type="line"/>
      <point x="722.0" y="693" type="line"/>
      <point x="468.0" y="683" type="line"/>
      <point x="433.0" y="538" type="line"/>
    </contour>
    <contour>
      <point x="142.0" y="1132" type="line"/>
      <point x="142.0" y="1500" type="line"/>
      <point x="1303.0" y="1500" type="line"/>
      <point x="1303.0" y="1132" type="line"/>
      <point x="1193.0" y="1132" type="line"/>
      <point x="1158.0" y="1342" type="line"/>
      <point x="287.0" y="1342" type="line"/>
      <point x="252.0" y="1132" type="line"/>
    </contour>
  </outline>
>>>>>>> 1159d8af8d212b7f820e97b88bd4e5da0e73c351
</glyph>
<glyph name="Pi" format="2">
<<<<<<< HEAD
  <advance width="1922"/>
  <unicode hex="03A0"/>
  <outline>
    <contour>
      <point x="42" y="0" type="line"/>
      <point x="42" y="130" type="line"/>
      <point x="220" y="165" type="line"/>
      <point x="222" y="754" type="line"/>
      <point x="220" y="1322" type="line"/>
      <point x="42" y="1356" type="line"/>
      <point x="42" y="1500" type="line"/>
      <point x="1880" y="1500" type="line"/>
      <point x="1880" y="1356" type="line"/>
      <point x="1702" y="1322" type="line"/>
      <point x="1700" y="754" type="line"/>
      <point x="1702" y="165" type="line"/>
      <point x="1880" y="130" type="line"/>
      <point x="1880" y="0" type="line"/>
      <point x="1025" y="0" type="line"/>
      <point x="1025" y="130" type="line"/>
      <point x="1201" y="165" type="line"/>
      <point x="1203" y="754" type="line"/>
      <point x="1201" y="1320" type="line"/>
      <point x="951" y="1325" type="line"/>
      <point x="721" y="1320" type="line"/>
      <point x="719" y="754" type="line"/>
      <point x="721" y="165" type="line"/>
      <point x="897" y="130" type="line"/>
      <point x="897" y="0" type="line"/>
=======
  <advance width="1689"/>
  <unicode hex="03A0"/>
  <outline>
    <contour>
      <point x="82" y="0" type="line"/>
      <point x="82" y="100" type="line"/>
      <point x="290" y="135" type="line"/>
      <point x="292" y="754" type="line"/>
      <point x="290" y="1352" type="line"/>
      <point x="82" y="1386" type="line"/>
      <point x="82" y="1500" type="line"/>
      <point x="1607" y="1500" type="line"/>
      <point x="1607" y="1386" type="line"/>
      <point x="1399" y="1352" type="line"/>
      <point x="1397" y="754" type="line"/>
      <point x="1399" y="135" type="line"/>
      <point x="1607" y="100" type="line"/>
      <point x="1607" y="0" type="line"/>
      <point x="1011" y="0" type="line"/>
      <point x="1011" y="100" type="line"/>
      <point x="1219" y="135" type="line"/>
      <point x="1221" y="754" type="line"/>
      <point x="1219" y="1352" type="line"/>
      <point x="468" y="1352" type="line"/>
      <point x="468" y="754" type="line"/>
      <point x="470" y="135" type="line"/>
      <point x="678" y="100" type="line"/>
      <point x="678" y="0" type="line"/>
>>>>>>> 1159d8af8d212b7f820e97b88bd4e5da0e73c351
    </contour>
  </outline>
</glyph>
<glyph name="Sigma" format="2">
<<<<<<< HEAD
  <advance width="1435"/>
  <unicode hex="03A3"/>
  <outline>
    <contour>
      <point x="94" y="0" type="line"/>
      <point x="61" y="93" type="line"/>
      <point x="550" y="696" type="line"/>
      <point x="92" y="1379" type="line"/>
      <point x="92" y="1500" type="line"/>
      <point x="1357" y="1500" type="line"/>
      <point x="1357" y="1084" type="line"/>
      <point x="1202" y="1084" type="line"/>
      <point x="1155" y="1342" type="line"/>
      <point x="713" y="1342" type="line"/>
      <point x="705" y="1327" type="line"/>
      <point x="1000" y="858" type="line"/>
      <point x="1000" y="800" type="line"/>
      <point x="510" y="199" type="line"/>
      <point x="519" y="180" type="line"/>
      <point x="1170" y="180" type="line"/>
      <point x="1246" y="449" type="line"/>
      <point x="1412" y="449" type="line"/>
      <point x="1370" y="0" type="line"/>
=======
  <advance width="1173"/>
  <unicode hex="03A3"/>
  <outline>
    <contour>
      <point x="70" y="0" type="line"/>
      <point x="40" y="92" type="line"/>
      <point x="543" y="719" type="line"/>
      <point x="95" y="1389" type="line"/>
      <point x="95" y="1500" type="line"/>
      <point x="1116" y="1500" type="line"/>
      <point x="1116" y="1058" type="line"/>
      <point x="994" y="1058" type="line"/>
      <point x="958" y="1382" type="line"/>
      <point x="324" y="1382" type="line"/>
      <point x="315" y="1374" type="line"/>
      <point x="723" y="775" type="line"/>
      <point x="723" y="733" type="line"/>
      <point x="238" y="136" type="line"/>
      <point x="246" y="130" type="line"/>
      <point x="967" y="130" type="line"/>
      <point x="1043" y="398" type="line"/>
      <point x="1153" y="398" type="line"/>
      <point x="1106" y="0" type="line"/>
>>>>>>> 1159d8af8d212b7f820e97b88bd4e5da0e73c351
    </contour>
  </outline>
</glyph>
<glyph name="Phi" format="2">
<<<<<<< HEAD
  <advance width="2228"/>
  <unicode hex="03A6"/>
  <outline>
    <contour>
      <point x="691" y="-52" type="line"/>
      <point x="691" y="77" type="line"/>
      <point x="879" y="111" type="line"/>
      <point x="882" y="260" type="line"/>
      <point x="892" y="260" type="line"/>
      <point x="894" y="725" type="line"/>
      <point x="1334" y="725" type="line"/>
      <point x="1336" y="261" type="line"/>
      <point x="1346" y="260" type="line"/>
      <point x="1349" y="111" type="line"/>
      <point x="1537" y="77" type="line"/>
      <point x="1537" y="-52" type="line"/>
    </contour>
    <contour>
      <point x="894" y="725" type="line"/>
      <point x="892" y="1202" type="line"/>
      <point x="882" y="1203" type="line"/>
      <point x="879" y="1357" type="line"/>
      <point x="691" y="1391" type="line"/>
      <point x="691" y="1520" type="line"/>
      <point x="1537" y="1520" type="line"/>
      <point x="1537" y="1391" type="line"/>
      <point x="1349" y="1357" type="line"/>
      <point x="1346" y="1203" type="line"/>
      <point x="1336" y="1203" type="line"/>
      <point x="1334" y="725" type="line"/>
    </contour>
    <contour>
      <point x="948" y="205" type="line"/>
      <point x="480" y="205"/>
      <point x="65" y="473"/>
      <point x="65" y="723" type="qcurve" smooth="yes"/>
      <point x="65" y="979"/>
      <point x="464" y="1251"/>
      <point x="948" y="1260" type="qcurve"/>
      <point x="948" y="1111" type="line"/>
      <point x="768" y="1109"/>
      <point x="603" y="931"/>
      <point x="603" y="730" type="qcurve"/>
      <point x="603" y="556"/>
      <point x="781" y="346"/>
      <point x="948" y="346" type="qcurve"/>
    </contour>
    <contour>
      <point x="1280" y="205" type="qcurve"/>
      <point x="1280" y="344" type="line"/>
      <point x="1460" y="346"/>
      <point x="1625" y="544"/>
      <point x="1625" y="745" type="qcurve"/>
      <point x="1625" y="919"/>
      <point x="1447" y="1109"/>
      <point x="1280" y="1109" type="qcurve"/>
      <point x="1280" y="1260" type="line"/>
      <point x="1748" y="1260"/>
      <point x="2163" y="992"/>
      <point x="2163" y="742" type="qcurve" smooth="yes"/>
      <point x="2163" y="486"/>
      <point x="1764" y="214"/>
    </contour>
  </outline>
=======
  <advance width="1639"/>
  <unicode hex="03A6"/>
  <outline>
    <contour>
      <point x="556" y="-24" type="line"/>
      <point x="556" y="85" type="line"/>
      <point x="734" y="119" type="line"/>
      <point x="737" y="260" type="line"/>
      <point x="747" y="260" type="line"/>
      <point x="749" y="740" type="line"/>
      <point x="889" y="740" type="line"/>
      <point x="891" y="261" type="line"/>
      <point x="901" y="260" type="line"/>
      <point x="904" y="119" type="line"/>
      <point x="1082" y="85" type="line"/>
      <point x="1082" y="-24" type="line"/>
    </contour>
    <contour>
      <point x="749" y="740" type="line"/>
      <point x="747" y="1235" type="line"/>
      <point x="737" y="1236" type="line"/>
      <point x="734" y="1377" type="line"/>
      <point x="556" y="1411" type="line"/>
      <point x="556" y="1520" type="line"/>
      <point x="1082" y="1520" type="line"/>
      <point x="1082" y="1411" type="line"/>
      <point x="904" y="1377" type="line"/>
      <point x="901" y="1236" type="line"/>
      <point x="891" y="1236" type="line"/>
      <point x="889" y="740" type="line"/>
    </contour>
    <contour>
      <point x="788" y="225" type="line"/>
      <point x="397" y="225"/>
      <point x="80" y="496"/>
      <point x="80" y="713" type="qcurve" smooth="yes"/>
      <point x="80" y="969.0"/>
      <point x="434" y="1264.0"/>
      <point x="788" y="1273" type="qcurve"/>
      <point x="788" y="1153" type="line"/>
      <point x="514" y="1151"/>
      <point x="263" y="920"/>
      <point x="263" y="724" type="qcurve" smooth="yes"/>
      <point x="263.0" y="536.0"/>
      <point x="514.0" y="337"/>
      <point x="788" y="337" type="qcurve"/>
    </contour>
    <contour>
      <point x="850" y="225" type="qcurve"/>
      <point x="850" y="337" type="line"/>
      <point x="1125" y="339"/>
      <point x="1376" y="570"/>
      <point x="1376" y="766" type="qcurve" smooth="yes"/>
      <point x="1376.0" y="954.0"/>
      <point x="1125.0" y="1153.0"/>
      <point x="850" y="1153" type="qcurve"/>
      <point x="850" y="1273" type="line"/>
      <point x="1242" y="1273"/>
      <point x="1559" y="1002"/>
      <point x="1559" y="785" type="qcurve" smooth="yes"/>
      <point x="1559.0" y="529.0"/>
      <point x="1205.0" y="234.0"/>
    </contour>
  </outline>
>>>>>>> 1159d8af8d212b7f820e97b88bd4e5da0e73c351
</glyph>
<glyph name="Psi" format="2">
<<<<<<< HEAD
  <advance width="2307"/>
  <unicode hex="03A8"/>
  <outline>
    <contour>
      <point x="735" y="0" type="line"/>
      <point x="735" y="130" type="line"/>
      <point x="923" y="166" type="line"/>
      <point x="924" y="510" type="line"/>
      <point x="929" y="510" type="line"/>
      <point x="929" y="811" type="line"/>
      <point x="923" y="1322" type="line"/>
      <point x="765" y="1356" type="line"/>
      <point x="765" y="1500" type="line"/>
      <point x="1541" y="1500" type="line"/>
      <point x="1541" y="1356" type="line"/>
      <point x="1383" y="1322" type="line"/>
      <point x="1377" y="811" type="line"/>
      <point x="1377" y="510" type="line"/>
      <point x="1382" y="510" type="line"/>
      <point x="1383" y="165" type="line"/>
      <point x="1571" y="130" type="line"/>
      <point x="1571" y="0" type="line"/>
    </contour>
    <contour>
      <point x="1035" y="452" type="line"/>
      <point x="592" y="452"/>
      <point x="257" y="700"/>
      <point x="230" y="960" type="qcurve" smooth="yes"/>
      <point x="203" y="1323" type="line"/>
      <point x="25" y="1357" type="line"/>
      <point x="25" y="1500" type="line"/>
      <point x="638" y="1500" type="line"/>
      <point x="671" y="1477" type="line"/>
      <point x="694" y="960" type="line" smooth="yes"/>
      <point x="704" y="745"/>
      <point x="838" y="597"/>
      <point x="1035" y="597" type="qcurve"/>
    </contour>
    <contour>
      <point x="1272" y="452" type="qcurve"/>
      <point x="1272" y="597" type="line"/>
      <point x="1469" y="597"/>
      <point x="1603" y="745"/>
      <point x="1613" y="960" type="qcurve" smooth="yes"/>
      <point x="1636" y="1477" type="line"/>
      <point x="1669" y="1500" type="line"/>
      <point x="2282" y="1500" type="line"/>
      <point x="2282" y="1357" type="line"/>
      <point x="2104" y="1323" type="line"/>
      <point x="2077" y="960" type="line" smooth="yes"/>
      <point x="2050" y="700"/>
      <point x="1715" y="452"/>
=======
  <advance width="1826"/>
  <unicode hex="03A8"/>
  <outline>
    <contour>
      <point x="604" y="0" type="line"/>
      <point x="604" y="100" type="line"/>
      <point x="822" y="135" type="line"/>
      <point x="824" y="811" type="line"/>
      <point x="822" y="1352" type="line"/>
      <point x="644" y="1386" type="line"/>
      <point x="644" y="1500" type="line"/>
      <point x="1180" y="1500" type="line"/>
      <point x="1180" y="1386" type="line"/>
      <point x="1002" y="1352" type="line"/>
      <point x="1000" y="811" type="line"/>
      <point x="1002" y="136" type="line"/>
      <point x="1220" y="100" type="line"/>
      <point x="1220" y="0" type="line"/>
    </contour>
    <contour>
      <point x="874" y="462" type="line"/>
      <point x="534" y="470"/>
      <point x="287" y="717"/>
      <point x="262" y="1007" type="qcurve" smooth="yes"/>
      <point x="232" y="1352" type="line"/>
      <point x="64" y="1386" type="line"/>
      <point x="64" y="1500" type="line"/>
      <point x="367" y="1500" type="line"/>
      <point x="400" y="1477" type="line"/>
      <point x="440" y="1013" type="line" smooth="yes"/>
      <point x="465" y="724"/>
      <point x="680" y="577"/>
      <point x="874" y="577" type="qcurve"/>
    </contour>
    <contour>
      <point x="950" y="462" type="qcurve"/>
      <point x="950" y="577" type="line"/>
      <point x="1144" y="577"/>
      <point x="1359" y="724"/>
      <point x="1384" y="1013" type="qcurve" smooth="yes"/>
      <point x="1424" y="1477" type="line"/>
      <point x="1457" y="1500" type="line"/>
      <point x="1760" y="1500" type="line"/>
      <point x="1760" y="1386" type="line"/>
      <point x="1592" y="1352" type="line"/>
      <point x="1562" y="1007" type="line" smooth="yes"/>
      <point x="1537" y="717"/>
      <point x="1290" y="470"/>
>>>>>>> 1159d8af8d212b7f820e97b88bd4e5da0e73c351
    </contour>
  </outline>
</glyph>
<glyph name="Omega" format="2">
  <advance width="1866"/>
  <unicode hex="03A9"/>
  <anchor x="136" y="1500" name="GRKtopleft"/>
  <outline>
    <contour>
      <point x="77" y="0" type="line"/>
      <point x="33" y="428" type="line"/>
      <point x="202" y="428" type="line"/>
      <point x="271" y="181" type="line"/>
      <point x="585" y="169" type="line"/>
      <point x="594" y="293" type="line"/>
      <point x="379" y="340"/>
      <point x="106" y="635"/>
      <point x="106" y="892" type="qcurve" smooth="yes"/>
      <point x="106" y="1169.0"/>
      <point x="536" y="1527"/>
      <point x="933" y="1527" type="qcurve" smooth="yes"/>
      <point x="1330" y="1527"/>
      <point x="1760" y="1169"/>
      <point x="1760" y="902" type="qcurve" smooth="yes"/>
      <point x="1760" y="666"/>
      <point x="1487" y="346"/>
      <point x="1292" y="293" type="qcurve"/>
      <point x="1301" y="169" type="line"/>
      <point x="1595" y="181" type="line"/>
      <point x="1664" y="428" type="line"/>
      <point x="1833" y="428" type="line"/>
      <point x="1789" y="0" type="line"/>
      <point x="1039" y="0" type="line"/>
      <point x="1009" y="451" type="line"/>
      <point x="1102" y="466"/>
      <point x="1216" y="679"/>
      <point x="1216" y="914" type="qcurve" smooth="yes"/>
      <point x="1216.0" y="1149.0"/>
      <point x="1076" y="1357"/>
      <point x="933" y="1357" type="qcurve" smooth="yes"/>
      <point x="789" y="1357"/>
      <point x="650" y="1148"/>
      <point x="650" y="914" type="qcurve" smooth="yes"/>
      <point x="650.0" y="679.0"/>
      <point x="774" y="466"/>
      <point x="867" y="451" type="qcurve"/>
      <point x="837" y="0" type="line"/>
    </contour>
  </outline>
</glyph>
<glyph name="alpha" format="2">
<<<<<<< HEAD
  <advance width="1653"/>
  <unicode hex="03B1"/>
  <anchor x="628.0" y="1050" name="GRKtop"/>
  <outline>
    <contour>
      <point x="598" y="-10" type="qcurve" smooth="yes"/>
      <point x="375" y="-10"/>
      <point x="55" y="270"/>
      <point x="55" y="511" type="qcurve" smooth="yes"/>
      <point x="55" y="758"/>
      <point x="389" y="1068"/>
      <point x="635" y="1068" type="qcurve" smooth="yes"/>
      <point x="860" y="1068"/>
      <point x="1090" y="844"/>
      <point x="1152" y="569" type="qcurve"/>
      <point x="1286" y="569" type="line"/>
      <point x="1371" y="277"/>
      <point x="1419" y="165"/>
      <point x="1488" y="165" type="qcurve" smooth="yes"/>
      <point x="1599" y="165" type="line"/>
      <point x="1599" y="30" type="line"/>
      <point x="1251" y="-15" type="line"/>
      <point x="1114" y="-17"/>
      <point x="1017" y="117"/>
      <point x="958" y="415" type="qcurve"/>
      <point x="950" y="415" type="line"/>
      <point x="852" y="796"/>
      <point x="773" y="910"/>
      <point x="718" y="910" type="qcurve" smooth="yes"/>
      <point x="652" y="910"/>
      <point x="574" y="747"/>
      <point x="574" y="533" type="qcurve" smooth="yes"/>
      <point x="574" y="380"/>
      <point x="637" y="172"/>
      <point x="707" y="172" type="qcurve" smooth="yes"/>
      <point x="779" y="172"/>
      <point x="892" y="365"/>
      <point x="979" y="653" type="qcurve"/>
      <point x="999" y="653" type="line"/>
      <point x="1137" y="1032" type="line"/>
      <point x="1523" y="1053" type="line"/>
      <point x="1566" y="1004" type="line"/>
      <point x="1276" y="419" type="line"/>
      <point x="1088" y="419" type="line"/>
      <point x="1028" y="206"/>
      <point x="778" y="-10"/>
    </contour>
  </outline>
=======
  <advance width="1259"/>
  <unicode hex="03B1"/>
  <anchor x="527.0" y="1000" name="GRKtop"/>
  <outline>
    <contour>
      <point x="469" y="-9" type="qcurve" smooth="yes"/>
      <point x="282" y="-9"/>
      <point x="64" y="258"/>
      <point x="64" y="488" type="qcurve" smooth="yes"/>
      <point x="64" y="724"/>
      <point x="303" y="1020"/>
      <point x="508" y="1020" type="qcurve" smooth="yes"/>
      <point x="685" y="1020"/>
      <point x="875" y="763"/>
      <point x="900" y="544" type="qcurve"/>
      <point x="928" y="544" type="line"/>
      <point x="983" y="265"/>
      <point x="1082" y="118"/>
      <point x="1140" y="118" type="qcurve" smooth="yes"/>
      <point x="1214" y="118" type="line"/>
      <point x="1214" y="34" type="line"/>
      <point x="1038" y="-8" type="line"/>
      <point x="951" y="-8"/>
      <point x="871" y="112"/>
      <point x="821" y="397" type="qcurve"/>
      <point x="806" y="397" type="line"/>
      <point x="755" y="677"/>
      <point x="607" y="917"/>
      <point x="495" y="917" type="qcurve" smooth="yes"/>
      <point x="375" y="917"/>
      <point x="248" y="683"/>
      <point x="248" y="509" type="qcurve" smooth="yes"/>
      <point x="248" y="311"/>
      <point x="380" y="117"/>
      <point x="485" y="117" type="qcurve" smooth="yes"/>
      <point x="599" y="117"/>
      <point x="761" y="374"/>
      <point x="818" y="585" type="qcurve"/>
      <point x="851" y="585" type="line"/>
      <point x="989" y="979" type="line"/>
      <point x="1150" y="1000" type="line"/>
      <point x="1185" y="973" type="line"/>
      <point x="920" y="401" type="line"/>
      <point x="880" y="401" type="line"/>
      <point x="807" y="210"/>
      <point x="614" y="-9"/>
    </contour>
  </outline>
>>>>>>> 1159d8af8d212b7f820e97b88bd4e5da0e73c351
</glyph>
<glyph name="beta" format="2">
  <advance width="1234"/>
  <unicode hex="03B2"/>
  <outline>
    <contour>
      <point x="221" y="-480" type="line"/>
      <point x="186" y="-453" type="line"/>
<<<<<<< HEAD
      <point x="193" y="306" type="line"/>
      <point x="195" y="971" type="line"/>
      <point x="195" y="1279"/>
      <point x="455" y="1537"/>
      <point x="654" y="1537" type="qcurve"/>
      <point x="841" y="1537"/>
      <point x="1038" y="1336"/>
      <point x="1038" y="1188" type="qcurve" smooth="yes"/>
      <point x="1038.0" y="1018"/>
      <point x="808" y="775"/>
      <point x="647" y="744" type="qcurve" smooth="yes"/>
      <point x="521" y="720" type="line"/>
      <point x="494" y="755" type="line"/>
      <point x="542" y="913" type="line"/>
      <point x="656" y="899" type="line" smooth="yes"/>
      <point x="937" y="864"/>
      <point x="1166.0" y="648.0"/>
      <point x="1166" y="458" type="qcurve" smooth="yes"/>
      <point x="1166" y="240"/>
      <point x="888" y="-22"/>
      <point x="679" y="-22" type="qcurve"/>
      <point x="552" y="-22"/>
      <point x="359" y="65"/>
      <point x="287" y="177" type="qcurve"/>
      <point x="287" y="270" type="line"/>
      <point x="334" y="270" type="line"/>
      <point x="395" y="174"/>
      <point x="553" y="88"/>
      <point x="666" y="88" type="qcurve" smooth="yes"/>
      <point x="801" y="88"/>
      <point x="980" y="276"/>
      <point x="980" y="432" type="qcurve" smooth="yes"/>
      <point x="980" y="612"/>
      <point x="736" y="788"/>
      <point x="588" y="788" type="qcurve"/>
      <point x="602" y="834" type="line"/>
      <point x="697" y="842"/>
      <point x="882" y="1028"/>
      <point x="882" y="1164" type="qcurve" smooth="yes"/>
      <point x="882" y="1298"/>
      <point x="752" y="1424"/>
      <point x="641" y="1424" type="qcurve" smooth="yes"/>
      <point x="504" y="1424"/>
      <point x="359" y="1236"/>
      <point x="359" y="1017" type="qcurve"/>
      <point x="359" y="132" type="line"/>
      <point x="382" y="-460" type="line"/>
    </contour>
  </outline>
=======
      <point x="193" y="316" type="line"/>
      <point x="195" y="993" type="line" smooth="yes"/>
      <point x="196" y="1272"/>
      <point x="451" y="1537"/>
      <point x="659" y="1537" type="qcurve" smooth="yes"/>
      <point x="832.0" y="1537.0"/>
      <point x="1038" y="1344"/>
      <point x="1038" y="1184" type="qcurve" smooth="yes"/>
      <point x="1038" y="1080"/>
      <point x="947" y="910"/>
      <point x="870" y="856" type="qcurve"/>
      <point x="1011" y="818"/>
      <point x="1166" y="605"/>
      <point x="1166" y="464" type="qcurve" smooth="yes"/>
      <point x="1166" y="243"/>
      <point x="889" y="-22"/>
      <point x="672" y="-22" type="qcurve" smooth="yes"/>
      <point x="568" y="-22"/>
      <point x="404" y="43"/>
      <point x="359" y="88" type="qcurve"/>
      <point x="382" y="-460" type="line"/>
    </contour>
    <contour>
      <point x="660" y="88" type="qcurve" smooth="yes"/>
      <point x="808" y="88"/>
      <point x="980" y="282"/>
      <point x="980" y="436" type="qcurve"/>
      <point x="980" y="577"/>
      <point x="829" y="737"/>
      <point x="727" y="757" type="qcurve"/>
      <point x="521" y="720" type="line"/>
      <point x="494" y="755" type="line"/>
      <point x="542" y="914" type="line"/>
      <point x="727" y="886" type="line"/>
      <point x="785" y="912"/>
      <point x="882" y="1072"/>
      <point x="882" y="1171" type="qcurve" smooth="yes"/>
      <point x="882" y="1296"/>
      <point x="753" y="1424"/>
      <point x="639" y="1424" type="qcurve" smooth="yes"/>
      <point x="505" y="1424"/>
      <point x="359" y="1235"/>
      <point x="359" y="1007" type="qcurve" smooth="yes"/>
      <point x="359" y="240" type="line"/>
      <point x="392" y="177"/>
      <point x="554" y="88"/>
    </contour>
  </outline>
>>>>>>> 1159d8af8d212b7f820e97b88bd4e5da0e73c351
</glyph>
<glyph name="gamma" format="2">
<<<<<<< HEAD
  <advance width="1368"/>
  <unicode hex="03B3"/>
  <guideline x="673" y="-40" angle="0" identifier="g2zcNzszsg"/>
  <outline>
    <contour>
      <point x="502" y="-480" type="line"/>
      <point x="459" y="-431" type="line"/>
      <point x="510" y="70" type="line"/>
      <point x="742" y="70" type="line"/>
      <point x="932" y="599" type="line"/>
      <point x="1065" y="1037" type="line"/>
      <point x="1294" y="1052" type="line"/>
      <point x="1338" y="1003" type="line"/>
      <point x="1129" y="564" type="line"/>
      <point x="852" y="-150" type="line"/>
      <point x="549" y="-152" type="line"/>
      <point x="302" y="460" type="line"/>
      <point x="166" y="779" type="line"/>
      <point x="138" y="832"/>
      <point x="93" y="867"/>
      <point x="41" y="878" type="qcurve" smooth="yes"/>
      <point x="0" y="887" type="line"/>
      <point x="0" y="1020" type="line"/>
      <point x="451" y="1055" type="line"/>
      <point x="528" y="1056"/>
      <point x="618" y="971"/>
      <point x="646" y="887" type="qcurve" smooth="yes"/>
      <point x="740" y="605" type="line"/>
      <point x="864" y="206" type="line"/>
      <point x="894" y="206" type="line"/>
      <point x="956" y="-456" type="line"/>
    </contour>
  </outline>
=======
  <advance width="1017"/>
  <unicode hex="03B3"/>
  <guideline x="639" y="31" angle="0" identifier="g2zcNzszsg"/>
  <outline>
    <contour>
      <point x="485" y="-10" type="line"/>
      <point x="293" y="481" type="line"/>
      <point x="172" y="808" type="line" smooth="yes"/>
      <point x="162" y="835"/>
      <point x="140" y="854"/>
      <point x="109" y="860" type="qcurve" smooth="yes"/>
      <point x="10" y="880" type="line"/>
      <point x="10" y="974" type="line"/>
      <point x="199" y="1008" type="line"/>
      <point x="244" y="1008"/>
      <point x="296" y="961"/>
      <point x="321" y="881" type="qcurve" smooth="yes"/>
      <point x="440" y="535" type="line"/>
      <point x="552" y="199" type="line"/>
      <point x="669" y="538" type="line"/>
      <point x="801" y="980" type="line"/>
      <point x="962" y="1000" type="line"/>
      <point x="997" y="973" type="line"/>
      <point x="801" y="497" type="line"/>
      <point x="603" y="-10" type="line"/>
    </contour>
    <contour>
      <point x="483" y="-480" type="line"/>
      <point x="448" y="-453" type="line"/>
      <point x="472" y="102" type="line"/>
      <point x="617" y="102" type="line"/>
      <point x="629" y="-459" type="line"/>
    </contour>
  </outline>
>>>>>>> 1159d8af8d212b7f820e97b88bd4e5da0e73c351
</glyph>
<glyph name="delta" format="2">
  <advance width="1424"/>
  <unicode hex="03B4"/>
  <outline>
    <contour>
      <point x="718" y="-27" type="qcurve" smooth="yes"/>
      <point x="399" y="-27"/>
      <point x="54" y="222"/>
      <point x="54" y="432" type="qcurve" smooth="yes"/>
      <point x="54" y="655"/>
      <point x="383" y="924"/>
      <point x="654" y="948" type="qcurve"/>
      <point x="920" y="950" type="line"/>
      <point x="920" y="865" type="line"/>
      <point x="730" y="815"/>
      <point x="530" y="563"/>
      <point x="530" y="389" type="qcurve" smooth="yes"/>
      <point x="530" y="259"/>
      <point x="623" y="115"/>
      <point x="712" y="115" type="qcurve" smooth="yes"/>
      <point x="802" y="115"/>
      <point x="905" y="283"/>
      <point x="905" y="415" type="qcurve"/>
      <point x="905" y="520"/>
      <point x="786" y="738"/>
      <point x="575" y="852" type="qcurve" smooth="yes"/>
      <point x="407" y="943"/>
      <point x="234" y="1112"/>
      <point x="234" y="1225" type="qcurve" smooth="yes"/>
      <point x="234" y="1382"/>
      <point x="525" y="1553"/>
      <point x="796" y="1553" type="qcurve" smooth="yes"/>
      <point x="982" y="1553"/>
      <point x="1219" y="1491"/>
      <point x="1266" y="1452" type="qcurve"/>
      <point x="1246" y="1102" type="line"/>
      <point x="1097" y="1102" type="line"/>
      <point x="1057" y="1278" type="line"/>
      <point x="1040" y="1304"/>
      <point x="934" y="1346"/>
      <point x="851" y="1346" type="qcurve" smooth="yes"/>
      <point x="764" y="1346"/>
      <point x="671" y="1296"/>
      <point x="671" y="1245" type="qcurve" smooth="yes"/>
      <point x="671" y="1202"/>
      <point x="748" y="1135"/>
      <point x="891" y="1056" type="qcurve" smooth="yes"/>
      <point x="1158" y="909"/>
      <point x="1372" y="637"/>
      <point x="1372" y="456" type="qcurve" smooth="yes"/>
      <point x="1372" y="237"/>
      <point x="979" y="-27"/>
    </contour>
  </outline>
</glyph>
<glyph name="epsilon" format="2">
  <advance width="1042"/>
  <unicode hex="03B5"/>
  <anchor x="570.0" y="1000" name="GRKtop"/>
  <outline>
    <contour>
      <point x="523" y="-22" type="qcurve" smooth="yes"/>
      <point x="321" y="-22"/>
      <point x="84" y="125"/>
      <point x="84" y="260" type="qcurve" smooth="yes"/>
<<<<<<< HEAD
      <point x="84.0" y="404"/>
      <point x="445" y="575"/>
      <point x="629" y="596" type="qcurve" smooth="yes"/>
      <point x="672" y="601" type="line"/>
      <point x="699" y="565" type="line"/>
      <point x="635" y="406" type="line"/>
      <point x="600" y="413" type="line" smooth="yes"/>
      <point x="399" y="453"/>
      <point x="121.0" y="602.0"/>
=======
      <point x="84" y="348"/>
      <point x="215" y="475"/>
      <point x="323" y="500" type="qcurve"/>
      <point x="323" y="501" type="line"/>
      <point x="228" y="528"/>
      <point x="121" y="646"/>
>>>>>>> 1159d8af8d212b7f820e97b88bd4e5da0e73c351
      <point x="121" y="725" type="qcurve" smooth="yes"/>
      <point x="121" y="854"/>
      <point x="341" y="1022"/>
      <point x="550" y="1022" type="qcurve" smooth="yes"/>
      <point x="676" y="1022"/>
      <point x="864" y="964"/>
      <point x="899" y="928" type="qcurve"/>
      <point x="899" y="654" type="line"/>
      <point x="802" y="654" type="line"/>
      <point x="744" y="862" type="line"/>
<<<<<<< HEAD
      <point x="717" y="883"/>
      <point x="603" y="908"/>
=======
      <point x="717.0" y="883.0"/>
      <point x="603.0" y="908.0"/>
>>>>>>> 1159d8af8d212b7f820e97b88bd4e5da0e73c351
      <point x="545" y="908" type="qcurve" smooth="yes"/>
      <point x="423" y="908"/>
      <point x="297" y="816"/>
      <point x="297" y="729" type="qcurve" smooth="yes"/>
<<<<<<< HEAD
      <point x="297" y="662"/>
      <point x="412" y="566"/>
      <point x="607" y="503" type="qcurve"/>
      <point x="593" y="468" type="line"/>
      <point x="420" y="452"/>
=======
      <point x="297.0" y="678.0"/>
      <point x="369.0" y="591.0"/>
      <point x="459" y="565" type="qcurve"/>
      <point x="672" y="601" type="line"/>
      <point x="699" y="565" type="line"/>
      <point x="635" y="406" type="line"/>
      <point x="456" y="439" type="line"/>
      <point x="391" y="433"/>
>>>>>>> 1159d8af8d212b7f820e97b88bd4e5da0e73c351
      <point x="273" y="354"/>
      <point x="273" y="278" type="qcurve" smooth="yes"/>
      <point x="273" y="194"/>
      <point x="421" y="107"/>
      <point x="531" y="107" type="qcurve" smooth="yes"/>
<<<<<<< HEAD
      <point x="668.0" y="107.0"/>
      <point x="870.0" y="191.0"/>
=======
      <point x="684" y="107"/>
      <point x="888" y="212"/>
>>>>>>> 1159d8af8d212b7f820e97b88bd4e5da0e73c351
      <point x="947" y="268" type="qcurve"/>
      <point x="998" y="208" type="line"/>
      <point x="915" y="90"/>
      <point x="661" y="-22"/>
    </contour>
  </outline>
<<<<<<< HEAD
=======
>>>>>>> 1159d8af8d212b7f820e97b88bd4e5da0e73c351
</glyph>
<glyph name="zeta" format="2">
  <advance width="1091"/>
  <unicode hex="03B6"/>
  <guideline x="952" y="-383" angle="90" identifier="TTSwHwLrF1"/>
  <outline>
    <contour>
      <point x="857" y="-313" type="line"/>
      <point x="816" y="-127" type="line"/>
      <point x="804" y="-72"/>
      <point x="776" y="-30"/>
      <point x="695" y="-23" type="qcurve" smooth="yes"/>
      <point x="661" y="-20" type="line" smooth="yes"/>
      <point x="344" y="8"/>
      <point x="59" y="224"/>
      <point x="59" y="396" type="qcurve"/>
      <point x="59" y="551.0"/>
      <point x="320" y="952"/>
      <point x="650" y="1252" type="qcurve"/>
      <point x="658" y="1232" type="line"/>
      <point x="119" y="1228" type="line"/>
      <point x="92" y="1262" type="line"/>
      <point x="136" y="1534" type="line"/>
      <point x="1070" y="1502" type="line"/>
      <point x="1070" y="1346" type="line"/>
      <point x="829.0" y="1058.0"/>
      <point x="563.0" y="645.0"/>
      <point x="562" y="488" type="qcurve" smooth="yes"/>
      <point x="561" y="400"/>
      <point x="678" y="300"/>
      <point x="816" y="284" type="qcurve" smooth="yes"/>
      <point x="858" y="279" type="line" smooth="yes"/>
      <point x="953" y="268"/>
      <point x="1062" y="176"/>
      <point x="1066" y="84" type="qcurve"/>
      <point x="990" y="-313" type="line"/>
    </contour>
  </outline>
</glyph>
<glyph name="eta" format="2">
<<<<<<< HEAD
  <advance width="1577"/>
  <unicode hex="03B7"/>
  <anchor x="704.0" y="1050" name="GRKtop"/>
  <outline>
    <contour>
      <point x="1002" y="-480" type="line"/>
      <point x="959" y="-431" type="line"/>
      <point x="970" y="510" type="line"/>
      <point x="970" y="664" type="line" smooth="yes"/>
      <point x="970" y="740"/>
      <point x="906" y="814"/>
      <point x="842" y="814" type="qcurve" smooth="yes"/>
      <point x="792" y="814"/>
      <point x="691" y="755"/>
      <point x="647" y="702" type="qcurve"/>
      <point x="644" y="510" type="line"/>
      <point x="657" y="24" type="line"/>
      <point x="203" y="0" type="line"/>
      <point x="160" y="49" type="line"/>
      <point x="166" y="682" type="line" smooth="yes"/>
      <point x="167" y="750"/>
      <point x="156" y="858"/>
      <point x="90" y="872" type="qcurve" smooth="yes"/>
      <point x="21" y="887" type="line"/>
      <point x="21" y="1020" type="line"/>
      <point x="458" y="1055" type="line"/>
      <point x="522" y="1055"/>
      <point x="617" y="988"/>
      <point x="633" y="876" type="qcurve"/>
      <point x="635" y="876" type="line"/>
      <point x="705" y="950"/>
      <point x="938" y="1072"/>
      <point x="1074" y="1072" type="qcurve" smooth="yes"/>
      <point x="1262" y="1072"/>
      <point x="1452" y="879"/>
      <point x="1452" y="706" type="qcurve" smooth="yes"/>
      <point x="1452" y="561" type="line"/>
      <point x="1456" y="-456" type="line"/>
    </contour>
  </outline>
=======
  <advance width="1221"/>
  <unicode hex="03B7"/>
  <anchor x="555.0" y="1000" name="GRKtop"/>
  <outline>
    <contour>
      <point x="904" y="-480" type="line"/>
      <point x="869" y="-453" type="line"/>
      <point x="891" y="338" type="line"/>
      <point x="891" y="612" type="line" smooth="yes"/>
      <point x="891" y="746"/>
      <point x="784" y="877"/>
      <point x="682" y="877" type="qcurve"/>
      <point x="588" y="877"/>
      <point x="440" y="775"/>
      <point x="403" y="705" type="qcurve"/>
      <point x="401" y="551" type="line"/>
      <point x="411" y="20" type="line"/>
      <point x="265" y="0" type="line"/>
      <point x="230" y="27" type="line"/>
      <point x="240" y="723" type="line"/>
      <point x="238" y="810"/>
      <point x="202" y="858"/>
      <point x="160" y="867" type="qcurve" smooth="yes"/>
      <point x="96" y="880" type="line"/>
      <point x="96" y="974" type="line"/>
      <point x="278" y="1008" type="line"/>
      <point x="331" y="1008"/>
      <point x="391" y="917"/>
      <point x="404" y="835" type="qcurve"/>
      <point x="405" y="835" type="line"/>
      <point x="442" y="911"/>
      <point x="624" y="1021"/>
      <point x="741" y="1021" type="qcurve" smooth="yes"/>
      <point x="895" y="1021"/>
      <point x="1054" y="842"/>
      <point x="1058" y="652" type="qcurve" smooth="yes"/>
      <point x="1055" y="340" type="line"/>
      <point x="1065" y="-460" type="line"/>
    </contour>
  </outline>
>>>>>>> 1159d8af8d212b7f820e97b88bd4e5da0e73c351
</glyph>
<glyph name="theta" format="2">
  <advance width="1568"/>
  <unicode hex="03B8"/>
  <outline>
    <contour>
      <point x="770" y="-26" type="qcurve" smooth="yes"/>
      <point x="370" y="-19"/>
      <point x="73" y="372"/>
      <point x="72" y="744" type="qcurve" smooth="yes"/>
      <point x="71" y="1158"/>
      <point x="411" y="1567"/>
      <point x="799" y="1567" type="qcurve" smooth="yes"/>
      <point x="1153" y="1567"/>
      <point x="1495" y="1213"/>
      <point x="1496" y="781" type="qcurve" smooth="yes"/>
      <point x="1497" y="380"/>
      <point x="1123" y="-32"/>
    </contour>
    <contour>
      <point x="780" y="115" type="qcurve" smooth="yes"/>
      <point x="889" y="115"/>
      <point x="998" y="338"/>
      <point x="998" y="834" type="qcurve" smooth="yes"/>
      <point x="998" y="1185"/>
      <point x="900" y="1406"/>
      <point x="787" y="1406" type="qcurve" smooth="yes"/>
      <point x="669" y="1406"/>
      <point x="570" y="1176"/>
      <point x="570" y="835" type="qcurve" smooth="yes"/>
      <point x="570" y="309"/>
      <point x="664" y="115"/>
    </contour>
    <contour>
      <point x="415" y="521" type="line"/>
      <point x="415" y="1002" type="line"/>
      <point x="782" y="848" type="line"/>
      <point x="1148" y="1002" type="line"/>
      <point x="1148" y="521" type="line"/>
      <point x="782" y="675" type="line"/>
    </contour>
  </outline>
</glyph>
<glyph name="iota" format="2">
<<<<<<< HEAD
  <advance width="863"/>
  <unicode hex="03B9"/>
  <anchor x="391.0" y="1050" name="GRKtop"/>
  <outline>
    <contour>
      <point x="371" y="-15" type="line"/>
      <point x="240" y="-15"/>
      <point x="130" y="88"/>
      <point x="131" y="186" type="qcurve"/>
      <point x="133" y="470" type="line"/>
      <point x="121" y="1027" type="line"/>
      <point x="596" y="1052" type="line"/>
      <point x="639" y="1003" type="line"/>
      <point x="621" y="470" type="line"/>
      <point x="622" y="268" type="line" smooth="yes"/>
      <point x="622" y="215"/>
      <point x="670" y="165"/>
      <point x="717" y="165" type="qcurve" smooth="yes"/>
      <point x="829" y="165" type="line"/>
      <point x="829" y="30" type="line"/>
    </contour>
  </outline>
=======
  <advance width="627"/>
  <unicode hex="03B9"/>
  <anchor x="287.0" y="1000" name="GRKtop"/>
  <outline>
    <contour>
      <point x="379" y="-8" type="line"/>
      <point x="283" y="-8"/>
      <point x="183" y="87"/>
      <point x="184" y="206" type="qcurve" smooth="yes"/>
      <point x="186" y="470" type="line"/>
      <point x="176" y="979" type="line"/>
      <point x="337" y="1000" type="line"/>
      <point x="372" y="973" type="line"/>
      <point x="352" y="470" type="line"/>
      <point x="352" y="216" type="line" smooth="yes"/>
      <point x="352" y="151"/>
      <point x="414" y="109"/>
      <point x="468" y="109" type="qcurve" smooth="yes"/>
      <point x="572" y="109" type="line"/>
      <point x="572" y="32" type="line"/>
    </contour>
  </outline>
>>>>>>> 1159d8af8d212b7f820e97b88bd4e5da0e73c351
</glyph>
<glyph name="kappa" format="2">
  <advance width="1511"/>
  <unicode hex="03BA"/>
  <outline>
    <contour>
      <point x="128" y="0" type="line"/>
      <point x="133" y="453" type="line"/>
      <point x="121" y="1027" type="line"/>
      <point x="596" y="1052" type="line"/>
      <point x="639" y="1003" type="line"/>
      <point x="621" y="402" type="line"/>
      <point x="623" y="0" type="line"/>
    </contour>
    <contour>
      <point x="508" y="78" type="line"/>
      <point x="508" y="368" type="line"/>
      <point x="969" y="903" type="line" smooth="yes"/>
      <point x="1026" y="970"/>
      <point x="1197" y="1070"/>
      <point x="1355" y="1073" type="qcurve"/>
      <point x="1390" y="1046" type="line"/>
      <point x="1357" y="736" type="line"/>
      <point x="1220" y="736"/>
      <point x="1144" y="708"/>
      <point x="1094" y="660" type="qcurve" smooth="yes"/>
    </contour>
    <contour>
      <point x="1086" y="-15" type="line"/>
      <point x="985" y="-15"/>
      <point x="881" y="40"/>
      <point x="861" y="90" type="qcurve" smooth="yes"/>
      <point x="710" y="463" type="line"/>
      <point x="987" y="727" type="line"/>
      <point x="1247" y="286" type="line" smooth="yes"/>
      <point x="1294" y="206"/>
      <point x="1342.0" y="165.0"/>
      <point x="1388" y="165" type="qcurve" smooth="yes"/>
      <point x="1491" y="165" type="line"/>
      <point x="1491" y="30" type="line"/>
    </contour>
  </outline>
</glyph>
<glyph name="lambda" format="2">
  <advance width="1385"/>
  <unicode hex="03BB"/>
  <outline>
    <contour>
      <point x="968" y="-15" type="line"/>
      <point x="898" y="-18"/>
      <point x="778" y="28"/>
      <point x="752" y="111" type="qcurve" smooth="yes"/>
      <point x="512" y="868" type="line"/>
      <point x="376" y="1222" type="line" smooth="yes"/>
      <point x="350" y="1290"/>
      <point x="275" y="1336"/>
      <point x="214" y="1349" type="qcurve" smooth="yes"/>
      <point x="112" y="1370" type="line"/>
      <point x="112" y="1503" type="line"/>
      <point x="549" y="1538" type="line"/>
      <point x="665" y="1538"/>
      <point x="796" y="1423"/>
      <point x="827" y="1332" type="qcurve" smooth="yes"/>
      <point x="970" y="909" type="line"/>
      <point x="1197" y="259" type="line" smooth="yes"/>
      <point x="1218" y="200"/>
      <point x="1263" y="165"/>
      <point x="1314" y="165" type="qcurve" smooth="yes"/>
      <point x="1385" y="165" type="line"/>
      <point x="1385" y="30" type="line"/>
    </contour>
    <contour>
      <point x="44" y="0" type="line"/>
      <point x="0" y="49" type="line"/>
      <point x="218" y="508" type="line"/>
      <point x="486" y="1100" type="line"/>
      <point x="626" y="936" type="line"/>
      <point x="525" y="451" type="line"/>
      <point x="448" y="24" type="line"/>
    </contour>
  </outline>
</glyph>
<glyph name="mu" format="2">
	<unicode hex="03BC"/>
	<advance width="1619"/>
	<outline>
		<contour>
			<point x="143" y="-480" type="line"/>
			<point x="100" y="-432" type="line"/>
			<point x="110" y="425" type="line"/>
			<point x="98" y="1027" type="line"/>
			<point x="582" y="1062" type="line"/>
			<point x="617" y="1035" type="line"/>
			<point x="598" y="372" type="line"/>
			<point x="598" y="296"/>
			<point x="663" y="229"/>
			<point x="739" y="229" type="qcurve" smooth="yes"/>
			<point x="774" y="229"/>
			<point x="853" y="271"/>
			<point x="896" y="325" type="qcurve"/>
			<point x="896" y="388" type="line"/>
			<point x="884" y="1027" type="line"/>
			<point x="1368" y="1062" type="line"/>
			<point x="1403" y="1035" type="line"/>
			<point x="1385" y="388" type="line"/>
			<point x="1387" y="241"/>
			<point x="1439" y="165"/>
			<point x="1507" y="165" type="qcurve"/>
			<point x="1565" y="165" type="line"/>
			<point x="1565" y="30" type="line"/>
			<point x="1206" y="-15" type="line"/>
			<point x="1092" y="-9"/>
			<point x="961" y="84"/>
			<point x="933" y="167" type="qcurve"/>
			<point x="932" y="167" type="line"/>
			<point x="896" y="77"/>
			<point x="791" y="-23"/>
			<point x="721" y="-23" type="qcurve" smooth="yes"/>
			<point x="662" y="-23"/>
			<point x="594" y="24"/>
			<point x="571" y="51" type="qcurve"/>
			<point x="597" y="-456" type="line"/>
		</contour>
	</outline>
	<guideline x="740" y="-24" angle="0" identifier="WFxpe6Nshc"/>
</glyph>
<glyph name="nu" format="2">
  <advance width="1368"/>
  <unicode hex="03BD"/>
  <outline>
    <contour>
      <point x="486" y="0" type="line"/>
      <point x="288" y="485" type="line"/>
      <point x="171" y="764" type="line" smooth="yes"/>
      <point x="151" y="812"/>
      <point x="112" y="860"/>
      <point x="60" y="874" type="qcurve" smooth="yes"/>
      <point x="0" y="887" type="line"/>
      <point x="0" y="1020" type="line"/>
      <point x="448" y="1055" type="line"/>
      <point x="511" y="1058"/>
      <point x="608" y="990"/>
      <point x="651" y="874" type="qcurve" smooth="yes"/>
      <point x="755" y="595" type="line"/>
      <point x="874" y="317" type="line"/>
      <point x="853" y="316" type="line"/>
      <point x="933" y="563" type="line"/>
      <point x="1065" y="1037" type="line"/>
      <point x="1294" y="1052" type="line"/>
      <point x="1338" y="1003" type="line"/>
      <point x="1138" y="564" type="line"/>
      <point x="911" y="0" type="line"/>
    </contour>
  </outline>
</glyph>
<glyph name="xi" format="2">
  <advance width="1100"/>
  <unicode hex="03BE"/>
  <outline>
    <contour>
      <point x="857" y="-313" type="line"/>
      <point x="811" y="-105" type="line" smooth="yes"/>
      <point x="799" y="-53"/>
      <point x="758" y="-28"/>
      <point x="678" y="-21" type="qcurve" smooth="yes"/>
      <point x="644" y="-18" type="line" smooth="yes"/>
      <point x="312" y="11"/>
      <point x="53" y="221"/>
      <point x="53" y="388" type="qcurve"/>
      <point x="53" y="639"/>
      <point x="593" y="892"/>
      <point x="879" y="945" type="qcurve" smooth="yes"/>
      <point x="993" y="966" type="line"/>
      <point x="1036" y="917" type="line"/>
      <point x="950" y="602" type="line"/>
      <point x="912" y="607" type="line" smooth="yes"/>
      <point x="516" y="659"/>
      <point x="130" y="816"/>
      <point x="130" y="993" type="qcurve" smooth="yes"/>
      <point x="130" y="1091"/>
      <point x="260" y="1252"/>
      <point x="395" y="1289" type="qcurve"/>
      <point x="395" y="1251" type="line"/>
      <point x="79" y="1248" type="line"/>
      <point x="52" y="1282" type="line"/>
      <point x="98" y="1534" type="line"/>
      <point x="1079" y="1514" type="line"/>
      <point x="1079" y="1278" type="line"/>
      <point x="770" y="1253"/>
      <point x="561" y="1139"/>
      <point x="561" y="1013" type="qcurve"/>
      <point x="561.0" y="925.0"/>
      <point x="674.0" y="810.0"/>
      <point x="844" y="775" type="qcurve"/>
      <point x="830" y="732" type="line"/>
      <point x="642" y="711"/>
      <point x="525" y="596"/>
      <point x="525" y="502" type="qcurve" smooth="yes"/>
      <point x="525.0" y="398.0"/>
      <point x="650" y="302"/>
      <point x="807" y="285" type="qcurve" smooth="yes"/>
      <point x="861" y="279" type="line" smooth="yes"/>
      <point x="960" y="268"/>
      <point x="1063" y="171"/>
      <point x="1066" y="84" type="qcurve"/>
      <point x="990" y="-313" type="line"/>
    </contour>
  </outline>
</glyph>
<glyph name="rho" format="2">
  <advance width="1128"/>
  <unicode hex="03C1"/>
  <outline>
    <contour>
      <point x="141" y="-480" type="line"/>
      <point x="106" y="-453" type="line"/>
<<<<<<< HEAD
      <point x="116" y="110" type="line"/>
      <point x="116" y="423" type="line" smooth="yes"/>
      <point x="116" y="730"/>
      <point x="367" y="1022"/>
      <point x="586" y="1022" type="qcurve" smooth="yes"/>
      <point x="823" y="1022"/>
      <point x="1060" y="738"/>
      <point x="1060" y="514" type="qcurve" smooth="yes"/>
      <point x="1060" y="290"/>
      <point x="816" y="-11"/>
      <point x="592" y="-12" type="qcurve" smooth="yes"/>
      <point x="461" y="-13"/>
      <point x="263.0" y="91.0"/>
      <point x="206" y="180" type="qcurve"/>
      <point x="206" y="273" type="line"/>
      <point x="253" y="273" type="line"/>
      <point x="316.0" y="176.0"/>
      <point x="485.0" y="91"/>
      <point x="585" y="91" type="qcurve" smooth="yes"/>
      <point x="710.0" y="91.0"/>
=======
      <point x="116" y="106" type="line"/>
      <point x="116.0" y="423" type="line" smooth="yes"/>
      <point x="116" y="730"/>
      <point x="367.0" y="1022.0"/>
      <point x="586" y="1022" type="qcurve" smooth="yes"/>
      <point x="823.0" y="1022.0"/>
      <point x="1060" y="738"/>
      <point x="1060" y="514" type="qcurve" smooth="yes"/>
      <point x="1060" y="290"/>
      <point x="816" y="-10"/>
      <point x="612" y="-12" type="qcurve" smooth="yes"/>
      <point x="502" y="-13"/>
      <point x="326" y="46"/>
      <point x="282" y="90" type="qcurve"/>
      <point x="302" y="-460" type="line"/>
    </contour>
    <contour>
      <point x="585" y="91" type="qcurve" smooth="yes"/>
      <point x="710" y="91"/>
>>>>>>> 1159d8af8d212b7f820e97b88bd4e5da0e73c351
      <point x="876" y="301"/>
      <point x="876" y="506" type="qcurve" smooth="yes"/>
      <point x="876" y="699"/>
      <point x="712" y="894"/>
      <point x="569" y="894" type="qcurve" smooth="yes"/>
<<<<<<< HEAD
      <point x="419" y="894"/>
      <point x="277" y="674"/>
      <point x="280" y="411" type="qcurve"/>
      <point x="282" y="110" type="line"/>
      <point x="302" y="-460" type="line"/>
    </contour>
  </outline>
=======
      <point x="419.0" y="894.0"/>
      <point x="277" y="674"/>
      <point x="280" y="411" type="qcurve" smooth="yes"/>
      <point x="282" y="239" type="line"/>
      <point x="318" y="174"/>
      <point x="489" y="91"/>
    </contour>
  </outline>
>>>>>>> 1159d8af8d212b7f820e97b88bd4e5da0e73c351
</glyph>
<glyph name="finalsigma" format="2">
  <advance width="1193"/>
  <unicode hex="03C2"/>
  <outline>
    <contour>
      <point x="877" y="-313" type="line"/>
      <point x="836" y="-127" type="line"/>
      <point x="824" y="-72"/>
      <point x="796" y="-30"/>
      <point x="715" y="-23" type="qcurve" smooth="yes"/>
      <point x="681" y="-20" type="line" smooth="yes"/>
      <point x="354" y="9"/>
      <point x="52" y="296.0"/>
      <point x="52" y="532" type="qcurve"/>
      <point x="52" y="769"/>
      <point x="371" y="1078.0"/>
      <point x="665" y="1078" type="qcurve" smooth="yes"/>
      <point x="834" y="1078"/>
      <point x="1075" y="984"/>
      <point x="1122" y="939" type="qcurve"/>
      <point x="1122" y="664" type="line"/>
      <point x="973" y="664" type="line"/>
      <point x="950" y="862" type="line"/>
      <point x="925" y="878"/>
      <point x="843" y="909"/>
      <point x="790" y="909" type="qcurve" smooth="yes"/>
      <point x="677" y="909"/>
      <point x="552" y="749"/>
      <point x="552" y="603" type="qcurve"/>
      <point x="552.0" y="441.0"/>
      <point x="713" y="299"/>
      <point x="836" y="284" type="qcurve" smooth="yes"/>
      <point x="892" y="277" type="line" smooth="yes"/>
      <point x="977" y="266"/>
      <point x="1082" y="176"/>
      <point x="1086" y="84" type="qcurve"/>
      <point x="1010" y="-313" type="line"/>
    </contour>
  </outline>
</glyph>
<glyph name="sigma" format="2">
  <advance width="1620"/>
  <unicode hex="03C3"/>
  <outline>
    <contour>
      <point x="765" y="-53" type="qcurve" smooth="yes"/>
      <point x="406" y="-53"/>
      <point x="72" y="217"/>
      <point x="72" y="454" type="qcurve" smooth="yes"/>
      <point x="72" y="692.0"/>
      <point x="423" y="1013"/>
      <point x="820" y="1034" type="qcurve" smooth="yes"/>
      <point x="1525" y="1073" type="line"/>
      <point x="1560" y="1046" type="line"/>
      <point x="1527" y="736" type="line"/>
      <point x="843" y="762" type="line" smooth="yes"/>
      <point x="670" y="768"/>
      <point x="537" y="590"/>
      <point x="538" y="432" type="qcurve" smooth="yes"/>
      <point x="539" y="252"/>
      <point x="660" y="85"/>
      <point x="751" y="85" type="qcurve" smooth="yes"/>
      <point x="849" y="85"/>
      <point x="976" y="266"/>
      <point x="976" y="451" type="qcurve" smooth="yes"/>
      <point x="976.0" y="588"/>
      <point x="890" y="758"/>
      <point x="826" y="807" type="qcurve"/>
      <point x="826" y="884" type="line"/>
      <point x="932" y="884" type="line"/>
      <point x="1164" y="829"/>
      <point x="1405.0" y="584"/>
      <point x="1405" y="440" type="qcurve"/>
      <point x="1405" y="200"/>
      <point x="1037" y="-53"/>
    </contour>
  </outline>
</glyph>
<glyph name="tau" format="2">
  <advance width="1164"/>
  <unicode hex="03C4"/>
  <outline>
    <contour>
      <point x="544" y="-15" type="line"/>
      <point x="413" y="-15"/>
      <point x="298" y="91"/>
      <point x="306" y="187" type="qcurve" smooth="yes"/>
      <point x="353" y="992" type="line"/>
      <point x="766" y="992" type="line"/>
      <point x="783" y="259" type="line" smooth="yes"/>
      <point x="784" y="211"/>
      <point x="834" y="165"/>
      <point x="878" y="165" type="qcurve" smooth="yes"/>
      <point x="1010" y="165" type="line"/>
      <point x="1010" y="30" type="line"/>
    </contour>
    <contour>
      <point x="1077" y="736" type="line"/>
      <point x="22" y="763" type="line"/>
      <point x="22" y="897" type="line"/>
      <point x="188" y="1025" type="line"/>
      <point x="1075" y="1073" type="line"/>
      <point x="1110" y="1046" type="line"/>
    </contour>
  </outline>
</glyph>
<glyph name="upsilon" format="2">
  <advance width="1100"/>
  <unicode hex="03C5"/>
  <anchor x="558.0" y="1000" name="GRKtop"/>
  <outline>
    <contour>
      <point x="567" y="-21" type="qcurve" smooth="yes"/>
      <point x="388.0" y="-21"/>
      <point x="179" y="189"/>
      <point x="187" y="389" type="qcurve" smooth="yes"/>
      <point x="200" y="680" type="line" smooth="yes"/>
      <point x="204" y="779"/>
      <point x="173" y="856"/>
      <point x="118" y="867" type="qcurve"/>
      <point x="56" y="880" type="line"/>
      <point x="56" y="974" type="line"/>
      <point x="239" y="1008" type="line"/>
      <point x="297" y="1008"/>
      <point x="370" y="898"/>
      <point x="367" y="791" type="qcurve" smooth="yes"/>
      <point x="355" y="387" type="line" smooth="yes"/>
      <point x="351" y="247"/>
      <point x="470" y="113"/>
      <point x="583" y="113" type="qcurve" smooth="yes"/>
      <point x="720.0" y="113.0"/>
      <point x="850" y="308"/>
      <point x="850" y="498.0" type="qcurve" smooth="yes"/>
      <point x="850.0" y="621.0"/>
      <point x="779" y="846.0"/>
      <point x="692" y="964.0" type="qcurve"/>
<<<<<<< HEAD
      <point x="815" y="1029.0" type="line"/>
=======
      <point x="825" y="1019.0" type="line"/>
>>>>>>> 1159d8af8d212b7f820e97b88bd4e5da0e73c351
      <point x="928" y="910.0"/>
      <point x="1026" y="660"/>
      <point x="1026" y="520.0" type="qcurve" smooth="yes"/>
      <point x="1026.0" y="280.0"/>
      <point x="786" y="-21.0"/>
    </contour>
  </outline>
<<<<<<< HEAD
=======
>>>>>>> 1159d8af8d212b7f820e97b88bd4e5da0e73c351
</glyph>
<glyph name="phi" format="2">
  <advance width="1947"/>
  <unicode hex="03C6"/>
  <outline>
    <contour>
      <point x="880" y="-23" type="line"/>
      <point x="445" y="-14"/>
      <point x="52" y="286"/>
      <point x="52" y="525" type="qcurve" smooth="yes"/>
      <point x="52" y="779"/>
      <point x="472" y="1073"/>
      <point x="880" y="1073" type="qcurve"/>
      <point x="880" y="937" type="line"/>
      <point x="717" y="937"/>
      <point x="547" y="745"/>
      <point x="547" y="541" type="qcurve" smooth="yes"/>
      <point x="547" y="319"/>
      <point x="700" y="129"/>
      <point x="880" y="119" type="qcurve"/>
    </contour>
    <contour>
      <point x="1066" y="-23" type="qcurve"/>
      <point x="1066" y="119" type="line"/>
      <point x="1246" y="129"/>
      <point x="1400" y="319"/>
      <point x="1400" y="541" type="qcurve" smooth="yes"/>
      <point x="1400" y="745"/>
      <point x="1208" y="937"/>
      <point x="1066" y="937" type="qcurve"/>
      <point x="1066" y="1073" type="line"/>
      <point x="1453" y="1073"/>
      <point x="1895" y="779"/>
      <point x="1895" y="525" type="qcurve" smooth="yes"/>
      <point x="1895" y="286"/>
      <point x="1501" y="-14"/>
    </contour>
    <contour>
      <point x="788" y="-480" type="line"/>
      <point x="745" y="-431" type="line"/>
      <point x="776" y="50" type="line"/>
      <point x="796" y="50" type="line"/>
      <point x="836" y="970" type="line"/>
      <point x="831" y="970" type="line"/>
      <point x="834" y="1407" type="line"/>
      <point x="1070" y="1423" type="line"/>
      <point x="1113" y="1374" type="line"/>
      <point x="1116" y="970" type="line"/>
      <point x="1111" y="970" type="line"/>
      <point x="1150" y="50" type="line"/>
      <point x="1170" y="50" type="line"/>
      <point x="1202" y="-456" type="line"/>
    </contour>
  </outline>
</glyph>
<glyph name="chi" format="2">
  <advance width="1307"/>
  <unicode hex="03C7"/>
  <outline>
    <contour>
      <point x="993" y="-494" type="line"/>
      <point x="919" y="-494"/>
      <point x="822" y="-463"/>
      <point x="792" y="-412" type="qcurve"/>
      <point x="530" y="125" type="line"/>
      <point x="187" y="742" type="line" smooth="yes"/>
      <point x="154" y="802"/>
      <point x="75" y="865"/>
      <point x="29" y="873" type="qcurve" smooth="yes"/>
      <point x="-35" y="887" type="line"/>
      <point x="-40" y="1020" type="line"/>
      <point x="396" y="1055" type="line"/>
      <point x="447" y="1055"/>
      <point x="527" y="1020"/>
      <point x="549" y="975" type="qcurve" smooth="yes"/>
      <point x="802" y="453" type="line"/>
      <point x="1202" y="-261" type="line" smooth="yes"/>
      <point x="1226" y="-305"/>
      <point x="1276" y="-314"/>
      <point x="1310" y="-314" type="qcurve" smooth="yes"/>
      <point x="1378" y="-314" type="line"/>
      <point x="1382" y="-449" type="line"/>
    </contour>
    <contour>
      <point x="52" y="-480" type="line"/>
      <point x="7" y="-431" type="line"/>
      <point x="296" y="-34" type="line"/>
      <point x="573" y="376" type="line"/>
      <point x="686" y="179" type="line"/>
      <point x="545" y="-180" type="line"/>
      <point x="445" y="-456" type="line"/>
    </contour>
    <contour>
      <point x="784" y="179" type="line"/>
      <point x="671" y="375" type="line"/>
      <point x="821" y="753" type="line"/>
      <point x="922" y="1029" type="line"/>
      <point x="1315" y="1053" type="line"/>
      <point x="1360" y="1004" type="line"/>
      <point x="1071" y="607" type="line"/>
    </contour>
  </outline>
</glyph>
<glyph name="psi" format="2">
  <advance width="2047"/>
  <unicode hex="03C8"/>
  <guideline x="570" y="312" angle="0" identifier="1yOufYf93q"/>
  <outline>
    <contour>
      <point x="928" y="-23" type="line"/>
      <point x="494" y="-23"/>
      <point x="148" y="221"/>
      <point x="146" y="518" type="qcurve" smooth="yes"/>
      <point x="145" y="680" type="line" smooth="yes"/>
      <point x="144" y="779"/>
      <point x="126" y="858"/>
      <point x="71" y="872" type="qcurve" smooth="yes"/>
      <point x="1" y="887" type="line"/>
      <point x="1" y="1020" type="line"/>
      <point x="436" y="1055" type="line"/>
      <point x="552" y="1055"/>
      <point x="634" y="910"/>
      <point x="632" y="811" type="qcurve" smooth="yes"/>
      <point x="627" y="427" type="line" smooth="yes"/>
      <point x="625" y="286"/>
      <point x="769" y="162"/>
      <point x="928" y="162" type="qcurve"/>
    </contour>
    <contour>
      <point x="1223" y="-22" type="qcurve"/>
      <point x="1221" y="163" type="line"/>
      <point x="1333" y="174"/>
      <point x="1513" y="337"/>
      <point x="1513" y="528" type="qcurve" smooth="yes"/>
      <point x="1513" y="637"/>
      <point x="1454" y="824"/>
      <point x="1379" y="956" type="qcurve"/>
      <point x="1690" y="1086" type="line"/>
      <point x="1808" y="1004"/>
      <point x="1987" y="749"/>
      <point x="1987" y="570" type="qcurve" smooth="yes"/>
      <point x="1987" y="327"/>
      <point x="1540" y="-12"/>
    </contour>
    <contour>
      <point x="808" y="-480" type="line"/>
      <point x="765" y="-431" type="line"/>
      <point x="796" y="50" type="line"/>
      <point x="816" y="50" type="line"/>
      <point x="854" y="1407" type="line"/>
      <point x="1190" y="1423" type="line"/>
      <point x="1233" y="1374" type="line"/>
      <point x="1270" y="50" type="line"/>
      <point x="1290" y="50" type="line"/>
      <point x="1322" y="-456" type="line"/>
    </contour>
  </outline>
</glyph>
<glyph name="omega" format="2">
<<<<<<< HEAD
  <advance width="1468"/>
  <unicode hex="03C9"/>
  <anchor x="754" y="1000" name="GRKtop"/>
  <outline>
    <contour>
      <point x="459" y="-22" type="qcurve" smooth="yes"/>
      <point x="258" y="-22"/>
      <point x="74" y="242"/>
      <point x="74" y="423" type="qcurve" smooth="yes"/>
      <point x="74" y="617"/>
      <point x="252" y="938"/>
=======
  <advance width="1448"/>
  <unicode hex="03C9"/>
  <anchor x="744" y="1000" name="GRKtop"/>
  <outline>
    <contour>
      <point x="454" y="-22" type="qcurve" smooth="yes"/>
      <point x="253" y="-22"/>
      <point x="74" y="242"/>
      <point x="74" y="423" type="qcurve" smooth="yes"/>
      <point x="74" y="617"/>
      <point x="245" y="936"/>
>>>>>>> 1159d8af8d212b7f820e97b88bd4e5da0e73c351
      <point x="410" y="1007" type="qcurve"/>
      <point x="478" y="967" type="line"/>
      <point x="348" y="854"/>
      <point x="252" y="586"/>
      <point x="252" y="421" type="qcurve" smooth="yes"/>
      <point x="252" y="272"/>
<<<<<<< HEAD
      <point x="360" y="108"/>
      <point x="456" y="108" type="qcurve" smooth="yes"/>
      <point x="554" y="108"/>
      <point x="668" y="294"/>
      <point x="672" y="447" type="qcurve"/>
      <point x="802" y="447" type="line"/>
      <point x="809" y="285"/>
      <point x="911" y="108"/>
      <point x="1001" y="108" type="qcurve" smooth="yes"/>
      <point x="1102" y="108"/>
      <point x="1216" y="306"/>
      <point x="1216" y="471" type="qcurve" smooth="yes"/>
      <point x="1216" y="616"/>
      <point x="1121" y="861"/>
      <point x="1014" y="964" type="qcurve"/>
      <point x="1137" y="1029" type="line"/>
      <point x="1274" y="918"/>
      <point x="1394" y="631"/>
      <point x="1394" y="493" type="qcurve" smooth="yes"/>
      <point x="1394" y="278"/>
      <point x="1173" y="-22"/>
      <point x="1006" y="-22" type="qcurve" smooth="yes"/>
      <point x="808" y="-22"/>
      <point x="636" y="376"/>
      <point x="636" y="650" type="qcurve" smooth="yes"/>
      <point x="636" y="707" type="line"/>
      <point x="797" y="727" type="line"/>
      <point x="797" y="727"/>
      <point x="832" y="700"/>
      <point x="832" y="700" type="qcurve"/>
      <point x="832" y="650" type="line" smooth="yes"/>
      <point x="832" y="362"/>
      <point x="647" y="-22"/>
    </contour>
  </outline>
=======
      <point x="355" y="108"/>
      <point x="451" y="108" type="qcurve" smooth="yes"/>
      <point x="532" y="108"/>
      <point x="627" y="228"/>
      <point x="645" y="357" type="qcurve"/>
      <point x="626" y="707" type="line"/>
      <point x="787" y="727" type="line"/>
      <point x="822" y="700" type="line"/>
      <point x="808" y="357" type="line"/>
      <point x="821" y="220"/>
      <point x="914" y="108"/>
      <point x="986" y="108" type="qcurve" smooth="yes"/>
      <point x="1087" y="108"/>
      <point x="1196" y="306"/>
      <point x="1196" y="471" type="qcurve" smooth="yes"/>
      <point x="1196" y="616"/>
      <point x="1099" y="861"/>
      <point x="992" y="964" type="qcurve"/>
      <point x="1127" y="1019" type="line"/>
      <point x="1254" y="918"/>
      <point x="1374" y="631"/>
      <point x="1374" y="493" type="qcurve" smooth="yes"/>
      <point x="1374" y="278"/>
      <point x="1158" y="-22"/>
      <point x="991" y="-22" type="qcurve" smooth="yes"/>
      <point x="891" y="-22"/>
      <point x="761" y="74"/>
      <point x="727" y="165" type="qcurve"/>
      <point x="691" y="71"/>
      <point x="542" y="-22"/>
    </contour>
  </outline>
>>>>>>> 1159d8af8d212b7f820e97b88bd4e5da0e73c351
</glyph>
<glyph name="Kaisymbol" format="2">
<<<<<<< HEAD
  <advance width="1783"/>
  <unicode hex="03CF"/>
  <outline>
    <contour>
      <point x="42" y="0" type="line"/>
      <point x="42" y="130" type="line"/>
      <point x="220" y="165" type="line"/>
      <point x="222" y="754" type="line"/>
      <point x="220" y="1322" type="line"/>
      <point x="42" y="1356" type="line"/>
      <point x="42" y="1500" type="line"/>
      <point x="897" y="1500" type="line"/>
      <point x="897" y="1356" type="line"/>
      <point x="721" y="1322" type="line"/>
      <point x="719" y="754" type="line"/>
      <point x="721" y="165" type="line"/>
      <point x="877" y="130" type="line"/>
      <point x="877" y="0" type="line"/>
    </contour>
    <contour>
      <point x="459" y="227" type="line"/>
      <point x="459" y="449" type="line"/>
      <point x="1274" y="1324" type="line"/>
      <point x="1146" y="1357" type="line"/>
      <point x="1146" y="1500" type="line"/>
      <point x="1669" y="1500" type="line"/>
      <point x="1669" y="1357" type="line"/>
      <point x="1490" y="1324" type="line"/>
      <point x="1057" y="864" type="line"/>
      <point x="1016" y="820" type="line"/>
    </contour>
    <contour>
      <point x="816" y="729" type="line"/>
      <point x="1162" y="1081" type="line"/>
      <point x="1675" y="165" type="line"/>
      <point x="1784" y="130" type="line"/>
      <point x="1784" y="0" type="line"/>
      <point x="1216" y="0" type="line"/>
    </contour>
    <contour>
      <point x="922" y="-520" type="qcurve" smooth="yes"/>
      <point x="640" y="-520"/>
      <point x="265" y="-353"/>
      <point x="160" y="-248" type="qcurve"/>
      <point x="228" y="-137" type="line"/>
      <point x="298" y="-194"/>
      <point x="610" y="-329"/>
      <point x="777" y="-329" type="qcurve"/>
      <point x="1040" y="-329"/>
      <point x="1355" y="-119"/>
      <point x="1374" y="0" type="qcurve"/>
      <point x="1784" y="0" type="line"/>
      <point x="1753" y="-199"/>
      <point x="1255" y="-520"/>
=======
  <advance width="1440"/>
  <unicode hex="03CF"/>
  <outline>
    <contour>
      <point x="82" y="0" type="line"/>
      <point x="82" y="100" type="line"/>
      <point x="290" y="135" type="line"/>
      <point x="292" y="754" type="line"/>
      <point x="290" y="1352" type="line"/>
      <point x="82" y="1386" type="line"/>
      <point x="82" y="1500" type="line"/>
      <point x="668" y="1500" type="line"/>
      <point x="668" y="1386" type="line"/>
      <point x="470" y="1352" type="line"/>
      <point x="468" y="754" type="line"/>
      <point x="470" y="135" type="line"/>
      <point x="678" y="100" type="line"/>
      <point x="678" y="0" type="line"/>
    </contour>
    <contour>
      <point x="380" y="461" type="line"/>
      <point x="380" y="623" type="line"/>
      <point x="1041" y="1338" type="line"/>
      <point x="894" y="1386" type="line"/>
      <point x="894" y="1500" type="line"/>
      <point x="1390" y="1500" type="line"/>
      <point x="1390" y="1386" type="line"/>
      <point x="1212" y="1338" type="line"/>
      <point x="746" y="847" type="line"/>
      <point x="710" y="809" type="line"/>
    </contour>
    <contour>
      <point x="1208" y="0" type="line"/>
      <point x="630" y="801" type="line"/>
      <point x="744" y="921" type="line"/>
      <point x="1319" y="135" type="line"/>
      <point x="1476" y="100" type="line"/>
      <point x="1476" y="0" type="line"/>
    </contour>
    <contour>
      <point x="762" y="-500" type="qcurve"/>
      <point x="628" y="-500"/>
      <point x="322" y="-417"/>
      <point x="246" y="-348" type="qcurve"/>
      <point x="288" y="-267" type="line"/>
      <point x="364.0" y="-307.0"/>
      <point x="615.0" y="-379"/>
      <point x="757" y="-379" type="qcurve" smooth="yes"/>
      <point x="1005" y="-379"/>
      <point x="1342" y="-145"/>
      <point x="1364" y="0" type="qcurve"/>
      <point x="1476" y="0" type="line"/>
      <point x="1446" y="-197"/>
      <point x="1045" y="-500"/>
>>>>>>> 1159d8af8d212b7f820e97b88bd4e5da0e73c351
    </contour>
  </outline>
</glyph>
<glyph name="kaisymbol" format="2">
  <advance width="1119"/>
  <unicode hex="03D7"/>
  <outline>
    <contour>
<<<<<<< HEAD
      <point x="510" y="-510" type="qcurve" smooth="yes"/>
      <point x="339.0" y="-510.0"/>
=======
      <point x="510" y="-508" type="qcurve" smooth="yes"/>
      <point x="339.0" y="-508.0"/>
>>>>>>> 1159d8af8d212b7f820e97b88bd4e5da0e73c351
      <point x="52" y="-351"/>
      <point x="-34" y="-194" type="qcurve"/>
      <point x="47" y="-134" type="line"/>
      <point x="106" y="-220"/>
<<<<<<< HEAD
      <point x="338" y="-363"/>
      <point x="520" y="-363" type="qcurve" smooth="yes"/>
      <point x="748" y="-363"/>
      <point x="968" y="-81"/>
      <point x="970" y="118" type="qcurve"/>
      <point x="1103" y="118" type="line"/>
      <point x="1121" y="-129"/>
      <point x="794" y="-510"/>
    </contour>
    <component base="kappa"/>
  </outline>
=======
      <point x="338" y="-361"/>
      <point x="520" y="-361" type="qcurve" smooth="yes"/>
      <point x="748" y="-361"/>
      <point x="968" y="-81"/>
      <point x="970" y="118" type="qcurve"/>
      <point x="1103" y="119" type="line"/>
      <point x="1121" y="-128"/>
      <point x="794" y="-508"/>
    </contour>
    <component base="kappa"/>
  </outline>
>>>>>>> 1159d8af8d212b7f820e97b88bd4e5da0e73c351
</glyph>
<glyph name="Dje" format="2">
	<unicode hex="0402"/>
	<advance width="1966"/>
	<outline>
		<contour>
			<point x="1165" y="685" type="qcurve" smooth="yes"/>
			<point x="1056" y="685"/>
			<point x="842" y="638"/>
			<point x="722" y="596" type="qcurve"/>
			<point x="722" y="763" type="line"/>
			<point x="843" y="803"/>
			<point x="1115" y="865"/>
			<point x="1304" y="865" type="qcurve" smooth="yes"/>
			<point x="1581" y="865"/>
			<point x="1911" y="646"/>
			<point x="1911" y="434" type="qcurve" smooth="yes"/>
			<point x="1911" y="216"/>
			<point x="1590" y="0"/>
			<point x="1257" y="0" type="qcurve"/>
			<point x="1257" y="130" type="line"/>
			<point x="1335" y="144"/>
			<point x="1414" y="300"/>
			<point x="1414" y="427" type="qcurve" smooth="yes"/>
			<point x="1414" y="547"/>
			<point x="1299" y="685"/>
		</contour>
		<contour>
			<point x="40" y="1056" type="line"/>
			<point x="40" y="1500" type="line"/>
			<point x="1445" y="1500" type="line"/>
			<point x="1445" y="1076" type="line"/>
			<point x="1299" y="1076" type="line"/>
			<point x="1259" y="1342" type="line"/>
			<point x="986" y="1342" type="line"/>
			<point x="972" y="1326" type="line"/>
			<point x="971" y="754" type="line"/>
			<point x="972" y="165" type="line"/>
			<point x="1140" y="130" type="line"/>
			<point x="1140" y="0" type="line"/>
			<point x="283" y="0" type="line"/>
			<point x="283" y="130" type="line"/>
			<point x="471" y="165" type="line"/>
			<point x="473" y="754" type="line"/>
			<point x="471" y="1326" type="line"/>
			<point x="457" y="1342" type="line"/>
			<point x="225" y="1342" type="line"/>
			<point x="185" y="1056" type="line"/>
		</contour>
	</outline>
	<guideline x="568" y="625" angle="90" identifier="YDADns81zF"/>
</glyph>
<glyph name="Ieukran" format="2">
	<unicode hex="0404"/>
	<advance width="1524"/>
	<outline>
		<contour>
			<point x="65" y="698" type="qcurve" smooth="yes"/>
			<point x="65" y="1076"/>
			<point x="515" y="1520"/>
			<point x="890" y="1520" type="qcurve" smooth="yes"/>
			<point x="1031" y="1520"/>
			<point x="1201" y="1470"/>
			<point x="1256" y="1430" type="qcurve"/>
			<point x="1286" y="1500" type="line"/>
			<point x="1439" y="1500" type="line"/>
			<point x="1439" y="1004" type="line"/>
			<point x="1267" y="1004" type="line"/>
			<point x="1239" y="1142" type="line" smooth="yes"/>
			<point x="1217" y="1249"/>
			<point x="1094" y="1357"/>
			<point x="962" y="1357" type="qcurve" smooth="yes"/>
			<point x="792" y="1357"/>
			<point x="607" y="1085"/>
			<point x="607" y="740" type="qcurve" smooth="yes"/>
			<point x="607" y="400"/>
			<point x="811" y="163"/>
			<point x="995" y="163" type="qcurve" smooth="yes"/>
			<point x="1125" y="163"/>
			<point x="1334" y="284"/>
			<point x="1379" y="360" type="qcurve"/>
			<point x="1492" y="251" type="line"/>
			<point x="1412" y="119"/>
			<point x="1107" y="-27"/>
			<point x="853" y="-27" type="qcurve" smooth="yes"/>
			<point x="519" y="-27"/>
			<point x="65" y="376"/>
		</contour>
		<contour>
			<point x="336" y="698" type="line"/>
			<point x="336" y="834" type="line"/>
			<point x="994" y="844" type="line"/>
			<point x="1021" y="985" type="line"/>
			<point x="1165" y="985" type="line"/>
			<point x="1165" y="540" type="line"/>
			<point x="1021" y="540" type="line"/>
			<point x="994" y="688" type="line"/>
		</contour>
	</outline>
	<guideline x="211" y="787" angle="90" identifier="mFTeE97JTj"/>
</glyph>
<glyph name="Lje" format="2">
	<unicode hex="0409"/>
	<advance width="2381"/>
	<outline>
		<contour>
			<point x="799" y="0" type="line"/>
			<point x="799" y="130" type="line"/>
			<point x="977" y="165" type="line"/>
			<point x="979" y="754" type="line"/>
			<point x="977" y="1318" type="line"/>
			<point x="923" y="1342" type="line"/>
			<point x="659" y="1342" type="line"/>
			<point x="605" y="1318" type="line"/>
			<point x="579" y="827" type="line" smooth="yes"/>
			<point x="553" y="332"/>
			<point x="372" y="-25"/>
			<point x="163" y="-25" type="qcurve" smooth="yes"/>
			<point x="120" y="-25"/>
			<point x="69" y="-13"/>
			<point x="40" y="0" type="qcurve"/>
			<point x="40" y="318" type="line"/>
			<point x="64" y="310"/>
			<point x="101" y="305"/>
			<point x="125" y="305" type="qcurve" smooth="yes"/>
			<point x="245" y="305"/>
			<point x="354" y="541"/>
			<point x="370" y="842" type="qcurve" smooth="yes"/>
			<point x="396" y="1322" type="line"/>
			<point x="218" y="1356" type="line"/>
			<point x="218" y="1500" type="line"/>
			<point x="1674" y="1500" type="line"/>
			<point x="1674" y="1356" type="line"/>
			<point x="1478" y="1322" type="line"/>
			<point x="1473" y="921" type="line"/>
			<point x="1481" y="911" type="line"/>
			<point x="1729" y="911" type="line" smooth="yes"/>
			<point x="2050" y="911"/>
			<point x="2335" y="683"/>
			<point x="2335" y="452" type="qcurve" smooth="yes"/>
			<point x="2335" y="257"/>
			<point x="2101" y="0"/>
			<point x="1831" y="0" type="qcurve" smooth="yes"/>
		</contour>
		<contour>
			<point x="1473" y="750" type="line"/>
			<point x="1475" y="170" type="line"/>
			<point x="1499" y="150" type="line"/>
			<point x="1585" y="150" type="line" smooth="yes"/>
			<point x="1716" y="150"/>
			<point x="1835" y="287"/>
			<point x="1835" y="459" type="qcurve" smooth="yes"/>
			<point x="1835" y="621"/>
			<point x="1718" y="761"/>
			<point x="1619" y="761" type="qcurve" smooth="yes"/>
			<point x="1483" y="761" type="line"/>
		</contour>
	</outline>
</glyph>
<glyph name="Nje" format="2">
	<unicode hex="040A"/>
	<advance width="2615"/>
	<outline>
		<contour>
			<point x="42" y="0" type="line"/>
			<point x="42" y="130" type="line"/>
			<point x="220" y="165" type="line"/>
			<point x="222" y="754" type="line"/>
			<point x="220" y="1322" type="line"/>
			<point x="42" y="1356" type="line"/>
			<point x="42" y="1500" type="line"/>
			<point x="896" y="1500" type="line"/>
			<point x="896" y="1356" type="line"/>
			<point x="720" y="1322" type="line"/>
			<point x="718" y="754" type="line"/>
			<point x="720" y="165" type="line"/>
			<point x="896" y="130" type="line"/>
			<point x="896" y="0" type="line"/>
		</contour>
		<contour>
			<point x="470" y="726" type="line"/>
			<point x="470" y="888" type="line"/>
			<point x="972" y="880" type="line"/>
			<point x="1462" y="888" type="line"/>
			<point x="1462" y="726" type="line"/>
			<point x="972" y="726" type="line"/>
		</contour>
		<contour>
			<point x="2069" y="449" type="qcurve" smooth="yes"/>
			<point x="2069" y="604.3869863014"/>
			<point x="1952" y="738"/>
			<point x="1853" y="738" type="qcurve" smooth="yes"/>
			<point x="1716" y="738" type="line"/>
			<point x="1707" y="727" type="line"/>
			<point x="1709" y="170" type="line"/>
			<point x="1733" y="150" type="line"/>
			<point x="1819" y="150" type="line" smooth="yes"/>
			<point x="1950" y="150"/>
			<point x="2069" y="283"/>
		</contour>
		<contour>
			<point x="1034" y="0" type="line"/>
			<point x="1034" y="130" type="line"/>
			<point x="1212" y="165" type="line"/>
			<point x="1214" y="754" type="line"/>
			<point x="1212" y="1322" type="line"/>
			<point x="1034" y="1356" type="line"/>
			<point x="1034" y="1500" type="line"/>
			<point x="1908" y="1500" type="line"/>
			<point x="1908" y="1356" type="line"/>
			<point x="1712" y="1322" type="line"/>
			<point x="1707" y="898" type="line"/>
			<point x="1715" y="888" type="line"/>
			<point x="1963" y="888" type="line" smooth="yes"/>
			<point x="2284" y="888"/>
			<point x="2569" y="666.4899777283"/>
			<point x="2569" y="442" type="qcurve" smooth="yes"/>
			<point x="2569" y="251"/>
			<point x="2325.7142857143" y="0"/>
			<point x="2045" y="0" type="qcurve" smooth="yes"/>
		</contour>
	</outline>
</glyph>
<glyph name="De" format="2">
	<unicode hex="0414"/>
	<advance width="1755"/>
	<outline>
		<contour>
			<point x="1541" y="-338" type="line"/>
			<point x="1442" y="0" type="line"/>
			<point x="296" y="0" type="line"/>
			<point x="197" y="-338" type="line"/>
			<point x="25" y="-338" type="line"/>
			<point x="35" y="158" type="line"/>
			<point x="1703" y="158" type="line"/>
			<point x="1713" y="-338" type="line"/>
		</contour>
		<contour>
			<point x="353" y="842" type="qcurve" smooth="yes"/>
			<point x="379" y="1322" type="line"/>
			<point x="201" y="1356" type="line"/>
			<point x="201" y="1500" type="line"/>
			<point x="1703" y="1500" type="line"/>
			<point x="1703" y="1356" type="line"/>
			<point x="1525" y="1322" type="line"/>
			<point x="1523" y="754" type="line"/>
			<point x="1525" y="0" type="line"/>
			<point x="1024" y="0" type="line"/>
			<point x="1026" y="754" type="line"/>
			<point x="1024" y="1318" type="line"/>
			<point x="970" y="1342" type="line"/>
			<point x="642" y="1342" type="line"/>
			<point x="588" y="1318" type="line"/>
			<point x="562" y="827" type="line" smooth="yes"/>
			<point x="549" y="579"/>
			<point x="474" y="219"/>
			<point x="408" y="107" type="qcurve"/>
			<point x="173" y="107" type="line"/>
			<point x="253" y="219"/>
			<point x="339" y="591"/>
		</contour>
	</outline>
</glyph>
<glyph name="Ze" format="2">
	<unicode hex="0417"/>
	<advance width="1428"/>
	<outline>
		<contour>
			<point x="600" y="143" type="qcurve" smooth="yes"/>
			<point x="740" y="143"/>
			<point x="860" y="292"/>
			<point x="860" y="445" type="qcurve" smooth="yes"/>
			<point x="860" y="584"/>
			<point x="742" y="719"/>
			<point x="600" y="716" type="qcurve" smooth="yes"/>
			<point x="426" y="712" type="line"/>
			<point x="426" y="861" type="line"/>
			<point x="583" y="858" type="line" smooth="yes"/>
			<point x="711" y="856"/>
			<point x="803" y="995"/>
			<point x="803" y="1122" type="qcurve" smooth="yes"/>
			<point x="803" y="1242"/>
			<point x="715" y="1357"/>
			<point x="615" y="1357" type="qcurve" smooth="yes"/>
			<point x="496" y="1357"/>
			<point x="376" y="1245"/>
			<point x="348" y="1142" type="qcurve" smooth="yes"/>
			<point x="320" y="1004" type="line"/>
			<point x="148" y="1004" type="line"/>
			<point x="148" y="1500" type="line"/>
			<point x="301" y="1500" type="line"/>
			<point x="331" y="1430" type="line"/>
			<point x="386" y="1470"/>
			<point x="586" y="1520"/>
			<point x="728" y="1520" type="qcurve" smooth="yes"/>
			<point x="1015" y="1520"/>
			<point x="1302" y="1324"/>
			<point x="1302" y="1162" type="qcurve" smooth="yes"/>
			<point x="1302" y="1027"/>
			<point x="1114.4629755617" y="857.7812659881"/>
			<point x="935" y="824" type="qcurve"/>
			<point x="935" y="817" type="line"/>
			<point x="1142" y="791"/>
			<point x="1360" y="610"/>
			<point x="1360" y="419" type="qcurve" smooth="yes"/>
			<point x="1360" y="232"/>
			<point x="1044" y="-25"/>
			<point x="682" y="-25" type="qcurve" smooth="yes"/>
			<point x="542" y="-25"/>
			<point x="354" y="33"/>
			<point x="303" y="70" type="qcurve"/>
			<point x="273" y="0" type="line"/>
			<point x="120" y="0" type="line"/>
			<point x="120" y="496" type="line"/>
			<point x="292" y="496" type="line"/>
			<point x="320" y="358" type="line" smooth="yes"/>
			<point x="341" y="254"/>
			<point x="466" y="143"/>
		</contour>
	</outline>
</glyph>
<glyph name="Ka" format="2">
  <advance width="1783"/>
  <unicode hex="041A"/>
  <guideline x="480" y="796" angle="90" identifier="LxfLwWU0sJ"/>
  <anchor x="942" y="0" name="bottom"/>
  <anchor x="950" y="1500" name="top"/>
  <outline>
    <contour>
      <point x="42" y="0" type="line"/>
      <point x="42" y="130" type="line"/>
      <point x="220" y="165" type="line"/>
      <point x="222" y="754" type="line"/>
      <point x="220" y="1322" type="line"/>
      <point x="42" y="1356" type="line"/>
      <point x="42" y="1500" type="line"/>
      <point x="896" y="1500" type="line"/>
      <point x="896" y="1356" type="line"/>
      <point x="720" y="1322" type="line"/>
      <point x="718" y="754" type="line"/>
      <point x="720" y="165" type="line"/>
      <point x="866" y="130" type="line"/>
      <point x="866" y="0" type="line"/>
    </contour>
    <contour>
      <point x="470" y="696" type="line"/>
      <point x="470" y="858" type="line"/>
      <point x="836" y="852" type="line"/>
      <point x="1264" y="1324" type="line"/>
      <point x="1136" y="1357" type="line"/>
      <point x="1136" y="1500" type="line"/>
      <point x="1659" y="1500" type="line"/>
      <point x="1659" y="1357" type="line"/>
      <point x="1480" y="1324" type="line"/>
      <point x="994" y="796" type="line"/>
      <point x="906" y="696" type="line"/>
    </contour>
    <contour>
      <point x="816" y="729" type="line"/>
      <point x="1162" y="1081" type="line"/>
      <point x="1675" y="165" type="line"/>
      <point x="1784" y="130" type="line"/>
      <point x="1784" y="0" type="line"/>
      <point x="1017" y="0" type="line"/>
      <point x="1017" y="130" type="line"/>
      <point x="1126" y="165" type="line"/>
    </contour>
  </outline>
</glyph>
<glyph name="El" format="2">
	<unicode hex="041B"/>
	<advance width="1756"/>
	<outline>
		<contour>
			<point x="370" y="842" type="qcurve" smooth="yes"/>
			<point x="396" y="1322" type="line"/>
			<point x="218" y="1356" type="line"/>
			<point x="218" y="1500" type="line"/>
			<point x="1706" y="1500" type="line"/>
			<point x="1706" y="1356" type="line"/>
			<point x="1528" y="1322" type="line"/>
			<point x="1526" y="754" type="line"/>
			<point x="1528" y="165" type="line"/>
			<point x="1706" y="130" type="line"/>
			<point x="1706" y="0" type="line"/>
			<point x="849" y="0" type="line"/>
			<point x="849" y="130" type="line"/>
			<point x="1027" y="165" type="line"/>
			<point x="1029" y="754" type="line"/>
			<point x="1027" y="1318" type="line"/>
			<point x="973" y="1342" type="line"/>
			<point x="659" y="1342" type="line"/>
			<point x="605" y="1318" type="line"/>
			<point x="579" y="827" type="line" smooth="yes"/>
			<point x="552.7896286594" y="332.0272181448"/>
			<point x="372.4821852732" y="-25"/>
			<point x="163" y="-25" type="qcurve" smooth="yes"/>
			<point x="120" y="-25"/>
			<point x="69" y="-13"/>
			<point x="40" y="0" type="qcurve"/>
			<point x="40" y="318" type="line"/>
			<point x="64" y="310"/>
			<point x="101" y="305"/>
			<point x="125" y="305" type="qcurve" smooth="yes"/>
			<point x="245" y="305"/>
			<point x="353.6860032861" y="540.8185222058"/>
		</contour>
	</outline>
</glyph>
<glyph name="Pe" format="2">
	<unicode hex="041F"/>
	<advance width="1932"/>
	<outline>
		<contour>
			<point x="1211" y="1318" type="line"/>
			<point x="1157" y="1342" type="line"/>
			<point x="775" y="1342" type="line"/>
			<point x="721" y="1318" type="line"/>
			<point x="719" y="754" type="line"/>
			<point x="721" y="165" type="line"/>
			<point x="897" y="130" type="line"/>
			<point x="897" y="0" type="line"/>
			<point x="42" y="0" type="line"/>
			<point x="42" y="130" type="line"/>
			<point x="220" y="165" type="line"/>
			<point x="222" y="754" type="line"/>
			<point x="220" y="1322" type="line"/>
			<point x="42" y="1356" type="line"/>
			<point x="42" y="1500" type="line"/>
			<point x="1890" y="1500" type="line"/>
			<point x="1890" y="1356" type="line"/>
			<point x="1712" y="1322" type="line"/>
			<point x="1710" y="754" type="line"/>
			<point x="1712" y="165" type="line"/>
			<point x="1890" y="130" type="line"/>
			<point x="1890" y="0" type="line"/>
			<point x="1035" y="0" type="line"/>
			<point x="1035" y="130" type="line"/>
			<point x="1211" y="165" type="line"/>
			<point x="1213" y="754" type="line"/>
		</contour>
	</outline>
</glyph>
<glyph name="Ef" format="2">
	<unicode hex="0424"/>
	<advance width="2188"/>
	<outline>
		<contour>
			<point x="2143" y="747" type="qcurve" smooth="yes"/>
			<point x="2143" y="493"/>
			<point x="1744" y="224"/>
			<point x="1260" y="215" type="qcurve"/>
			<point x="1260" y="354" type="line"/>
			<point x="1440" y="356"/>
			<point x="1605" y="552"/>
			<point x="1605" y="750" type="qcurve" smooth="yes"/>
			<point x="1605" y="921"/>
			<point x="1427" y="1108"/>
			<point x="1260" y="1108" type="qcurve"/>
			<point x="1260" y="1259" type="line"/>
			<point x="1728" y="1259"/>
			<point x="2143" y="994"/>
		</contour>
		<contour>
			<point x="45" y="728" type="qcurve" smooth="yes"/>
			<point x="45" y="981"/>
			<point x="444" y="1250"/>
			<point x="928" y="1259" type="qcurve"/>
			<point x="928" y="1110" type="line"/>
			<point x="748" y="1108"/>
			<point x="583" y="933"/>
			<point x="583" y="735" type="qcurve" smooth="yes"/>
			<point x="583" y="563"/>
			<point x="761" y="356"/>
			<point x="928" y="356" type="qcurve"/>
			<point x="928" y="215" type="line"/>
			<point x="460" y="215"/>
			<point x="45" y="480"/>
		</contour>
		<contour>
			<point x="671" y="89" type="line"/>
			<point x="859" y="123" type="line"/>
			<point x="862" y="260" type="line"/>
			<point x="872" y="260" type="line"/>
			<point x="874" y="725" type="line"/>
			<point x="1314" y="725" type="line"/>
			<point x="1316" y="261" type="line"/>
			<point x="1326" y="260" type="line"/>
			<point x="1329" y="123" type="line"/>
			<point x="1517" y="89" type="line"/>
			<point x="1517" y="-40" type="line"/>
			<point x="671" y="-40" type="line"/>
		</contour>
		<contour>
			<point x="671" y="1391" type="line"/>
			<point x="671" y="1520" type="line"/>
			<point x="1517" y="1520" type="line"/>
			<point x="1517" y="1391" type="line"/>
			<point x="1329" y="1357" type="line"/>
			<point x="1326" y="1203" type="line"/>
			<point x="1316" y="1203" type="line"/>
			<point x="1314" y="725" type="line"/>
			<point x="874" y="725" type="line"/>
			<point x="872" y="1202" type="line"/>
			<point x="862" y="1203" type="line"/>
			<point x="859" y="1357" type="line"/>
		</contour>
	</outline>
</glyph>
<glyph name="Sha" format="2">
	<unicode hex="0428"/>
	<advance width="2783"/>
	<outline>
		<contour>
			<point x="1642" y="182" type="line"/>
			<point x="1696" y="158" type="line"/>
			<point x="2008" y="158" type="line"/>
			<point x="2062" y="182" type="line"/>
			<point x="2064" y="746" type="line"/>
			<point x="2062" y="1335" type="line"/>
			<point x="1916" y="1370" type="line"/>
			<point x="1916" y="1500" type="line"/>
			<point x="2741" y="1500" type="line"/>
			<point x="2741" y="1370" type="line"/>
			<point x="2563" y="1335" type="line"/>
			<point x="2561" y="746" type="line"/>
			<point x="2563" y="178" type="line"/>
			<point x="2741" y="144" type="line"/>
			<point x="2741" y="0" type="line"/>
			<point x="42" y="0" type="line"/>
			<point x="42" y="144" type="line"/>
			<point x="220" y="178" type="line"/>
			<point x="222" y="746" type="line"/>
			<point x="220" y="1335" type="line"/>
			<point x="42" y="1370" type="line"/>
			<point x="42" y="1500" type="line"/>
			<point x="867" y="1500" type="line"/>
			<point x="867" y="1370" type="line"/>
			<point x="721" y="1335" type="line"/>
			<point x="719" y="746" type="line"/>
			<point x="721" y="182" type="line"/>
			<point x="775" y="158" type="line"/>
			<point x="1087" y="158" type="line"/>
			<point x="1141" y="182" type="line"/>
			<point x="1143" y="746" type="line"/>
			<point x="1141" y="1335" type="line"/>
			<point x="995" y="1370" type="line"/>
			<point x="995" y="1500" type="line"/>
			<point x="1788" y="1500" type="line"/>
			<point x="1788" y="1370" type="line"/>
			<point x="1642" y="1335" type="line"/>
			<point x="1640" y="746" type="line"/>
		</contour>
	</outline>
</glyph>
<glyph name="Hard" format="2">
	<unicode hex="042A"/>
	<advance width="1834"/>
	<outline>
		<contour>
			<point x="1127" y="1500" type="line"/>
			<point x="1127" y="1356" type="line"/>
			<point x="931" y="1322" type="line"/>
			<point x="926" y="921" type="line"/>
			<point x="934" y="911" type="line"/>
			<point x="1182" y="911" type="line" smooth="yes"/>
			<point x="1503" y="911"/>
			<point x="1788" y="683"/>
			<point x="1788" y="452" type="qcurve" smooth="yes"/>
			<point x="1788" y="257"/>
			<point x="1554" y="0"/>
			<point x="1284" y="0" type="qcurve" smooth="yes"/>
			<point x="252" y="0" type="line"/>
			<point x="252" y="130" type="line"/>
			<point x="430" y="165" type="line"/>
			<point x="432" y="754" type="line"/>
			<point x="430" y="1342" type="line"/>
			<point x="225" y="1342" type="line"/>
			<point x="185" y="1056" type="line"/>
			<point x="40" y="1056" type="line"/>
			<point x="40" y="1500" type="line"/>
		</contour>
		<contour>
			<point x="936" y="761" type="line"/>
			<point x="926" y="750" type="line"/>
			<point x="928" y="170" type="line"/>
			<point x="952" y="150" type="line"/>
			<point x="1038" y="150" type="line" smooth="yes"/>
			<point x="1169" y="150"/>
			<point x="1288" y="287"/>
			<point x="1288" y="459" type="qcurve" smooth="yes"/>
			<point x="1288" y="621"/>
			<point x="1171" y="761"/>
			<point x="1072" y="761" type="qcurve" smooth="yes"/>
		</contour>
	</outline>
</glyph>
<glyph name="be" format="2">
	<unicode hex="0431"/>
	<advance width="1540"/>
	<outline>
		<contour>
			<point x="764" y="115" type="qcurve" smooth="yes"/>
			<point x="868" y="115"/>
			<point x="969" y="267.2528735632"/>
			<point x="969" y="473" type="qcurve" smooth="yes"/>
			<point x="969" y="632"/>
			<point x="879" y="769"/>
			<point x="777" y="769" type="qcurve" smooth="yes"/>
			<point x="690" y="769"/>
			<point x="564" y="661"/>
			<point x="529" y="564" type="qcurve"/>
			<point x="433" y="646" type="line"/>
			<point x="484" y="803"/>
			<point x="767" y="1002"/>
			<point x="987" y="1002" type="qcurve" smooth="yes"/>
			<point x="1211" y="1002"/>
			<point x="1485" y="745"/>
			<point x="1485" y="500" type="qcurve" smooth="yes"/>
			<point x="1485" y="260.4545454545"/>
			<point x="1108" y="-27"/>
			<point x="771" y="-27" type="qcurve" smooth="yes"/>
			<point x="415" y="-27"/>
			<point x="70" y="313"/>
			<point x="70" y="629" type="qcurve" smooth="yes"/>
			<point x="70" y="1000"/>
			<point x="577" y="1413"/>
			<point x="1067" y="1472" type="qcurve" smooth="yes"/>
			<point x="1182" y="1486"/>
			<point x="1288" y="1509"/>
			<point x="1303" y="1537" type="qcurve"/>
			<point x="1440" y="1537" type="line"/>
			<point x="1437" y="1308"/>
			<point x="1270" y="1100"/>
			<point x="1075" y="1100" type="qcurve" smooth="yes"/>
			<point x="907" y="1100"/>
			<point x="606" y="1195"/>
			<point x="542" y="1160" type="qcurve" smooth="yes"/>
			<point x="491" y="1132"/>
			<point x="484" y="852"/>
			<point x="484" y="712" type="qcurve"/>
			<point x="569" y="712" type="line"/>
			<point x="564.6404942935" y="643.7010772654"/>
			<point x="562" y="574"/>
			<point x="562" y="520" type="qcurve" smooth="yes"/>
			<point x="562" y="284"/>
			<point x="669" y="115"/>
		</contour>
	</outline>
	<guideline x="585" y="692" angle="90" identifier="reRO0rLZEW"/>
</glyph>
<glyph name="ve" format="2">
	<unicode hex="0432"/>
	<advance width="1451"/>
	<outline>
		<contour>
			<point x="35" y="1050" type="line"/>
			<point x="969" y="1050" type="line" smooth="yes"/>
			<point x="1163" y="1050"/>
			<point x="1354" y="922.2777777778"/>
			<point x="1354" y="808" type="qcurve" smooth="yes"/>
			<point x="1354" y="716.3333333333"/>
			<point x="1226.0413930253" y="585.0409335417"/>
			<point x="1093" y="558" type="qcurve"/>
			<point x="1093" y="554" type="line"/>
			<point x="1242.6463172622" y="539.0353682738"/>
			<point x="1401" y="408.332046332"/>
			<point x="1401" y="292" type="qcurve" smooth="yes"/>
			<point x="1401" y="151.4440677966"/>
			<point x="1187" y="0"/>
			<point x="966" y="0" type="qcurve" smooth="yes"/>
			<point x="35" y="0" type="line"/>
			<point x="35" y="120" type="line"/>
			<point x="183" y="155" type="line"/>
			<point x="185" y="525" type="line"/>
			<point x="183" y="895" type="line"/>
			<point x="35" y="930" type="line"/>
		</contour>
		<contour>
			<point x="666" y="158" type="line"/>
			<point x="774" y="158" type="line" smooth="yes"/>
			<point x="855" y="158"/>
			<point x="934" y="233"/>
			<point x="934" y="314" type="qcurve" smooth="yes"/>
			<point x="934" y="389"/>
			<point x="856" y="465"/>
			<point x="774" y="465" type="qcurve" smooth="yes"/>
			<point x="424" y="465" type="line"/>
			<point x="424" y="610" type="line"/>
			<point x="740" y="610" type="line" smooth="yes"/>
			<point x="821" y="610"/>
			<point x="891" y="693"/>
			<point x="891" y="756" type="qcurve" smooth="yes"/>
			<point x="891" y="824"/>
			<point x="819" y="894"/>
			<point x="743" y="894" type="qcurve" smooth="yes"/>
			<point x="666" y="894" type="line"/>
			<point x="663" y="525" type="line"/>
		</contour>
	</outline>
	<guideline x="302" y="625" angle="90" identifier="FqbstdQzDn"/>
	<guideline x="954" y="842" angle="90" identifier="zbbKiP68t3"/>
	<guideline x="302" y="625" angle="90" identifier="GIy9coG44J"/>
	<guideline x="953" y="554" angle="90" identifier="D3tp2dJ6P1"/>
	<guideline x="627" y="553" angle="90" identifier="hMbIPKG5BB"/>
	<guideline x="329" y="565" angle="0" identifier="qxFdiqV0Xr"/>
</glyph>
<glyph name="de" format="2">
	<unicode hex="0434"/>
	<advance width="1421"/>
	<outline>
		<contour>
			<point x="262" y="895" type="line"/>
			<point x="114" y="930" type="line"/>
			<point x="114" y="1050" type="line"/>
			<point x="1374" y="1050" type="line"/>
			<point x="1374" y="930" type="line"/>
			<point x="1226" y="895" type="line"/>
			<point x="1224" y="525" type="line"/>
			<point x="1226" y="0" type="line"/>
			<point x="742" y="0" type="line"/>
			<point x="745" y="525" type="line"/>
			<point x="742" y="889" type="line"/>
			<point x="437" y="889" type="line"/>
			<point x="412" y="493" type="line" smooth="yes"/>
			<point x="405" y="389"/>
			<point x="370" y="196"/>
			<point x="332" y="117" type="qcurve"/>
			<point x="123" y="117" type="line"/>
			<point x="176" y="186"/>
			<point x="231" y="395"/>
			<point x="239" y="529" type="qcurve" smooth="yes"/>
		</contour>
		<contour>
			<point x="1234" y="-318" type="line"/>
			<point x="1135" y="0" type="line"/>
			<point x="266" y="0" type="line"/>
			<point x="167" y="-318" type="line"/>
			<point x="15" y="-318" type="line"/>
			<point x="25" y="161" type="line"/>
			<point x="1376" y="161" type="line"/>
			<point x="1386" y="-318" type="line"/>
		</contour>
	</outline>
	<guideline x="302" y="625" angle="90" identifier="jHuxcyi1x5"/>
	<guideline x="953" y="554" angle="90" identifier="b1mHk7wgTR"/>
	<guideline x="627" y="553" angle="90" identifier="m4aYe0x4PZ"/>
	<guideline x="302" y="625" angle="90" identifier="jJQglyXWqp"/>
	<guideline x="953" y="554" angle="90" identifier="49LKabpt8w"/>
	<guideline x="627" y="553" angle="90" identifier="feHY0ENmLf"/>
	<guideline x="302" y="625" angle="90" identifier="HY74OowaTj"/>
	<guideline x="953" y="554" angle="90" identifier="eGlO3NWN3i"/>
	<guideline x="627" y="553" angle="90" identifier="4oIMlZ73Te"/>
	<guideline x="302" y="200" angle="90" identifier="u60QcEZenv"/>
	<guideline x="953" y="554" angle="90" identifier="5m3l3VIiXP"/>
	<guideline x="627" y="553" angle="90" identifier="BoY5sWDa8x"/>
	<guideline x="302" y="625" angle="90" identifier="syWGtLYFtE"/>
	<guideline x="953" y="554" angle="90" identifier="vBezR4Cdh7"/>
	<guideline x="627" y="553" angle="90" identifier="dmKAm302kh"/>
	<guideline x="302" y="625" angle="90" identifier="nzlbn483K3"/>
	<guideline x="953" y="554" angle="90" identifier="a6CK2rFBjQ"/>
	<guideline x="627" y="553" angle="90" identifier="sZaFPLJkIi"/>
	<guideline x="422" y="546" angle="90" identifier="zIwhjS7f3v"/>
	<guideline x="1235" y="655" angle="90" identifier="DiZr0MK2q9"/>
</glyph>
<glyph name="ka" format="2">
  <advance width="1571"/>
  <unicode hex="043A"/>
  <guideline x="241" y="553" angle="90" identifier="lmgRx0QBdK"/>
  <guideline x="786" y="880" angle="0" identifier="nFoPGEsufr"/>
  <guideline x="302" y="625" angle="90" identifier="nrNFUrpxzB"/>
  <guideline x="953" y="554" angle="90" identifier="8MDf64Nvwa"/>
  <guideline x="627" y="553" angle="90" identifier="P0g5t2f8zl"/>
  <anchor x="785.5" y="0" name="bottom"/>
  <anchor x="785.5" y="1050" name="top"/>
  <outline>
    <contour>
      <point x="739" y="504" type="line"/>
      <point x="1082" y="815" type="line"/>
      <point x="1457" y="155" type="line"/>
      <point x="1571" y="120" type="line"/>
      <point x="1571" y="0" type="line"/>
      <point x="947" y="0" type="line"/>
      <point x="931" y="109" type="line"/>
      <point x="940" y="141" type="line"/>
    </contour>
    <contour>
      <point x="424" y="612" type="line"/>
      <point x="766" y="610" type="line"/>
      <point x="1024" y="880" type="line"/>
      <point x="895" y="910" type="line"/>
      <point x="895" y="1050" type="line"/>
      <point x="1453" y="1050" type="line"/>
      <point x="1453" y="910" type="line"/>
      <point x="1272" y="875" type="line"/>
      <point x="795" y="452" type="line"/>
      <point x="424" y="451" type="line"/>
    </contour>
    <contour>
      <point x="185" y="525" type="line"/>
      <point x="183" y="895" type="line"/>
      <point x="35" y="930" type="line"/>
      <point x="35" y="1050" type="line"/>
      <point x="783" y="1050" type="line"/>
      <point x="783" y="930" type="line"/>
      <point x="666" y="895" type="line"/>
      <point x="663" y="525" type="line"/>
      <point x="666" y="155" type="line"/>
      <point x="783" y="120" type="line"/>
      <point x="783" y="0" type="line"/>
      <point x="35" y="0" type="line"/>
      <point x="35" y="120" type="line"/>
      <point x="183" y="155" type="line"/>
    </contour>
  </outline>
</glyph>
<glyph name="el" format="2">
	<unicode hex="043B"/>
	<advance width="1430"/>
	<outline>
		<contour>
			<point x="303" y="895" type="line"/>
			<point x="155" y="930" type="line"/>
			<point x="155" y="1050" type="line"/>
			<point x="1395" y="1050" type="line"/>
			<point x="1395" y="930" type="line"/>
			<point x="1247" y="895" type="line"/>
			<point x="1245" y="525" type="line"/>
			<point x="1247" y="155" type="line"/>
			<point x="1395" y="120" type="line"/>
			<point x="1395" y="0" type="line"/>
			<point x="615" y="0" type="line"/>
			<point x="615" y="120" type="line"/>
			<point x="763" y="155" type="line"/>
			<point x="766" y="525" type="line"/>
			<point x="763" y="889" type="line"/>
			<point x="469" y="889" type="line"/>
			<point x="444" y="493" type="line" smooth="yes"/>
			<point x="427.3988626779" y="230.0379848173"/>
			<point x="297.2857142857" y="-18"/>
			<point x="128" y="-18" type="qcurve" smooth="yes"/>
			<point x="89" y="-18"/>
			<point x="35.1536349785" y="-7.5768174892"/>
			<point x="20" y="0" type="qcurve"/>
			<point x="20" y="307" type="line"/>
			<point x="42" y="300"/>
			<point x="78" y="295"/>
			<point x="97" y="295" type="qcurve" smooth="yes"/>
			<point x="191.1445086705" y="295"/>
			<point x="272.330041448" y="406.9476160857"/>
			<point x="280" y="529" type="qcurve" smooth="yes"/>
		</contour>
	</outline>
	<guideline x="302" y="200" angle="90" identifier="jHuxcyi1x5"/>
	<guideline x="953" y="554" angle="90" identifier="b1mHk7wgTR"/>
	<guideline x="627" y="553" angle="90" identifier="m4aYe0x4PZ"/>
	<guideline x="302" y="625" angle="90" identifier="Ky1lHbuwqH"/>
	<guideline x="953" y="554" angle="90" identifier="KcHye0wYbo"/>
	<guideline x="627" y="553" angle="90" identifier="duMaS7Nr94"/>
	<guideline x="302" y="625" angle="90" identifier="gJ0q0pOUJd"/>
	<guideline x="953" y="554" angle="90" identifier="SLPvBuo6sg"/>
	<guideline x="627" y="553" angle="90" identifier="bUIIWOM2Q2"/>
	<guideline x="422" y="546" angle="90" identifier="tEli9XgANW"/>
	<guideline x="1235" y="655" angle="90" identifier="j6fw55adML"/>
</glyph>
<glyph name="en" format="2">
	<unicode hex="043D"/>
	<advance width="1663"/>
	<outline>
		<contour>
			<point x="424" y="612" type="line"/>
			<point x="829" y="609" type="line"/>
			<point x="1239" y="612" type="line"/>
			<point x="1239" y="451" type="line"/>
			<point x="829" y="453" type="line"/>
			<point x="424" y="451" type="line"/>
		</contour>
		<contour>
			<point x="185" y="525" type="line"/>
			<point x="183" y="895" type="line"/>
			<point x="35" y="930" type="line"/>
			<point x="35" y="1050" type="line"/>
			<point x="783" y="1050" type="line"/>
			<point x="783" y="930" type="line"/>
			<point x="666" y="895" type="line"/>
			<point x="663" y="525" type="line"/>
			<point x="666" y="155" type="line"/>
			<point x="783" y="120" type="line"/>
			<point x="783" y="0" type="line"/>
			<point x="35" y="0" type="line"/>
			<point x="35" y="120" type="line"/>
			<point x="183" y="155" type="line"/>
		</contour>
		<contour>
			<point x="1478" y="525" type="line"/>
			<point x="1480" y="155" type="line"/>
			<point x="1628" y="120" type="line"/>
			<point x="1628" y="0" type="line"/>
			<point x="880" y="0" type="line"/>
			<point x="880" y="120" type="line"/>
			<point x="997" y="155" type="line"/>
			<point x="1000" y="525" type="line"/>
			<point x="997" y="895" type="line"/>
			<point x="880" y="930" type="line"/>
			<point x="880" y="1050" type="line"/>
			<point x="1628" y="1050" type="line"/>
			<point x="1628" y="930" type="line"/>
			<point x="1480" y="895" type="line"/>
		</contour>
	</outline>
	<guideline x="302" y="625" angle="90" identifier="jHuxcyi1x5"/>
	<guideline x="953" y="554" angle="90" identifier="b1mHk7wgTR"/>
	<guideline x="627" y="553" angle="90" identifier="m4aYe0x4PZ"/>
	<guideline x="422" y="546" angle="90" identifier="j1kJuMIbJn"/>
	<guideline x="1235" y="655" angle="90" identifier="zT9tKpV6y2"/>
</glyph>
<glyph name="pe" format="2">
	<unicode hex="043F"/>
	<advance width="1648"/>
	<outline>
		<contour>
			<point x="185" y="525" type="line"/>
			<point x="183" y="895" type="line"/>
			<point x="35" y="930" type="line"/>
			<point x="35" y="1050" type="line"/>
			<point x="1613" y="1050" type="line"/>
			<point x="1613" y="930" type="line"/>
			<point x="1465" y="895" type="line"/>
			<point x="1463" y="525" type="line"/>
			<point x="1465" y="155" type="line"/>
			<point x="1613" y="120" type="line"/>
			<point x="1613" y="0" type="line"/>
			<point x="869" y="0" type="line"/>
			<point x="869" y="120" type="line"/>
			<point x="981" y="155" type="line"/>
			<point x="984" y="525" type="line"/>
			<point x="981" y="889" type="line"/>
			<point x="667" y="889" type="line"/>
			<point x="664" y="525" type="line"/>
			<point x="667" y="155" type="line"/>
			<point x="779" y="120" type="line"/>
			<point x="779" y="0" type="line"/>
			<point x="35" y="0" type="line"/>
			<point x="35" y="120" type="line"/>
			<point x="183" y="155" type="line"/>
		</contour>
	</outline>
	<guideline x="302" y="625" angle="90" identifier="jHuxcyi1x5"/>
	<guideline x="953" y="554" angle="90" identifier="b1mHk7wgTR"/>
	<guideline x="627" y="553" angle="90" identifier="m4aYe0x4PZ"/>
	<guideline x="422" y="546" angle="90" identifier="j1kJuMIbJn"/>
	<guideline x="1235" y="655" angle="90" identifier="zT9tKpV6y2"/>
</glyph>
<glyph name="tse" format="2">
	<unicode hex="0446"/>
	<advance width="1657"/>
	<outline>
		<contour>
			<point x="185" y="525" type="line"/>
			<point x="183" y="895" type="line"/>
			<point x="35" y="930" type="line"/>
			<point x="35" y="1050" type="line"/>
			<point x="779" y="1050" type="line"/>
			<point x="779" y="930" type="line"/>
			<point x="667" y="895" type="line"/>
			<point x="664" y="525" type="line"/>
			<point x="667" y="161" type="line"/>
			<point x="981" y="161" type="line"/>
			<point x="984" y="525" type="line"/>
			<point x="981" y="895" type="line"/>
			<point x="869" y="930" type="line"/>
			<point x="869" y="1050" type="line"/>
			<point x="1613" y="1050" type="line"/>
			<point x="1613" y="930" type="line"/>
			<point x="1465" y="895" type="line"/>
			<point x="1463" y="525" type="line"/>
			<point x="1465" y="161" type="line"/>
			<point x="1612" y="161" type="line"/>
			<point x="1622" y="-318" type="line"/>
			<point x="1470" y="-318" type="line"/>
			<point x="1371" y="0" type="line"/>
			<point x="35" y="0" type="line"/>
			<point x="35" y="120" type="line"/>
			<point x="183" y="155" type="line"/>
		</contour>
	</outline>
	<guideline x="302" y="625" angle="90" identifier="jHuxcyi1x5"/>
	<guideline x="953" y="554" angle="90" identifier="b1mHk7wgTR"/>
	<guideline x="627" y="553" angle="90" identifier="m4aYe0x4PZ"/>
	<guideline x="302" y="625" angle="90" identifier="3DrTXcRKox"/>
	<guideline x="953" y="554" angle="90" identifier="0Lt8VtrvKF"/>
	<guideline x="627" y="553" angle="90" identifier="OlTzD3Mqim"/>
	<guideline x="302" y="625" angle="90" identifier="OShpcMitIs"/>
	<guideline x="953" y="554" angle="90" identifier="Viz3uf4CnD"/>
	<guideline x="627" y="553" angle="90" identifier="bDGM8ON9QM"/>
	<guideline x="422" y="546" angle="90" identifier="bNT3kwcVY6"/>
	<guideline x="1235" y="655" angle="90" identifier="TEhrh6TFT5"/>
</glyph>
<glyph name="shcha" format="2">
	<unicode hex="0449"/>
	<advance width="2372"/>
	<outline>
		<contour>
			<point x="2180" y="161" type="line"/>
			<point x="2327" y="161" type="line"/>
			<point x="2337" y="-318" type="line"/>
			<point x="2185" y="-318" type="line"/>
			<point x="2086" y="0" type="line"/>
			<point x="35" y="0" type="line"/>
			<point x="35" y="120" type="line"/>
			<point x="183" y="155" type="line"/>
			<point x="185" y="525" type="line"/>
			<point x="183" y="895" type="line"/>
			<point x="35" y="930" type="line"/>
			<point x="35" y="1050" type="line"/>
			<point x="758" y="1050" type="line"/>
			<point x="758" y="930" type="line"/>
			<point x="666" y="895" type="line"/>
			<point x="664" y="525" type="line"/>
			<point x="666" y="161" type="line"/>
			<point x="940" y="161" type="line"/>
			<point x="942" y="525" type="line"/>
			<point x="940" y="895" type="line"/>
			<point x="848" y="930" type="line"/>
			<point x="848" y="1050" type="line"/>
			<point x="1515" y="1050" type="line"/>
			<point x="1515" y="930" type="line"/>
			<point x="1423" y="895" type="line"/>
			<point x="1421" y="525" type="line"/>
			<point x="1423" y="161" type="line"/>
			<point x="1697" y="161" type="line"/>
			<point x="1699" y="525" type="line"/>
			<point x="1697" y="895" type="line"/>
			<point x="1605" y="930" type="line"/>
			<point x="1605" y="1050" type="line"/>
			<point x="2329" y="1050" type="line"/>
			<point x="2329" y="930" type="line"/>
			<point x="2180" y="895" type="line"/>
			<point x="2178" y="525" type="line"/>
		</contour>
	</outline>
	<guideline x="302" y="625" angle="90" identifier="NJObwdl7Zg"/>
	<guideline x="953" y="554" angle="90" identifier="1530lh32tn"/>
	<guideline x="627" y="553" angle="90" identifier="24e3XVDPIE"/>
	<guideline x="302" y="625" angle="90" identifier="0DohXKY9iO"/>
	<guideline x="953" y="554" angle="90" identifier="bYbxm7pIc2"/>
	<guideline x="627" y="553" angle="90" identifier="TKz8pnjlkQ"/>
	<guideline x="422" y="546" angle="90" identifier="oSibTojdfD"/>
	<guideline x="1235" y="655" angle="90" identifier="dr3OcRuZ43"/>
	<guideline x="302" y="625" angle="90" identifier="ailKfdMEzt"/>
	<guideline x="953" y="554" angle="90" identifier="aWoxSzSlC6"/>
	<guideline x="627" y="553" angle="90" identifier="58fpWLis80"/>
	<guideline x="422" y="546" angle="90" identifier="d73d51EdCd"/>
	<guideline x="1235" y="655" angle="90" identifier="3NyQb0fT5l"/>
</glyph>
<glyph name="yeru" format="2">
	<unicode hex="044B"/>
	<advance width="2183"/>
	<outline>
		<contour>
			<point x="1998" y="525" type="line"/>
			<point x="2000" y="155" type="line"/>
			<point x="2148" y="120" type="line"/>
			<point x="2148" y="0" type="line"/>
			<point x="1399" y="0" type="line"/>
			<point x="1399" y="120" type="line"/>
			<point x="1516" y="155" type="line"/>
			<point x="1519" y="525" type="line"/>
			<point x="1516" y="895" type="line"/>
			<point x="1399" y="930" type="line"/>
			<point x="1399" y="1050" type="line"/>
			<point x="2148" y="1050" type="line"/>
			<point x="2148" y="930" type="line"/>
			<point x="2000" y="895" type="line"/>
		</contour>
		<component base="soft"/>
	</outline>
</glyph>
<glyph name="ecyr" format="2">
  <advance width="1256"/>
  <unicode hex="044D"/>
  <guideline x="180" y="548" angle="90" identifier="n4jm0tBg3Y"/>
  <guideline x="585" y="692" angle="90" identifier="5YHDimtfWx"/>
  <anchor x="589.0" y="0" name="bottom"/>
  <anchor x="614.0" y="1050" name="top"/>
  <outline>
    <contour>
      <point x="274" y="46" type="qcurve"/>
      <point x="250" y="-3" type="line"/>
      <point x="110" y="-3" type="line"/>
      <point x="110" y="365" type="line"/>
      <point x="259" y="365" type="line"/>
      <point x="278" y="277" type="line" smooth="yes"/>
      <point x="293" y="209"/>
      <point x="390" y="138"/>
      <point x="475" y="138" type="qcurve" smooth="yes"/>
      <point x="583" y="138"/>
      <point x="688" y="305"/>
      <point x="688" y="526" type="qcurve" smooth="yes"/>
      <point x="688" y="744"/>
      <point x="584" y="912"/>
      <point x="487" y="912" type="qcurve" smooth="yes"/>
      <point x="401" y="912"/>
      <point x="300" y="834"/>
      <point x="285" y="761" type="qcurve" smooth="yes"/>
      <point x="269" y="685" type="line"/>
      <point x="120" y="685" type="line"/>
      <point x="120" y="1053" type="line"/>
      <point x="260" y="1053" type="line"/>
      <point x="284" y="1004" type="line"/>
      <point x="334" y="1037"/>
      <point x="514" y="1077"/>
      <point x="615" y="1077" type="qcurve" smooth="yes"/>
      <point x="883" y="1077"/>
      <point x="1204" y="790"/>
      <point x="1204" y="531" type="qcurve" smooth="yes"/>
      <point x="1204" y="285"/>
      <point x="875" y="-27"/>
      <point x="588" y="-27" type="qcurve" smooth="yes"/>
      <point x="484" y="-27"/>
      <point x="324" y="13"/>
    </contour>
    <contour>
      <point x="946" y="609" type="line"/>
      <point x="946" y="453" type="line"/>
      <point x="362" y="451" type="line"/>
      <point x="362" y="612" type="line"/>
    </contour>
  </outline>
</glyph>
<glyph name="ieukran" format="2">
	<unicode hex="0454"/>
	<advance width="1246"/>
	<outline>
		<contour>
			<point x="311" y="609" type="line"/>
			<point x="927" y="612" type="line"/>
			<point x="927" y="451" type="line"/>
			<point x="311" y="453" type="line"/>
		</contour>
		<contour>
			<point x="52" y="502" type="qcurve" smooth="yes"/>
			<point x="52" y="762"/>
			<point x="408" y="1077"/>
			<point x="695" y="1077" type="qcurve" smooth="yes"/>
			<point x="819" y="1077"/>
			<point x="959" y="1037"/>
			<point x="1009" y="1004" type="qcurve"/>
			<point x="1033" y="1053" type="line"/>
			<point x="1173" y="1053" type="line"/>
			<point x="1173" y="685" type="line"/>
			<point x="1024" y="685" type="line"/>
			<point x="1005" y="773" type="line" smooth="yes"/>
			<point x="991" y="838"/>
			<point x="888" y="912"/>
			<point x="806" y="912" type="qcurve" smooth="yes"/>
			<point x="706" y="912"/>
			<point x="569" y="740"/>
			<point x="569" y="531" type="qcurve" smooth="yes"/>
			<point x="569" y="324"/>
			<point x="733" y="165"/>
			<point x="857" y="165" type="qcurve" smooth="yes"/>
			<point x="944" y="165"/>
			<point x="1087" y="229"/>
			<point x="1134" y="280" type="qcurve"/>
			<point x="1225" y="167" type="line"/>
			<point x="1160" y="85"/>
			<point x="889" y="-27"/>
			<point x="695" y="-27" type="qcurve" smooth="yes"/>
			<point x="421" y="-27"/>
			<point x="52" y="255"/>
		</contour>
	</outline>
	<guideline x="180" y="548" angle="90" identifier="n4jm0tBg3Y"/>
</glyph>
<glyph name="lje" format="2">
	<unicode hex="0459"/>
	<advance width="1963"/>
	<outline>
		<contour>
			<point x="724" y="889" type="line"/>
			<point x="726" y="525" type="line"/>
			<point x="724" y="155" type="line"/>
			<point x="576" y="120" type="line"/>
			<point x="576" y="0" type="line"/>
			<point x="1497" y="0" type="line" smooth="yes"/>
			<point x="1716" y="0"/>
			<point x="1943" y="175"/>
			<point x="1943" y="336" type="qcurve" smooth="yes"/>
			<point x="1943" y="512"/>
			<point x="1711" y="681"/>
			<point x="1497" y="681" type="qcurve" smooth="yes"/>
			<point x="965" y="681" type="line"/>
			<point x="965" y="526" type="line"/>
			<point x="1286" y="526" type="line" smooth="yes"/>
			<point x="1390" y="526"/>
			<point x="1463" y="427"/>
			<point x="1463" y="340" type="qcurve" smooth="yes"/>
			<point x="1463" y="254"/>
			<point x="1387" y="158"/>
			<point x="1277" y="158" type="qcurve" smooth="yes"/>
			<point x="1207" y="158" type="line"/>
			<point x="1204" y="525" type="line"/>
			<point x="1207" y="895" type="line"/>
			<point x="1364" y="930" type="line"/>
			<point x="1364" y="1050" type="line"/>
			<point x="155" y="1050" type="line"/>
			<point x="155" y="930" type="line"/>
			<point x="303" y="895" type="line"/>
			<point x="280" y="529" type="line" smooth="yes"/>
			<point x="272.330041448" y="406.9476160857"/>
			<point x="191.1445086705" y="295"/>
			<point x="97" y="295" type="qcurve" smooth="yes"/>
			<point x="78" y="295"/>
			<point x="42" y="300"/>
			<point x="20" y="307" type="qcurve"/>
			<point x="20" y="0" type="line"/>
			<point x="31" y="-6"/>
			<point x="89.4285714286" y="-18"/>
			<point x="128" y="-18" type="qcurve" smooth="yes"/>
			<point x="296.9595375723" y="-18"/>
			<point x="427.3988626779" y="230.0379848173"/>
			<point x="444" y="493" type="qcurve" smooth="yes"/>
			<point x="469" y="889" type="line"/>
		</contour>
	</outline>
	<guideline x="302" y="200" angle="90" identifier="jHuxcyi1x5"/>
	<guideline x="953" y="554" angle="90" identifier="b1mHk7wgTR"/>
	<guideline x="627" y="553" angle="90" identifier="m4aYe0x4PZ"/>
	<guideline x="302" y="625" angle="90" identifier="Ky1lHbuwqH"/>
	<guideline x="953" y="554" angle="90" identifier="KcHye0wYbo"/>
	<guideline x="627" y="553" angle="90" identifier="duMaS7Nr94"/>
	<guideline x="302" y="625" angle="90" identifier="gJ0q0pOUJd"/>
	<guideline x="953" y="554" angle="90" identifier="SLPvBuo6sg"/>
	<guideline x="627" y="553" angle="90" identifier="bUIIWOM2Q2"/>
	<guideline x="422" y="546" angle="90" identifier="tEli9XgANW"/>
	<guideline x="1235" y="655" angle="90" identifier="j6fw55adML"/>
	<guideline x="302" y="625" angle="90" identifier="uCaRB4wXH1"/>
	<guideline x="953" y="554" angle="90" identifier="z50ntHuvHK"/>
	<guideline x="627" y="553" angle="90" identifier="rpleuA4Qut"/>
	<guideline x="329" y="565" angle="0" identifier="674Fd0Cyg0"/>
</glyph>
<glyph name="gheup" format="2">
	<unicode hex="0491"/>
	<advance width="1176"/>
	<outline>
		<contour>
			<point x="1137" y="889" type="line"/>
			<point x="667" y="889" type="line"/>
			<point x="664" y="525" type="line"/>
			<point x="667" y="155" type="line"/>
			<point x="829" y="120" type="line"/>
			<point x="829" y="0" type="line"/>
			<point x="35" y="0" type="line"/>
			<point x="35" y="120" type="line"/>
			<point x="183" y="155" type="line"/>
			<point x="185" y="525" type="line"/>
			<point x="183" y="895" type="line"/>
			<point x="35" y="930" type="line"/>
			<point x="35" y="1050" type="line"/>
			<point x="896" y="1050" type="line"/>
			<point x="995" y="1368" type="line"/>
			<point x="1147" y="1368" type="line"/>
		</contour>
	</outline>
	<guideline x="302" y="625" angle="90" identifier="jHuxcyi1x5"/>
	<guideline x="953" y="554" angle="90" identifier="b1mHk7wgTR"/>
	<guideline x="627" y="553" angle="90" identifier="m4aYe0x4PZ"/>
	<guideline x="302" y="625" angle="90" identifier="YjCqpjiis4"/>
	<guideline x="953" y="554" angle="90" identifier="kl32Wf4RiS"/>
	<guideline x="627" y="553" angle="90" identifier="yGBxWYiyVF"/>
	<guideline x="302" y="625" angle="90" identifier="LMGqvsWcDg"/>
	<guideline x="953" y="554" angle="90" identifier="oyt6z6w6sp"/>
	<guideline x="627" y="553" angle="90" identifier="QAR9G92fMB"/>
	<guideline x="422" y="546" angle="90" identifier="87aHrmlszM"/>
	<guideline x="1235" y="655" angle="90" identifier="aPgV9mI3Ap"/>
</glyph>
<glyph name="Zhedescender" format="2">
	<unicode hex="0496"/>
	<advance width="2608"/>
	<outline>
		<contour>
			<point x="886" y="0" type="line"/>
			<point x="886" y="130" type="line"/>
			<point x="1064" y="165" type="line"/>
			<point x="1066" y="754" type="line"/>
			<point x="1064" y="1322" type="line"/>
			<point x="886" y="1356" type="line"/>
			<point x="886" y="1500" type="line"/>
			<point x="1741" y="1500" type="line"/>
			<point x="1741" y="1356" type="line"/>
			<point x="1565" y="1322" type="line"/>
			<point x="1563" y="754" type="line"/>
			<point x="1565" y="165" type="line"/>
			<point x="1691" y="130" type="line"/>
			<point x="1691" y="0" type="line"/>
		</contour>
		<contour>
			<point x="1315" y="696" type="line"/>
			<point x="1315" y="858" type="line"/>
			<point x="1680" y="852" type="line"/>
			<point x="2068" y="1324" type="line"/>
			<point x="1940" y="1357" type="line"/>
			<point x="1940" y="1500" type="line"/>
			<point x="2463" y="1500" type="line"/>
			<point x="2463" y="1357" type="line"/>
			<point x="2284" y="1324" type="line"/>
			<point x="1838" y="796" type="line"/>
			<point x="1750" y="696" type="line"/>
		</contour>
		<contour>
			<point x="1660" y="729" type="line"/>
			<point x="2006" y="1081" type="line"/>
			<point x="2482" y="158" type="line"/>
			<point x="2482" y="0" type="line"/>
			<point x="1821" y="0" type="line"/>
			<point x="1821" y="130" type="line"/>
			<point x="1930" y="165" type="line"/>
		</contour>
		<contour>
			<point x="1315" y="696" type="line"/>
			<point x="827" y="696" type="line"/>
			<point x="718" y="796" type="line"/>
			<point x="272" y="1324" type="line"/>
			<point x="104" y="1357" type="line"/>
			<point x="104" y="1500" type="line"/>
			<point x="637" y="1500" type="line"/>
			<point x="637" y="1357" type="line"/>
			<point x="509" y="1324" type="line"/>
			<point x="897" y="852" type="line"/>
			<point x="1315" y="858" type="line"/>
		</contour>
		<contour>
			<point x="917" y="729" type="line"/>
			<point x="647" y="165" type="line"/>
			<point x="756" y="130" type="line"/>
			<point x="756" y="0" type="line"/>
			<point x="-1" y="0" type="line"/>
			<point x="-1" y="130" type="line"/>
			<point x="128" y="165" type="line"/>
			<point x="601" y="1081" type="line"/>
		</contour>
		<contour>
			<point x="2300" y="158" type="line"/>
			<point x="2608" y="158" type="line"/>
			<point x="2618" y="-338" type="line"/>
			<point x="2446" y="-338" type="line"/>
			<point x="2347" y="0" type="line"/>
			<point x="2300" y="0" type="line"/>
		</contour>
	</outline>
	<guideline x="480" y="796" angle="90" identifier="vQLQteAbfW"/>
	<guideline x="480" y="796" angle="90" identifier="c1CJzngGNH"/>
	<guideline x="480" y="796" angle="90" identifier="3W1nNwbTiv"/>
</glyph>
<glyph name="Kadescender" format="2">
	<unicode hex="049A"/>
	<advance width="1804"/>
	<outline>
		<contour>
			<point x="42" y="0" type="line"/>
			<point x="42" y="130" type="line"/>
			<point x="220" y="165" type="line"/>
			<point x="222" y="754" type="line"/>
			<point x="220" y="1322" type="line"/>
			<point x="42" y="1356" type="line"/>
			<point x="42" y="1500" type="line"/>
			<point x="896" y="1500" type="line"/>
			<point x="896" y="1356" type="line"/>
			<point x="720" y="1322" type="line"/>
			<point x="718" y="754" type="line"/>
			<point x="720" y="165" type="line"/>
			<point x="866" y="130" type="line"/>
			<point x="866" y="0" type="line"/>
		</contour>
		<contour>
			<point x="470" y="696" type="line"/>
			<point x="470" y="858" type="line"/>
			<point x="836" y="852" type="line"/>
			<point x="1264" y="1324" type="line"/>
			<point x="1136" y="1357" type="line"/>
			<point x="1136" y="1500" type="line"/>
			<point x="1659" y="1500" type="line"/>
			<point x="1659" y="1357" type="line"/>
			<point x="1480" y="1324" type="line"/>
			<point x="994" y="796" type="line"/>
			<point x="906" y="696" type="line"/>
		</contour>
		<contour>
			<point x="816" y="729" type="line"/>
			<point x="1162" y="1081" type="line"/>
			<point x="1679" y="158" type="line"/>
			<point x="1679" y="0" type="line"/>
			<point x="1017" y="0" type="line"/>
			<point x="1017" y="130" type="line"/>
			<point x="1126" y="165" type="line"/>
		</contour>
		<contour>
			<point x="1503" y="158" type="line"/>
			<point x="1804" y="158" type="line"/>
			<point x="1814" y="-338" type="line"/>
			<point x="1642" y="-338" type="line"/>
			<point x="1543" y="0" type="line"/>
			<point x="1503" y="0" type="line"/>
		</contour>
	</outline>
	<guideline x="480" y="796" angle="90" identifier="LxfLwWU0sJ"/>
</glyph>
<glyph name="kadescender" format="2">
	<unicode hex="049B"/>
	<advance width="1571"/>
	<outline>
		<contour>
			<point x="739" y="504" type="line"/>
			<point x="1082" y="815" type="line"/>
			<point x="1454" y="161" type="line"/>
			<point x="1454" y="0" type="line"/>
			<point x="947" y="0" type="line"/>
			<point x="931" y="109" type="line"/>
			<point x="940" y="141" type="line"/>
		</contour>
		<contour>
			<point x="424" y="612" type="line"/>
			<point x="766" y="610" type="line"/>
			<point x="1024" y="880" type="line"/>
			<point x="895" y="910" type="line"/>
			<point x="895" y="1050" type="line"/>
			<point x="1453" y="1050" type="line"/>
			<point x="1453" y="910" type="line"/>
			<point x="1272" y="875" type="line"/>
			<point x="794" y="452" type="line"/>
			<point x="424" y="451" type="line"/>
		</contour>
		<contour>
			<point x="185" y="525" type="line"/>
			<point x="183" y="895" type="line"/>
			<point x="35" y="930" type="line"/>
			<point x="35" y="1050" type="line"/>
			<point x="783" y="1050" type="line"/>
			<point x="783" y="930" type="line"/>
			<point x="666" y="895" type="line"/>
			<point x="663" y="525" type="line"/>
			<point x="666" y="155" type="line"/>
			<point x="783" y="120" type="line"/>
			<point x="783" y="0" type="line"/>
			<point x="35" y="0" type="line"/>
			<point x="35" y="120" type="line"/>
			<point x="183" y="155" type="line"/>
		</contour>
		<contour>
			<point x="1300" y="161" type="line"/>
			<point x="1571" y="161" type="line"/>
			<point x="1581" y="-318" type="line"/>
			<point x="1429" y="-318" type="line"/>
			<point x="1330" y="0" type="line"/>
			<point x="1300" y="0" type="line"/>
		</contour>
	</outline>
	<guideline x="241" y="553" angle="90" identifier="lmgRx0QBdK"/>
	<guideline x="786" y="880" angle="0" identifier="nFoPGEsufr"/>
	<guideline x="302" y="625" angle="90" identifier="nrNFUrpxzB"/>
	<guideline x="953" y="554" angle="90" identifier="8MDf64Nvwa"/>
	<guideline x="627" y="553" angle="90" identifier="P0g5t2f8zl"/>
</glyph>
<glyph name="Kabashkircyr" format="2">
	<unicode hex="04A0"/>
	<advance width="2023"/>
	<outline>
		<contour>
			<point x="710" y="696" type="line"/>
			<point x="710" y="858" type="line"/>
			<point x="1076" y="852" type="line"/>
			<point x="1504" y="1324" type="line"/>
			<point x="1376" y="1357" type="line"/>
			<point x="1376" y="1500" type="line"/>
			<point x="1899" y="1500" type="line"/>
			<point x="1899" y="1357" type="line"/>
			<point x="1720" y="1324" type="line"/>
			<point x="1234" y="796" type="line"/>
			<point x="1146" y="696" type="line"/>
		</contour>
		<contour>
			<point x="1056" y="729" type="line"/>
			<point x="1402" y="1081" type="line"/>
			<point x="1915" y="165" type="line"/>
			<point x="2024" y="130" type="line"/>
			<point x="2024" y="0" type="line"/>
			<point x="1257" y="0" type="line"/>
			<point x="1257" y="130" type="line"/>
			<point x="1366" y="165" type="line"/>
		</contour>
		<contour>
			<point x="460" y="1342" type="line"/>
			<point x="225" y="1342" type="line"/>
			<point x="185" y="1056" type="line"/>
			<point x="40" y="1056" type="line"/>
			<point x="40" y="1500" type="line"/>
			<point x="1136" y="1500" type="line"/>
			<point x="1136" y="1356" type="line"/>
			<point x="960" y="1322" type="line"/>
			<point x="958" y="754" type="line"/>
			<point x="960" y="165" type="line"/>
			<point x="1106" y="130" type="line"/>
			<point x="1106" y="0" type="line"/>
			<point x="282" y="0" type="line"/>
			<point x="282" y="130" type="line"/>
			<point x="460" y="165" type="line"/>
			<point x="462" y="754" type="line"/>
		</contour>
	</outline>
	<guideline x="480" y="796" angle="90" identifier="z9sb9592ut"/>
</glyph>
<glyph name="Endescender" format="2">
	<unicode hex="04A2"/>
	<advance width="1952"/>
	<outline>
		<contour>
			<point x="1224" y="754" type="line"/>
			<point x="1222" y="1322" type="line"/>
			<point x="1046" y="1356" type="line"/>
			<point x="1046" y="1500" type="line"/>
			<point x="1900" y="1500" type="line"/>
			<point x="1900" y="1356" type="line"/>
			<point x="1722" y="1322" type="line"/>
			<point x="1720" y="754" type="line"/>
			<point x="1722" y="158" type="line"/>
			<point x="1900" y="158" type="line"/>
			<point x="1910" y="-338" type="line"/>
			<point x="1738" y="-338" type="line"/>
			<point x="1639" y="0" type="line"/>
			<point x="1046" y="0" type="line"/>
			<point x="1046" y="130" type="line"/>
			<point x="1222" y="165" type="line"/>
		</contour>
		<contour>
			<point x="42" y="0" type="line"/>
			<point x="42" y="130" type="line"/>
			<point x="220" y="165" type="line"/>
			<point x="222" y="754" type="line"/>
			<point x="220" y="1322" type="line"/>
			<point x="42" y="1356" type="line"/>
			<point x="42" y="1500" type="line"/>
			<point x="896" y="1500" type="line"/>
			<point x="896" y="1356" type="line"/>
			<point x="720" y="1322" type="line"/>
			<point x="718" y="754" type="line"/>
			<point x="720" y="165" type="line"/>
			<point x="896" y="130" type="line"/>
			<point x="896" y="0" type="line"/>
		</contour>
		<contour>
			<point x="470" y="696" type="line"/>
			<point x="470" y="858" type="line"/>
			<point x="972" y="850" type="line"/>
			<point x="1472" y="858" type="line"/>
			<point x="1472" y="696" type="line"/>
			<point x="972" y="696" type="line"/>
		</contour>
	</outline>
</glyph>
<glyph name="Ustraightstroke" format="2">
	<unicode hex="04B0"/>
	<advance width="1535"/>
	<outline>
		<contour>
			<point x="264" y="439" type="line"/>
			<point x="264" y="615" type="line"/>
			<point x="1287" y="615" type="line"/>
			<point x="1287" y="439" type="line"/>
		</contour>
		<contour>
			<point x="10" y="1357" type="line"/>
			<point x="10" y="1500" type="line"/>
			<point x="819" y="1500" type="line"/>
			<point x="819" y="1357" type="line"/>
			<point x="695" y="1323" type="line"/>
			<point x="813" y="1079" type="line"/>
			<point x="956" y="804" type="line"/>
			<point x="1097" y="1067" type="line"/>
			<point x="1223" y="1323" type="line"/>
			<point x="1099" y="1357" type="line"/>
			<point x="1099" y="1500" type="line"/>
			<point x="1525" y="1500" type="line"/>
			<point x="1525" y="1357" type="line"/>
			<point x="1393" y="1323" type="line"/>
			<point x="1226" y="1020" type="line"/>
			<point x="1026" y="615" type="line"/>
			<point x="1027" y="164" type="line"/>
			<point x="1212" y="130" type="line"/>
			<point x="1212" y="0" type="line"/>
			<point x="335" y="0" type="line"/>
			<point x="335" y="130" type="line"/>
			<point x="523" y="164" type="line"/>
			<point x="525" y="615" type="line"/>
			<point x="318" y="994" type="line"/>
			<point x="137" y="1323" type="line"/>
		</contour>
	</outline>
</glyph>
<glyph name="Hadescender" format="2">
	<unicode hex="04B2"/>
	<advance width="1638"/>
	<outline>
		<contour>
			<point x="1360" y="158" type="line"/>
			<point x="1638" y="158" type="line"/>
			<point x="1648" y="-338" type="line"/>
			<point x="1476" y="-338" type="line"/>
			<point x="1377" y="0" type="line"/>
			<point x="1360" y="0" type="line"/>
		</contour>
		<contour>
			<point x="10" y="0" type="line"/>
			<point x="10" y="130" type="line"/>
			<point x="148" y="164" type="line"/>
			<point x="711" y="854" type="line"/>
			<point x="830" y="854" type="line"/>
			<point x="1191" y="1323" type="line"/>
			<point x="1069" y="1357" type="line"/>
			<point x="1069" y="1500" type="line"/>
			<point x="1539" y="1500" type="line"/>
			<point x="1539" y="1357" type="line"/>
			<point x="1397" y="1323" type="line"/>
			<point x="926" y="727" type="line"/>
			<point x="804" y="727" type="line"/>
			<point x="354" y="164" type="line"/>
			<point x="490" y="130" type="line"/>
			<point x="490" y="0" type="line"/>
		</contour>
		<contour>
			<point x="25" y="1357" type="line"/>
			<point x="25" y="1500" type="line"/>
			<point x="880" y="1500" type="line"/>
			<point x="880" y="1357" type="line"/>
			<point x="748" y="1323" type="line"/>
			<point x="1047" y="851" type="line"/>
			<point x="1504" y="158" type="line"/>
			<point x="1504" y="0" type="line"/>
			<point x="776" y="0" type="line"/>
			<point x="776" y="130" type="line"/>
			<point x="904" y="164" type="line"/>
			<point x="566" y="721" type="line"/>
			<point x="163" y="1323" type="line"/>
		</contour>
	</outline>
</glyph>
<glyph name="hadescender" format="2">
	<unicode hex="04B3"/>
	<advance width="1361"/>
	<outline>
		<contour>
			<point x="1020" y="161" type="line"/>
			<point x="1361" y="161" type="line"/>
			<point x="1371" y="-318" type="line"/>
			<point x="1219" y="-318" type="line"/>
			<point x="1120" y="0" type="line"/>
			<point x="1020" y="0" type="line"/>
		</contour>
		<contour>
			<point x="13" y="0" type="line"/>
			<point x="13" y="120" type="line"/>
			<point x="142" y="156" type="line"/>
			<point x="531" y="572" type="line"/>
			<point x="675" y="579" type="line"/>
			<point x="945" y="880" type="line"/>
			<point x="856" y="910" type="line"/>
			<point x="856" y="1050" type="line"/>
			<point x="1277" y="1050" type="line"/>
			<point x="1277" y="910" type="line"/>
			<point x="1158" y="875" type="line"/>
			<point x="827" y="515" type="line"/>
			<point x="683" y="512" type="line"/>
			<point x="366" y="155" type="line"/>
			<point x="460" y="120" type="line"/>
			<point x="460" y="0" type="line"/>
		</contour>
		<contour>
			<point x="0" y="910" type="line"/>
			<point x="0" y="1050" type="line"/>
			<point x="741" y="1050" type="line"/>
			<point x="741" y="910" type="line"/>
			<point x="661" y="873" type="line"/>
			<point x="908" y="580" type="line"/>
			<point x="1241" y="161" type="line"/>
			<point x="1241" y="0" type="line"/>
			<point x="592" y="0" type="line"/>
			<point x="592" y="120" type="line"/>
			<point x="684" y="155" type="line"/>
			<point x="417" y="496" type="line"/>
			<point x="99" y="875" type="line"/>
		</contour>
	</outline>
</glyph>
<glyph name="Chedescender-cy" format="2">
	<unicode hex="04B6"/>
	<advance width="1895"/>
	<outline>
		<contour>
			<point x="35" y="1356" type="line"/>
			<point x="35" y="1500" type="line"/>
			<point x="880" y="1500" type="line"/>
			<point x="880" y="1356" type="line"/>
			<point x="714" y="1322" type="line"/>
			<point x="712" y="1024" type="line" smooth="yes"/>
			<point x="711" y="883"/>
			<point x="817" y="755"/>
			<point x="961" y="755" type="qcurve" smooth="yes"/>
			<point x="1072" y="755"/>
			<point x="1290" y="812"/>
			<point x="1415" y="862" type="qcurve"/>
			<point x="1415" y="695" type="line"/>
			<point x="1285" y="640"/>
			<point x="1033" y="575"/>
			<point x="802" y="575" type="qcurve" smooth="yes"/>
			<point x="534" y="575"/>
			<point x="217" y="780"/>
			<point x="215" y="1024" type="qcurve" smooth="yes"/>
			<point x="213" y="1322" type="line"/>
		</contour>
		<contour>
			<point x="1665" y="158" type="line"/>
			<point x="1843" y="158" type="line"/>
			<point x="1853" y="-338" type="line"/>
			<point x="1681" y="-338" type="line"/>
			<point x="1582" y="0" type="line"/>
			<point x="966" y="0" type="line"/>
			<point x="966" y="130" type="line"/>
			<point x="1164" y="165" type="line"/>
			<point x="1166" y="754" type="line"/>
			<point x="1164" y="1322" type="line"/>
			<point x="998" y="1356" type="line"/>
			<point x="998" y="1500" type="line"/>
			<point x="1843" y="1500" type="line"/>
			<point x="1843" y="1356" type="line"/>
			<point x="1665" y="1322" type="line"/>
			<point x="1663" y="754" type="line"/>
		</contour>
	</outline>
	<guideline x="1330" y="777" angle="90" identifier="9CLqHZNG04"/>
	<guideline x="1386" y="785" angle="90" identifier="dPrPbrTLMq"/>
</glyph>
<glyph name="chedescender-cy" format="2">
	<unicode hex="04B7"/>
	<advance width="1636"/>
	<outline>
		<contour>
			<point x="658" y="742" type="line" smooth="yes"/>
			<point x="655" y="636"/>
			<point x="747" y="557"/>
			<point x="864" y="557" type="qcurve" smooth="yes"/>
			<point x="959" y="557"/>
			<point x="1109" y="575"/>
			<point x="1203" y="600" type="qcurve"/>
			<point x="1203" y="459" type="line"/>
			<point x="1091" y="427"/>
			<point x="856" y="396"/>
			<point x="696" y="396" type="qcurve" smooth="yes"/>
			<point x="453" y="396"/>
			<point x="182" y="558"/>
			<point x="180" y="735" type="qcurve" smooth="yes"/>
			<point x="178" y="895" type="line"/>
			<point x="30" y="930" type="line"/>
			<point x="30" y="1050" type="line"/>
			<point x="769" y="1050" type="line"/>
			<point x="769" y="930" type="line"/>
			<point x="662" y="895" type="line"/>
		</contour>
		<contour>
			<point x="1350" y="0" type="line"/>
			<point x="793" y="0" type="line"/>
			<point x="793" y="120" type="line"/>
			<point x="961" y="155" type="line"/>
			<point x="964" y="525" type="line"/>
			<point x="961" y="895" type="line"/>
			<point x="854" y="930" type="line"/>
			<point x="854" y="1050" type="line"/>
			<point x="1592" y="1050" type="line"/>
			<point x="1592" y="930" type="line"/>
			<point x="1444" y="895" type="line"/>
			<point x="1442" y="525" type="line"/>
			<point x="1444" y="161" type="line"/>
			<point x="1591" y="161" type="line"/>
			<point x="1601" y="-318" type="line"/>
			<point x="1449" y="-318" type="line"/>
		</contour>
	</outline>
	<guideline x="302" y="625" angle="90" identifier="jHuxcyi1x5"/>
	<guideline x="953" y="554" angle="90" identifier="b1mHk7wgTR"/>
	<guideline x="627" y="553" angle="90" identifier="m4aYe0x4PZ"/>
	<guideline x="302" y="625" angle="90" identifier="UvAFmXEi6Q"/>
	<guideline x="953" y="554" angle="90" identifier="ydXTGR0GfB"/>
	<guideline x="627" y="553" angle="90" identifier="jKYPl26cpp"/>
	<guideline x="988" y="629" angle="90" identifier="9lOuVnAGhG"/>
	<guideline x="302" y="625" angle="90" identifier="drtLqfK37k"/>
	<guideline x="953" y="554" angle="90" identifier="bNhmEkj8wH"/>
	<guideline x="627" y="553" angle="90" identifier="zfzYCn9H3Z"/>
	<guideline x="422" y="546" angle="90" identifier="ZMCrj6svLx"/>
	<guideline x="1235" y="655" angle="90" identifier="n3wbFsGZXT"/>
	<guideline x="1208" y="674" angle="90" identifier="TuTQBtBwh7"/>
</glyph>
<glyph name="cheverticalstroke-cy" format="2">
	<unicode hex="04B9"/>
	<advance width="1647"/>
	<outline>
		<contour>
			<point x="893" y="792" type="line"/>
			<point x="893" y="210" type="line"/>
			<point x="748" y="210" type="line"/>
			<point x="748" y="792" type="line"/>
		</contour>
		<contour>
			<point x="658" y="742" type="line" smooth="yes"/>
			<point x="655" y="636"/>
			<point x="751" y="557"/>
			<point x="874" y="557" type="qcurve" smooth="yes"/>
			<point x="972" y="557"/>
			<point x="1126" y="574"/>
			<point x="1223" y="600" type="qcurve"/>
			<point x="1223" y="459" type="line"/>
			<point x="1109" y="426"/>
			<point x="869" y="396"/>
			<point x="706" y="396" type="qcurve" smooth="yes"/>
			<point x="458" y="396"/>
			<point x="182" y="558"/>
			<point x="180" y="735" type="qcurve" smooth="yes"/>
			<point x="178" y="895" type="line"/>
			<point x="30" y="930" type="line"/>
			<point x="30" y="1050" type="line"/>
			<point x="769" y="1050" type="line"/>
			<point x="769" y="930" type="line"/>
			<point x="662" y="895" type="line"/>
		</contour>
		<contour>
			<point x="1462" y="525" type="line"/>
			<point x="1464" y="155" type="line"/>
			<point x="1612" y="120" type="line"/>
			<point x="1612" y="0" type="line"/>
			<point x="814" y="0" type="line"/>
			<point x="814" y="120" type="line"/>
			<point x="981" y="155" type="line"/>
			<point x="984" y="525" type="line"/>
			<point x="981" y="895" type="line"/>
			<point x="874" y="930" type="line"/>
			<point x="874" y="1050" type="line"/>
			<point x="1612" y="1050" type="line"/>
			<point x="1612" y="930" type="line"/>
			<point x="1464" y="895" type="line"/>
		</contour>
	</outline>
	<guideline x="302" y="625" angle="90" identifier="ghzYOvRP0g"/>
	<guideline x="953" y="554" angle="90" identifier="yWzP0ZeDvZ"/>
	<guideline x="627" y="553" angle="90" identifier="2rptuWkdhO"/>
	<guideline x="302" y="625" angle="90" identifier="LGUqhQwoCq"/>
	<guideline x="953" y="554" angle="90" identifier="dXEGROBWBf"/>
	<guideline x="627" y="553" angle="90" identifier="G0ArhAjbj2"/>
	<guideline x="302" y="625" angle="90" identifier="4nQaEwIPFl"/>
	<guideline x="953" y="554" angle="90" identifier="kX4mVYgYSf"/>
	<guideline x="627" y="553" angle="90" identifier="cLLz1iSsMp"/>
	<guideline x="988" y="629" angle="90" identifier="tZWowkO817"/>
	<guideline x="302" y="625" angle="90" identifier="nm2XVs058P"/>
	<guideline x="953" y="554" angle="90" identifier="hbWF6Eyhd1"/>
	<guideline x="627" y="553" angle="90" identifier="jL2YXRPplg"/>
	<guideline x="302" y="625" angle="90" identifier="1Kqt0WkYZx"/>
	<guideline x="953" y="554" angle="90" identifier="2tFCQ1M3Si"/>
	<guideline x="627" y="553" angle="90" identifier="7jsbPH6AhP"/>
	<guideline x="988" y="629" angle="90" identifier="I720Qwb4Fg"/>
	<guideline x="302" y="625" angle="90" identifier="9kIRZRgH6A"/>
	<guideline x="953" y="554" angle="90" identifier="n83fJQyfNV"/>
	<guideline x="627" y="553" angle="90" identifier="nBYSRTnPyt"/>
	<guideline x="422" y="546" angle="90" identifier="bTXMWsJI7E"/>
	<guideline x="1235" y="655" angle="90" identifier="B8NyrUodrv"/>
	<guideline x="1208" y="674" angle="90" identifier="cm1aM4sGeF"/>
</glyph>
<glyph name="Shha" format="2">
	<unicode hex="04BA"/>
	<advance width="1885"/>
	<outline>
		<contour>
			<point x="916" y="1500" type="line"/>
			<point x="916" y="1356" type="line"/>
			<point x="720" y="1322" type="line"/>
			<point x="718" y="746" type="line"/>
			<point x="720" y="166" type="line"/>
			<point x="886" y="130" type="line"/>
			<point x="886" y="0" type="line"/>
			<point x="42" y="0" type="line"/>
			<point x="42" y="130" type="line"/>
			<point x="220" y="166" type="line"/>
			<point x="222" y="746" type="line"/>
			<point x="220" y="1322" type="line"/>
			<point x="42" y="1356" type="line"/>
			<point x="42" y="1500" type="line"/>
		</contour>
		<contour>
			<point x="1850" y="130" type="line"/>
			<point x="1850" y="0" type="line"/>
			<point x="1005" y="0" type="line"/>
			<point x="1005" y="130" type="line"/>
			<point x="1171" y="166" type="line"/>
			<point x="1173" y="456" type="line" smooth="yes"/>
			<point x="1174" y="608"/>
			<point x="1068" y="745"/>
			<point x="924" y="745" type="qcurve" smooth="yes"/>
			<point x="813.2023809524" y="745"/>
			<point x="595" y="686"/>
			<point x="470" y="636" type="qcurve"/>
			<point x="470" y="803" type="line"/>
			<point x="600" y="858"/>
			<point x="872" y="925"/>
			<point x="1083" y="925" type="qcurve" smooth="yes"/>
			<point x="1351" y="925"/>
			<point x="1668" y="711"/>
			<point x="1670" y="456" type="qcurve" smooth="yes"/>
			<point x="1672" y="166" type="line"/>
		</contour>
	</outline>
	<guideline x="1330" y="777" angle="90" identifier="SQaTFIjcpa"/>
	<guideline x="1386" y="785" angle="90" identifier="OUtSCHmh92"/>
	<guideline x="1056" y="130" angle="0" identifier="YgBGMyYeoF"/>
	<guideline x="120" y="1356" angle="0" identifier="auwoNdBYF5"/>
	<guideline x="251" y="1322" angle="0" identifier="3KbqW2G5gl"/>
</glyph>
<glyph name="hastroke-cy" format="2">
	<unicode hex="04FF"/>
	<advance width="1361"/>
	<outline>
		<contour>
			<point x="209" y="467" type="line"/>
			<point x="209" y="599" type="line"/>
			<point x="667" y="599" type="line"/>
			<point x="1125" y="599" type="line"/>
			<point x="1125" y="467" type="line"/>
			<point x="614" y="467" type="line"/>
		</contour>
		<contour>
			<point x="13" y="0" type="line"/>
			<point x="13" y="120" type="line"/>
			<point x="142" y="156" type="line"/>
			<point x="531" y="572" type="line"/>
			<point x="685" y="579" type="line"/>
			<point x="945" y="880" type="line"/>
			<point x="856" y="910" type="line"/>
			<point x="856" y="1050" type="line"/>
			<point x="1277" y="1050" type="line"/>
			<point x="1277" y="910" type="line"/>
			<point x="1158" y="875" type="line"/>
			<point x="827" y="515" type="line"/>
			<point x="673" y="512" type="line"/>
			<point x="366" y="155" type="line"/>
			<point x="460" y="120" type="line"/>
			<point x="460" y="0" type="line"/>
		</contour>
		<contour>
			<point x="0" y="910" type="line"/>
			<point x="0" y="1050" type="line"/>
			<point x="741" y="1050" type="line"/>
			<point x="741" y="910" type="line"/>
			<point x="661" y="873" type="line"/>
			<point x="898" y="570" type="line"/>
			<point x="1245" y="156" type="line"/>
			<point x="1361" y="120" type="line"/>
			<point x="1361" y="0" type="line"/>
			<point x="592" y="0" type="line"/>
			<point x="592" y="120" type="line"/>
			<point x="684" y="155" type="line"/>
			<point x="427" y="506" type="line"/>
			<point x="99" y="875" type="line"/>
		</contour>
	</outline>
</glyph>
<glyph name="guilsinglleft" format="2">
	<unicode hex="2039"/>
	<advance width="921"/>
	<outline>
		<contour>
			<point x="45" y="644" type="line"/>
			<point x="120" y="694"/>
			<point x="617" y="1013"/>
			<point x="678" y="1054" type="qcurve" smooth="yes"/>
			<point x="783" y="1124"/>
			<point x="885" y="947"/>
			<point x="784" y="879" type="qcurve" smooth="yes"/>
			<point x="640" y="782"/>
			<point x="418" y="635"/>
			<point x="384" y="615" type="qcurve"/>
			<point x="416" y="597"/>
			<point x="698" y="406"/>
			<point x="788" y="343" type="qcurve" smooth="yes"/>
			<point x="887" y="274"/>
			<point x="791" y="110"/>
			<point x="697" y="164" type="qcurve" smooth="yes"/>
			<point x="636" y="199"/>
			<point x="120" y="536"/>
			<point x="45" y="584" type="qcurve"/>
		</contour>
	</outline>
</glyph>
<glyph name="foursuperior" format="2">
  <advance width="984"/>
  <unicode hex="2074"/>
  <outline>
    <contour>
      <point x="44" y="1013" type="line"/>
      <point x="488" y="1517" type="line"/>
      <point x="713" y="1497" type="line"/>
      <point x="755" y="1459" type="line"/>
      <point x="758" y="948" type="line"/>
      <point x="758" y="801" type="line"/>
      <point x="904" y="775" type="line"/>
      <point x="904" y="670" type="line"/>
      <point x="322" y="670" type="line"/>
      <point x="322" y="775" type="line"/>
      <point x="475" y="801" type="line"/>
      <point x="478" y="947" type="line"/>
      <point x="483" y="1326" type="line"/>
      <point x="229" y="1036" type="line"/>
      <point x="230" y="1018" type="line"/>
      <point x="929" y="1014" type="line"/>
      <point x="929" y="901" type="line"/>
      <point x="68" y="899" type="line"/>
    </contour>
  </outline>
</glyph>
<glyph name="franc" format="2">
  <advance width="1372"/>
  <unicode hex="20A3"/>
  <outline>
    <contour>
      <point x="66" y="0" type="line"/>
      <point x="66" y="130" type="line"/>
      <point x="244" y="165" type="line"/>
      <point x="246" y="754" type="line"/>
      <point x="244" y="1322" type="line"/>
      <point x="66" y="1356" type="line"/>
      <point x="66" y="1500" type="line"/>
      <point x="1332" y="1500" type="line"/>
      <point x="1332" y="1139" type="line"/>
      <point x="1175" y="1139" type="line"/>
      <point x="1140" y="1342" type="line"/>
      <point x="800" y="1342" type="line"/>
      <point x="745" y="1318" type="line"/>
      <point x="749" y="760" type="line"/>
      <point x="751" y="165" type="line"/>
      <point x="933" y="131" type="line"/>
      <point x="933" y="0" type="line"/>
    </contour>
    <contour>
      <point x="495" y="698" type="line"/>
      <point x="495" y="834" type="line"/>
      <point x="1068" y="844" type="line"/>
      <point x="1095" y="995" type="line"/>
      <point x="1239" y="995" type="line"/>
      <point x="1239" y="550" type="line"/>
      <point x="1095" y="550" type="line"/>
      <point x="1068" y="688" type="line"/>
    </contour>
    <contour>
      <point x="65" y="308" type="line"/>
      <point x="31" y="499" type="line"/>
      <point x="1082" y="499" type="line"/>
      <point x="1042" y="308" type="line"/>
    </contour>
  </outline>
</glyph>
<glyph name="lira" format="2">
  <advance width="1190"/>
  <unicode hex="20A4"/>
  <outline>
    <contour>
      <point x="766" y="580" type="qcurve" smooth="yes"/>
      <point x="766" y="474"/>
      <point x="627" y="301"/>
      <point x="536" y="248" type="qcurve"/>
      <point x="544" y="215" type="line"/>
      <point x="934" y="208" type="line"/>
      <point x="1048" y="422" type="line"/>
      <point x="1190" y="422" type="line"/>
      <point x="1091" y="0" type="line"/>
      <point x="70" y="0" type="line"/>
      <point x="10" y="150" type="line"/>
      <point x="61" y="213" type="line"/>
      <point x="251" y="202"/>
      <point x="430" y="359"/>
      <point x="430" y="472" type="qcurve" smooth="yes"/>
      <point x="430" y="526"/>
      <point x="340" y="669"/>
      <point x="286" y="737" type="qcurve" smooth="yes"/>
      <point x="202" y="843"/>
      <point x="123" y="1005"/>
      <point x="123" y="1112" type="qcurve" smooth="yes"/>
      <point x="123" y="1299"/>
      <point x="388" y="1516"/>
      <point x="648" y="1516" type="qcurve" smooth="yes"/>
      <point x="811" y="1516"/>
      <point x="1037" y="1416"/>
      <point x="1112" y="1328" type="qcurve"/>
      <point x="1036" y="1162" type="line"/>
      <point x="972" y="1231"/>
      <point x="826" y="1304"/>
      <point x="749" y="1304" type="qcurve" smooth="yes"/>
      <point x="640" y="1304"/>
      <point x="547" y="1209"/>
      <point x="547" y="1126" type="qcurve" smooth="yes"/>
      <point x="547" y="1050"/>
      <point x="603" y="923"/>
      <point x="668" y="836" type="qcurve" smooth="yes"/>
      <point x="725" y="759"/>
      <point x="766" y="639"/>
    </contour>
    <contour>
      <point x="141" y="471" type="line"/>
      <point x="107" y="667" type="line"/>
      <point x="971" y="667" type="line"/>
      <point x="931" y="471" type="line"/>
    </contour>
    <contour>
      <point x="71" y="781" type="line"/>
      <point x="37" y="977" type="line"/>
      <point x="1021" y="977" type="line"/>
      <point x="981" y="781" type="line"/>
    </contour>
  </outline>
</glyph>
<glyph name="won" format="2">
  <advance width="2198"/>
  <unicode hex="20A9"/>
  <outline>
    <contour>
      <point x="30" y="1357" type="line"/>
      <point x="30" y="1500" type="line"/>
      <point x="739" y="1500" type="line"/>
      <point x="739" y="1357" type="line"/>
      <point x="622" y="1323" type="line"/>
      <point x="745" y="844" type="line"/>
      <point x="858" y="403" type="line"/>
      <point x="970" y="793" type="line"/>
      <point x="1080" y="1231" type="line"/>
      <point x="1188" y="1042" type="line"/>
      <point x="1082" y="676" type="line"/>
      <point x="896" y="0" type="line"/>
      <point x="517" y="0" type="line"/>
      <point x="321" y="736" type="line"/>
      <point x="158" y="1323" type="line"/>
    </contour>
    <contour>
      <point x="877" y="1360" type="line"/>
      <point x="877" y="1500" type="line"/>
      <point x="1541" y="1500" type="line"/>
      <point x="1541" y="1360" type="line"/>
      <point x="1423" y="1326" type="line"/>
      <point x="1541" y="856" type="line"/>
      <point x="1655" y="417" type="line"/>
      <point x="1760" y="846" type="line"/>
      <point x="1875" y="1323" type="line"/>
      <point x="1740" y="1357" type="line"/>
      <point x="1740" y="1500" type="line"/>
      <point x="2177" y="1500" type="line"/>
      <point x="2177" y="1357" type="line"/>
      <point x="2041" y="1323" type="line"/>
      <point x="1899" y="808" type="line"/>
      <point x="1703" y="0" type="line"/>
      <point x="1324" y="0" type="line"/>
      <point x="1155" y="711" type="line"/>
      <point x="984" y="1326" type="line"/>
    </contour>
    <contour>
      <point x="2044" y="528" type="line"/>
      <point x="1762" y="528" type="line"/>
      <point x="1762" y="559" type="line"/>
      <point x="1273" y="559" type="line"/>
      <point x="1236" y="691" type="line"/>
      <point x="1801" y="691" type="line"/>
      <point x="1801" y="715" type="line"/>
      <point x="2083" y="715" type="line"/>
    </contour>
    <contour>
      <point x="2133" y="866" type="line"/>
      <point x="1841" y="866" type="line"/>
      <point x="1841" y="888" type="line"/>
      <point x="1151" y="888" type="line"/>
      <point x="1111" y="1035" type="line"/>
      <point x="1881" y="1035" type="line"/>
      <point x="1881" y="1054" type="line"/>
      <point x="2181" y="1054" type="line"/>
    </contour>
    <contour>
      <point x="167" y="528" type="line"/>
      <point x="128" y="715" type="line"/>
      <point x="470" y="715" type="line"/>
      <point x="470" y="691" type="line"/>
      <point x="1236" y="691" type="line"/>
      <point x="1273" y="559" type="line"/>
      <point x="529" y="559" type="line"/>
      <point x="529" y="528" type="line"/>
    </contour>
    <contour>
      <point x="78" y="866" type="line"/>
      <point x="30" y="1054" type="line"/>
      <point x="350" y="1054" type="line"/>
      <point x="350" y="1035" type="line"/>
      <point x="1111" y="1035" type="line"/>
      <point x="1151" y="888" type="line"/>
      <point x="390" y="888" type="line"/>
      <point x="390" y="866" type="line"/>
    </contour>
  </outline>
</glyph>
<glyph name="euro" format="2">
  <advance width="1365"/>
  <unicode hex="20AC"/>
  <outline>
    <contour>
      <point x="204" y="746" type="qcurve" smooth="yes"/>
      <point x="204" y="1131"/>
      <point x="633" y="1520"/>
      <point x="962" y="1520" type="qcurve" smooth="yes"/>
      <point x="1050" y="1520"/>
      <point x="1261" y="1456"/>
      <point x="1323" y="1378" type="qcurve"/>
      <point x="1256" y="1251" type="line"/>
      <point x="1196" y="1300"/>
      <point x="1078" y="1340"/>
      <point x="1008" y="1340" type="qcurve" smooth="yes"/>
      <point x="841" y="1340"/>
      <point x="695" y="1056"/>
      <point x="696" y="772" type="qcurve" smooth="yes"/>
      <point x="697" y="450"/>
      <point x="841" y="143"/>
      <point x="1007" y="143" type="qcurve" smooth="yes"/>
      <point x="1106" y="143"/>
      <point x="1223" y="193"/>
      <point x="1286" y="251" type="qcurve"/>
      <point x="1352" y="133" type="line"/>
      <point x="1282" y="55"/>
      <point x="1072" y="-27"/>
      <point x="922" y="-27" type="qcurve" smooth="yes"/>
      <point x="564" y="-27"/>
      <point x="204" y="374"/>
    </contour>
    <contour>
      <point x="70" y="838" type="line"/>
      <point x="104" y="1014" type="line"/>
      <point x="1174" y="1014" type="line"/>
      <point x="1214" y="838" type="line"/>
    </contour>
    <contour>
      <point x="63" y="511" type="line"/>
      <point x="49" y="687" type="line"/>
      <point x="1203" y="687" type="line"/>
      <point x="1163" y="511" type="line"/>
    </contour>
  </outline>
</glyph>
<glyph name="hryvnia" format="2">
	<unicode hex="20B4"/>
	<advance width="1312"/>
	<outline>
		<contour>
			<point x="677" y="-24" type="qcurve" smooth="yes"/>
			<point x="401" y="-24"/>
			<point x="128" y="209.0215827338"/>
			<point x="128" y="386" type="qcurve" smooth="yes"/>
			<point x="128" y="446"/>
			<point x="150.4083749341" y="550.7604046239"/>
			<point x="172" y="596" type="qcurve"/>
			<point x="205" y="601" type="line"/>
			<point x="260" y="696"/>
			<point x="466" y="838"/>
			<point x="603" y="897" type="qcurve"/>
			<point x="632" y="911"/>
			<point x="656" y="923"/>
			<point x="677" y="933" type="qcurve"/>
			<point x="611" y="960" type="line"/>
			<point x="682.0305465981" y="1009.4125541552"/>
			<point x="735" y="1128.5964912281"/>
			<point x="735" y="1208" type="qcurve" smooth="yes"/>
			<point x="735" y="1281.8287292818"/>
			<point x="666" y="1369"/>
			<point x="593" y="1369" type="qcurve" smooth="yes"/>
			<point x="520" y="1369"/>
			<point x="382" y="1303"/>
			<point x="320" y="1232" type="qcurve"/>
			<point x="218" y="1384" type="line"/>
			<point x="308" y="1459"/>
			<point x="522" y="1527"/>
			<point x="674" y="1527" type="qcurve" smooth="yes"/>
			<point x="896" y="1527"/>
			<point x="1181" y="1310.8612440191"/>
			<point x="1181" y="1129" type="qcurve" smooth="yes"/>
			<point x="1181" y="1068.2408376963"/>
			<point x="1158.8949231183" y="962.2371603271"/>
			<point x="1133" y="918" type="qcurve"/>
			<point x="1084" y="902" type="line"/>
			<point x="1038" y="832"/>
			<point x="870" y="723"/>
			<point x="747" y="676" type="qcurve" smooth="yes"/>
			<point x="697" y="657"/>
			<point x="617" y="616"/>
			<point x="588" y="592" type="qcurve"/>
			<point x="652" y="574" type="line"/>
			<point x="614.3520810194" y="534.3170583718"/>
			<point x="577" y="431.4433962264"/>
			<point x="577" y="355" type="qcurve" smooth="yes"/>
			<point x="577" y="257.3192488263"/>
			<point x="679" y="149"/>
			<point x="777" y="149" type="qcurve" smooth="yes"/>
			<point x="878" y="149"/>
			<point x="1046.2300671479" y="268.1654605881"/>
			<point x="1096" y="373" type="qcurve"/>
			<point x="1226" y="249" type="line"/>
			<point x="1147.7308579084" y="115.4206641636"/>
			<point x="884" y="-24"/>
		</contour>
		<contour>
			<point x="30" y="858" type="line"/>
			<point x="43" y="1024" type="line"/>
			<point x="1269" y="1024" type="line"/>
			<point x="1282" y="858" type="line"/>
		</contour>
		<contour>
			<point x="43" y="501" type="line"/>
			<point x="30" y="667" type="line"/>
			<point x="1282" y="667" type="line"/>
			<point x="1269" y="501" type="line"/>
		</contour>
	</outline>
</glyph>
<glyph name="tenge" format="2">
	<unicode hex="20B8"/>
	<advance width="1485"/>
	<outline>
		<contour>
			<point x="40" y="1324" type="line"/>
			<point x="74" y="1500" type="line"/>
			<point x="1405" y="1500" type="line"/>
			<point x="1445" y="1324" type="line"/>
		</contour>
		<contour>
			<point x="40" y="729" type="line"/>
			<point x="40" y="1173" type="line"/>
			<point x="1445" y="1173" type="line"/>
			<point x="1445" y="729" type="line"/>
			<point x="1299" y="729" type="line"/>
			<point x="1259" y="1015" type="line"/>
			<point x="1003" y="1015" type="line"/>
			<point x="990" y="999" type="line"/>
			<point x="991" y="554" type="line"/>
			<point x="992" y="165" type="line"/>
			<point x="1180" y="130" type="line"/>
			<point x="1180" y="0" type="line"/>
			<point x="303" y="0" type="line"/>
			<point x="303" y="130" type="line"/>
			<point x="491" y="165" type="line"/>
			<point x="493" y="554" type="line"/>
			<point x="494" y="999" type="line"/>
			<point x="479" y="1015" type="line"/>
			<point x="225" y="1015" type="line"/>
			<point x="185" y="729" type="line"/>
		</contour>
	</outline>
</glyph>
<glyph name="numero" format="2">
  <advance width="2675"/>
  <unicode hex="2116"/>
  <outline>
    <contour>
      <point x="68" y="0" type="line"/>
      <point x="68" y="130" type="line"/>
      <point x="243" y="165" type="line"/>
      <point x="261" y="754" type="line"/>
      <point x="273" y="1323" type="line"/>
      <point x="98" y="1357" type="line"/>
      <point x="98" y="1500" type="line"/>
      <point x="720" y="1500" type="line"/>
      <point x="1036" y="933" type="line"/>
      <point x="1287" y="484" type="line"/>
      <point x="1281" y="803" type="line"/>
      <point x="1274" y="1323" type="line"/>
      <point x="1100" y="1357" type="line"/>
      <point x="1100" y="1500" type="line"/>
      <point x="1606" y="1500" type="line"/>
      <point x="1606" y="1357" type="line"/>
      <point x="1434" y="1323" type="line"/>
      <point x="1432" y="779" type="line"/>
      <point x="1438" y="0" type="line"/>
      <point x="1074" y="0" type="line"/>
      <point x="709" y="638" type="line"/>
      <point x="429" y="1139" type="line"/>
      <point x="417" y="721" type="line"/>
      <point x="403" y="165" type="line"/>
      <point x="575" y="130" type="line"/>
      <point x="575" y="0" type="line"/>
    </contour>
    <contour>
      <point x="1569" y="986" type="qcurve" smooth="yes"/>
      <point x="1569" y="1230"/>
      <point x="1883" y="1522"/>
      <point x="2080" y="1522" type="qcurve" smooth="yes"/>
      <point x="2280" y="1522"/>
      <point x="2595" y="1249"/>
      <point x="2595" y="992" type="qcurve" smooth="yes"/>
      <point x="2595" y="750"/>
      <point x="2283" y="451"/>
      <point x="2086" y="451" type="qcurve" smooth="yes"/>
      <point x="1886" y="451"/>
      <point x="1569" y="728"/>
    </contour>
    <contour>
      <point x="1885" y="1008" type="qcurve" smooth="yes"/>
      <point x="1886" y="813"/>
      <point x="1980" y="578"/>
      <point x="2078" y="578" type="qcurve" smooth="yes"/>
      <point x="2186" y="578"/>
      <point x="2272" y="789"/>
      <point x="2272" y="991" type="qcurve" smooth="yes"/>
      <point x="2272" y="1180"/>
      <point x="2177" y="1388"/>
      <point x="2079" y="1388" type="qcurve" smooth="yes"/>
      <point x="1971" y="1388"/>
      <point x="1884" y="1202"/>
    </contour>
    <contour>
      <point x="1689" y="281" type="qcurve" smooth="yes"/>
      <point x="1689" y="322"/>
      <point x="1901" y="381"/>
      <point x="2083" y="381" type="qcurve" smooth="yes"/>
      <point x="2265" y="381"/>
      <point x="2477" y="322"/>
      <point x="2477" y="281" type="qcurve" smooth="yes"/>
      <point x="2477" y="241"/>
      <point x="2265" y="181"/>
      <point x="2083" y="181" type="qcurve" smooth="yes"/>
      <point x="1901" y="181"/>
      <point x="1689" y="241"/>
    </contour>
  </outline>
</glyph>
<glyph name="greaterequal" format="2">
	<unicode hex="2265"/>
	<advance width="1083"/>
	<outline>
		<contour>
			<point x="63" y="1" type="line"/>
			<point x="63" y="261" type="line"/>
			<point x="1020" y="261" type="line"/>
			<point x="1020" y="1" type="line"/>
		</contour>
		<contour>
			<point x="981" y="796" type="qcurve"/>
			<point x="981" y="796"/>
			<point x="422" y="400"/>
			<point x="346" y="346" type="qcurve" smooth="yes"/>
			<point x="267" y="290"/>
			<point x="123" y="454"/>
			<point x="202" y="527" type="qcurve" smooth="yes"/>
			<point x="305" y="622"/>
			<point x="505" y="799"/>
			<point x="505" y="799" type="qcurve"/>
			<point x="505" y="799"/>
			<point x="321" y="974"/>
			<point x="206" y="1078" type="qcurve" smooth="yes"/>
			<point x="125" y="1151"/>
			<point x="264" y="1320"/>
			<point x="359" y="1252" type="qcurve" smooth="yes"/>
			<point x="436" y="1198"/>
			<point x="981" y="796"/>
		</contour>
	</outline>
</glyph>
<glyph name="rightanglebracket" format="2">
  <advance width="1125"/>
  <unicode hex="27E9"/>
  <outline>
    <contour>
      <point x="190" y="-155" type="line"/>
      <point x="21" y="118" type="line"/>
      <point x="675" y="687" type="line"/>
      <point x="21" y="1232" type="line"/>
      <point x="190" y="1508" type="line"/>
      <point x="1078" y="805" type="line"/>
      <point x="1078" y="548" type="line"/>
    </contour>
  </outline>
</glyph>
<glyph name="De.bgr" format="2">
	<advance width="1765"/>
	<outline>
		<contour>
			<point x="1091" y="59" type="line"/>
			<point x="873" y="655" type="line"/>
			<point x="691" y="1115" type="line"/>
			<point x="524" y="668" type="line"/>
			<point x="321" y="58" type="line"/>
			<point x="139" y="58" type="line"/>
			<point x="373" y="705" type="line"/>
			<point x="659" y="1500" type="line"/>
			<point x="1086" y="1500" type="line"/>
			<point x="1370" y="741" type="line"/>
			<point x="1627" y="59" type="line"/>
		</contour>
		<contour>
			<point x="1568" y="-338" type="line"/>
			<point x="1469" y="0" type="line"/>
			<point x="296" y="0" type="line"/>
			<point x="197" y="-338" type="line"/>
			<point x="25" y="-338" type="line"/>
			<point x="35" y="158" type="line"/>
			<point x="1730" y="158" type="line"/>
			<point x="1740" y="-338" type="line"/>
		</contour>
	</outline>
</glyph>
<glyph name="breve.cyr.case" format="2">
  <advance width="1028"/>
  <anchor x="514.0" y="1500" name="_top"/>
  <anchor x="514.0" y="1500" name="top"/>
  <outline>
    <contour>
      <point x="514" y="1777" type="qcurve" smooth="yes"/>
      <point x="602" y="1777"/>
      <point x="707" y="1882"/>
      <point x="733" y="2004" type="qcurve"/>
      <point x="911" y="1922" type="line"/>
      <point x="884" y="1785"/>
      <point x="684" y="1605"/>
      <point x="514" y="1605" type="qcurve" smooth="yes"/>
      <point x="344" y="1605"/>
      <point x="144" y="1785"/>
      <point x="117" y="1922" type="qcurve"/>
      <point x="295" y="2004" type="line"/>
      <point x="321" y="1882"/>
      <point x="426" y="1777"/>
    </contour>
  </outline>
</glyph>
